<?xml version="1.0" encoding="UTF-8"?>
<svg width="40px" height="40px" viewBox="0 0 40 40" version="1.1" xmlns="http://www.w3.org/2000/svg" xmlns:xlink="http://www.w3.org/1999/xlink">
    <!-- Generator: Sketch 52.6 (67491) - http://www.bohemiancoding.com/sketch -->
    <title>ChromeWebStore_BadgeWBorder</title>
    <desc>Created with Sketch.</desc>
    <defs>
        <path d="M0.300403226,0.192204301 L0.300403226,29.6505376 C0.300403226,31.0393145 1.43682796,32.1754032 2.82560484,32.1754032 L34.8084677,32.1754032 C36.1972446,32.1754032 37.3336694,31.0393145 37.3336694,29.6505376 L37.3336694,0.192204301 L0.300403226,0.192204301 Z M12.9254032,5.24227151 C12.9254032,4.31216398 13.6787634,3.55880376 14.608871,3.55880376 L23.0255376,3.55880376 C23.9553091,3.55880376 24.7090054,4.31216398 24.7090054,5.24227151 C24.7090054,6.17237903 23.9553091,6.92573925 23.0255376,6.92573925 L14.608871,6.92573925 C13.6787634,6.92573925 12.9254032,6.17237903 12.9254032,5.24227151 Z" id="path-1"></path>
        <path d="M0.137432796,16.2096774 C0.137432796,16.2227823 0.137432796,16.2355511 0.137432796,16.2486559 C0.137432796,16.2584005 0.137768817,16.2684812 0.137768817,16.2785618 L0.137768817,16.3081317 C0.137768817,16.3161962 0.137768817,16.3235887 0.138104839,16.3316532 L0.138104839,16.3652554 C0.13844086,16.3662634 0.13844086,16.3672715 0.13844086,16.3679435 C0.13844086,16.3797043 0.138776882,16.3918011 0.138776882,16.4035618 L0.138776882,16.4193548 C0.139112903,16.4206989 0.139112903,16.422043 0.139112903,16.4233871 L0.139112903,16.4502688 C0.139448925,16.4553091 0.139448925,16.4606855 0.139448925,16.4657258 C0.139448925,16.4674059 0.139448925,16.469422 0.139448925,16.4714382 C0.139784946,16.4875672 0.140120968,16.5040323 0.140456989,16.5201613 C0.140456989,16.5204973 0.140456989,16.5211694 0.140456989,16.5218414 C0.141129032,16.5487231 0.141465054,16.5745968 0.142473118,16.6014785 L0.142473118,16.6189516 C0.14280914,16.6206317 0.14280914,16.6223118 0.14280914,16.6239919 C0.14280914,16.6263441 0.14280914,16.6283602 0.14280914,16.6307124 C0.143145161,16.6434812 0.143481183,16.65625 0.143817204,16.6693548 C0.144153226,16.6730511 0.144153226,16.6770833 0.144489247,16.6807796 C0.144825269,16.6891801 0.144825269,16.6965726 0.14516129,16.7049731 C0.14516129,16.7053091 0.14516129,16.7056452 0.14516129,16.7063172 C0.14516129,16.7116935 0.145497312,16.7163978 0.145497312,16.7217742 C0.145497312,16.7231183 0.145497312,16.7244624 0.145497312,16.7258065 C0.146169355,16.7432796 0.146841398,16.7597446 0.147513441,16.7775538 C0.147513441,16.7799059 0.147513441,16.781922 0.147849462,16.7842742 C0.148185484,16.7956989 0.148521505,16.8081317 0.148857527,16.8195565 C0.148857527,16.8198925 0.148857527,16.8209005 0.148857527,16.8215726 C0.149193548,16.8252688 0.149193548,16.8289651 0.14952957,16.8326613 L0.14952957,16.8373656 C0.14952957,16.8390457 0.14952957,16.8400538 0.149865591,16.8417339 C0.149865591,16.8420699 0.149865591,16.8424059 0.149865591,16.843078 C0.151209677,16.8733199 0.152217742,16.9028898 0.153561828,16.9327957 C0.154233871,16.9482527 0.154905914,16.9650538 0.155577957,16.9805108 C0.155913978,16.9818548 0.155913978,16.9828629 0.155913978,16.984207 C0.15625,16.9868952 0.15625,16.9895833 0.15625,16.9922715 C0.15625,16.9929435 0.15625,16.9942876 0.15625,16.9946237 C0.156586022,16.9952957 0.156586022,16.9959677 0.156586022,16.9966398 C0.156922043,17.0026882 0.157258065,17.0087366 0.157258065,17.0147849 C0.157594086,17.0184812 0.157594086,17.0218414 0.157930108,17.0255376 C0.157930108,17.0262097 0.157930108,17.0268817 0.157930108,17.0275538 C0.157930108,17.0282258 0.157930108,17.0285618 0.158266129,17.0292339 C0.158266129,17.030578 0.158266129,17.031922 0.158266129,17.0336022 C0.158938172,17.0453629 0.159610215,17.0577957 0.160282258,17.0698925 C0.160282258,17.0742608 0.16061828,17.078629 0.160954301,17.0829973 C0.160954301,17.0833333 0.160954301,17.0836694 0.160954301,17.0840054 C0.162634409,17.1112231 0.163978495,17.1374328 0.165658602,17.1643145 C0.165994624,17.1706989 0.166330645,17.1770833 0.166666667,17.1841398 C0.166666667,17.1851478 0.166666667,17.1861559 0.167002688,17.186828 L0.167002688,17.1898522 C0.168010753,17.2046371 0.169018817,17.2197581 0.16969086,17.234543 C0.16969086,17.234879 0.16969086,17.2352151 0.16969086,17.2352151 C0.16969086,17.2358871 0.170026882,17.2365591 0.170026882,17.2368952 C0.170026882,17.2372312 0.170026882,17.2375672 0.170026882,17.2375672 C0.172379032,17.2711694 0.174395161,17.3047715 0.176747312,17.3380376 C0.176747312,17.3383737 0.176747312,17.3390457 0.176747312,17.3393817 C0.177419355,17.3461022 0.177755376,17.3524866 0.178427419,17.359207 C0.178763441,17.3642473 0.179099462,17.3696237 0.179435484,17.375 C0.179771505,17.3797043 0.179771505,17.3840726 0.180107527,17.3887769 C0.180443548,17.3894489 0.180443548,17.390121 0.180443548,17.390793 C0.190188172,17.5235215 0.201612903,17.656586 0.21438172,17.7886425 C0.214717742,17.7930108 0.215389785,17.797043 0.215725806,17.8014113 C0.216733871,17.811828 0.217741935,17.8222446 0.21875,17.8329973 C0.219422043,17.8390457 0.220094086,17.8454301 0.220766129,17.8518145 C0.221438172,17.859207 0.222110215,17.8655914 0.222782258,17.8729839 C0.236895161,18.0070565 0.252352151,18.140457 0.269489247,18.2735215 C0.269825269,18.2758737 0.269825269,18.2772177 0.27016129,18.2792339 C0.271505376,18.2906586 0.273185484,18.3024194 0.27452957,18.3138441 C0.275201613,18.3182124 0.275873656,18.3225806 0.276209677,18.3266129 C0.277553763,18.3363575 0.278897849,18.3457661 0.280241935,18.3555108 C0.28125,18.3639113 0.282594086,18.3729839 0.283602151,18.3810484 C0.284610215,18.3870968 0.285282258,18.3931452 0.285954301,18.3991935 C0.30141129,18.5114247 0.317876344,18.6233199 0.335685484,18.734543 L31.922379,18.734543 C31.9479167,18.5732527 31.9711022,18.4116263 31.9915995,18.2486559 C31.9919355,18.2476478 31.9919355,18.2469758 31.9919355,18.2459677 C31.9932796,18.2352151 31.9946237,18.2251344 31.9959677,18.2143817 C31.9969758,18.2063172 31.9979839,18.1985887 31.9989919,18.1905242 C31.999664,18.1838038 32.000672,18.1760753 32.0016801,18.1690188 C32.0030242,18.1572581 32.0043683,18.1454973 32.0057124,18.1337366 C32.0063844,18.1290323 32.0067204,18.125 32.0073925,18.1202957 C32.0090726,18.1055108 32.0110887,18.0907258 32.0127688,18.0759409 C32.0127688,18.0739247 32.0131048,18.0715726 32.0134409,18.0695565 C32.0218414,17.9966398 32.0299059,17.9237231 32.0372984,17.8504704 C32.0577957,17.6475134 32.0745968,17.4432124 32.0877016,17.2382392 C32.0877016,17.2379032 32.0880376,17.2375672 32.0880376,17.2372312 L32.0880376,17.233871 C32.0890457,17.21875 32.0897177,17.2039651 32.0907258,17.1888441 C32.0907258,17.1888441 32.0910618,17.1885081 32.0910618,17.188172 C32.0910618,17.1875 32.0910618,17.186828 32.0910618,17.1864919 C32.0910618,17.1861559 32.0910618,17.1861559 32.0910618,17.1858199 C32.0913978,17.1777554 32.0920699,17.1693548 32.0924059,17.1612903 C32.093414,17.1485215 32.094086,17.1357527 32.0947581,17.1229839 C32.0954301,17.109879 32.0961022,17.0967742 32.0967742,17.0836694 L32.0967742,17.0833333 C32.0971102,17.0759409 32.0977823,17.0685484 32.0981183,17.0614919 C32.0981183,17.0601478 32.0981183,17.0588038 32.0984543,17.0574597 C32.0984543,17.0554435 32.0984543,17.0540995 32.0984543,17.0520833 C32.0987903,17.0510753 32.0987903,17.0500672 32.0987903,17.0493952 C32.0991263,17.0456989 32.0991263,17.0416667 32.0991263,17.0376344 C32.0991263,17.0369624 32.0994624,17.0362903 32.0994624,17.0352823 C32.0994624,17.0349462 32.0994624,17.0342742 32.0994624,17.0336022 C32.0994624,17.0329301 32.0994624,17.0325941 32.0997984,17.031922 C32.0997984,17.0302419 32.0997984,17.0292339 32.0997984,17.0275538 C32.0997984,17.0275538 32.0997984,17.0272177 32.0997984,17.0268817 C32.1001344,17.0208333 32.1004704,17.0144489 32.1008065,17.0080645 C32.1011425,17.0030242 32.1011425,16.9976478 32.1014785,16.9926075 C32.1018145,16.9899194 32.1018145,16.9872312 32.1018145,16.984543 L32.1021505,16.984543 C32.1021505,16.9831989 32.1021505,16.9821909 32.1021505,16.9815188 C32.1034946,16.9506048 32.1048387,16.9196909 32.1061828,16.8887769 C32.1061828,16.8884409 32.1061828,16.8881048 32.1061828,16.8877688 C32.1061828,16.8867608 32.1065188,16.8844086 32.1065188,16.8834005 C32.1065188,16.8830645 32.1065188,16.8823925 32.1065188,16.8820565 C32.1065188,16.8793683 32.1068548,16.8766801 32.1068548,16.8739919 C32.1068548,16.8736559 32.1068548,16.8729839 32.1068548,16.8723118 C32.1075269,16.859207 32.1078629,16.8457661 32.1085349,16.8326613 L32.1085349,16.8259409 C32.109207,16.8145161 32.109543,16.8040995 32.109879,16.7926747 C32.1102151,16.7883065 32.1102151,16.7839382 32.1105511,16.7799059 C32.1105511,16.7782258 32.1105511,16.7772177 32.1105511,16.7755376 C32.1108871,16.765793 32.1112231,16.7560484 32.1115591,16.7463038 C32.1118952,16.7392473 32.1118952,16.7328629 32.1122312,16.7258065 L32.1122312,16.7254704 C32.1122312,16.7244624 32.1122312,16.7231183 32.1122312,16.7221102 C32.1125672,16.7170699 32.1125672,16.7120296 32.1129032,16.7069892 C32.1132392,16.6972446 32.1135753,16.687836 32.1135753,16.6780914 C32.1135753,16.6770833 32.1139113,16.6757392 32.1139113,16.6747312 C32.1139113,16.6733871 32.1139113,16.672379 32.1139113,16.6710349 C32.1142473,16.6592742 32.1145833,16.6471774 32.1149194,16.6354167 L32.1149194,16.6270161 C32.1152554,16.624328 32.1152554,16.6216398 32.1152554,16.6189516 C32.1152554,16.6186156 32.1152554,16.6182796 32.1152554,16.6179435 C32.1152554,16.6155914 32.1152554,16.6132392 32.1155914,16.6108871 C32.1155914,16.6004704 32.1159274,16.5913978 32.1162634,16.5809812 C32.1165995,16.561828 32.1169355,16.5426747 32.1172715,16.5231855 C32.1172715,16.5211694 32.1172715,16.5184812 32.1176075,16.516129 L32.1176075,16.5047043 C32.1176075,16.4969758 32.1179435,16.4899194 32.1179435,16.4825269 C32.1179435,16.4818548 32.1182796,16.4808468 32.1182796,16.4801747 C32.1182796,16.4774866 32.1182796,16.4747984 32.1182796,16.4721102 L32.1182796,16.4717742 C32.1182796,16.469086 32.1182796,16.4657258 32.1182796,16.4627016 C32.1186156,16.4556452 32.1186156,16.4489247 32.1186156,16.4422043 C32.1186156,16.4415323 32.1186156,16.4411962 32.1186156,16.4405242 C32.1189516,16.437164 32.1189516,16.4338038 32.1189516,16.4307796 L32.1189516,16.4203629 C32.1192876,16.4159946 32.1192876,16.4116263 32.1192876,16.4075941 C32.1192876,16.406586 32.1192876,16.4052419 32.1192876,16.4042339 C32.1192876,16.3918011 32.1196237,16.3786962 32.1196237,16.3662634 C32.1196237,16.3659274 32.1196237,16.3652554 32.1196237,16.3649194 C32.1196237,16.359543 32.1196237,16.3534946 32.1199597,16.3481183 L32.1199597,16.3319892 C32.1199597,16.3239247 32.1199597,16.3158602 32.1202957,16.3077957 L32.1202957,16.2096774 C32.1202957,7.37768817 24.9610215,0.218077957 16.1290323,0.218077957 C7.29737903,0.218077957 0.137432796,7.37768817 0.137432796,16.2096774 Z" id="path-3"></path>
        <path d="M0.300403226,0.192204301 L0.300403226,29.6505376 C0.300403226,31.0393145 1.43682796,32.1754032 2.82560484,32.1754032 L34.8084677,32.1754032 C36.1972446,32.1754032 37.3336694,31.0393145 37.3336694,29.6505376 L37.3336694,0.192204301 L0.300403226,0.192204301 Z M12.9254032,5.24227151 C12.9254032,4.31216398 13.6787634,3.55880376 14.608871,3.55880376 L23.0255376,3.55880376 C23.9553091,3.55880376 24.7090054,4.31216398 24.7090054,5.24227151 C24.7090054,6.17237903 23.9553091,6.92573925 23.0255376,6.92573925 L14.608871,6.92573925 C13.6787634,6.92573925 12.9254032,6.17237903 12.9254032,5.24227151 Z" id="path-5"></path>
        <path d="M0.300403226,0.192204301 L0.300403226,29.6505376 C0.300403226,31.0393145 1.43682796,32.1754032 2.82560484,32.1754032 L34.8084677,32.1754032 C36.1972446,32.1754032 37.3336694,31.0393145 37.3336694,29.6505376 L37.3336694,0.192204301 L0.300403226,0.192204301 Z M12.9254032,5.24227151 C12.9254032,4.31216398 13.6787634,3.55880376 14.608871,3.55880376 L23.0255376,3.55880376 C23.9553091,3.55880376 24.7090054,4.31216398 24.7090054,5.24227151 C24.7090054,6.17237903 23.9553091,6.92573925 23.0255376,6.92573925 L14.608871,6.92573925 C13.6787634,6.92573925 12.9254032,6.17237903 12.9254032,5.24227151 Z" id="path-7"></path>
    </defs>
    <g id="Symbols" stroke="none" stroke-width="1" fill="none" fill-rule="evenodd">
        <g id="ChromeWebStore_BadgeWBorder">
            <g id="Clipped" transform="translate(1.048387, 3.793011)">
                <mask id="mask-2" fill="white">
                    <use xlink:href="#path-1"></use>
                </mask>
                <g id="Shape"></g>
                <g id="Group" mask="url(#mask-2)">
                    <g transform="translate(0.000000, 0.109543)" fill="#EEEEEE" id="Rectangle">
                        <rect x="0.300739247" y="0.0826612903" width="37.0332661" height="31.9831989"></rect>
                    </g>
                    <g transform="translate(12.608837, 3.229267)" fill="#FFFFFF" id="Path">
                        <path d="M10.4166667,0.329637097 L2,0.329637097 C1.07022849,0.329637097 0.316532258,1.08299731 0.316532258,2.01310484 C0.316532258,2.94287634 1.07022849,3.69623656 2,3.69623656 L10.4166667,3.69623656 C11.3467742,3.69623656 12.1001344,2.94287634 12.1001344,2.01310484 C12.1001344,1.08299731 11.3467742,0.329637097 10.4166667,0.329637097"></path>
                    </g>
                </g>
            </g>
            <g id="Clipped" transform="translate(3.736559, 17.233871)">
                <mask id="mask-4" fill="white">
                    <use xlink:href="#path-3"></use>
                </mask>
                <g id="Path"></g>
                <g id="Group" mask="url(#mask-4)">
                    <g transform="translate(2.677184, 0.018145)" fill="#DB4437" fill-rule="nonzero" id="Shape">
                        <path d="M0,0.199932796 L0,19.8252688 L7.15625,19.8252688 L13.4519489,8.92170699 L29.4435484,8.92170699 L29.4435484,0.199932796 L0,0.199932796 Z M0,0.199932796 L0,19.8252688 L7.15625,19.8252688 L13.4519489,8.92170699 L29.4435484,8.92170699 L29.4435484,0.199932796 L0,0.199932796 Z"></path>
                    </g>
                    <g transform="translate(0.137500, 3.214079)" fill="#0F9D58" fill-rule="nonzero" id="Shape">
                        <path d="M0,28.9872312 L15.2214382,28.9872312 L22.2872984,21.921371 L22.2872984,16.6313844 L9.69590054,16.6293683 L0,0 L0,28.9872312 Z M0,28.9872312 L15.2214382,28.9872312 L22.2872984,21.921371 L22.2872984,16.6313844 L9.69590054,16.6293683 L0,0 L0,28.9872312 Z"></path>
                    </g>
                    <g transform="translate(15.120968, 8.680108)" fill="#FFCD40" fill-rule="nonzero" id="Shape">
                        <path d="M1.00806452,0.259744624 L7.30376344,11.1633065 L0.239919355,23.5215054 L16.999664,23.5215054 L16.999664,0.259744624 L1.00806452,0.259744624 Z M1.00806452,0.259744624 L7.30376344,11.1633065 L0.239919355,23.5215054 L16.999664,23.5215054 L16.999664,0.259744624 L1.00806452,0.259744624 Z"></path>
                    </g>
                    <g transform="translate(8.736559, 8.694556)" fill="#F1F1F1" id="Oval">
                        <ellipse cx="7.39247312" cy="7.51478495" rx="7.26982527" ry="7.27016129"></ellipse>
                    </g>
                    <g transform="translate(10.080645, 10.264785)" fill="#4285F4" id="Oval">
                        <circle cx="6.0483871" cy="5.94489247" r="5.81586022"></circle>
                    </g>
                </g>
            </g>
            <g id="Clipped" transform="translate(1.048387, 3.793011)">
                <mask id="mask-6" fill="white">
                    <use xlink:href="#path-5"></use>
                </mask>
                <g id="Shape"></g>
                <g id="Group" opacity="0.0500031" mask="url(#mask-6)">
                    <g transform="translate(0.000000, -0.336022)">
                        <g transform="translate(0.000000, 0.246976)">
                            <rect id="Rectangle" fill="#212121" x="0.300739247" y="0.28125" width="37.0329301" height="15.9915995"></rect>
                        </g>
                    </g>
                </g>
            </g>
            <g id="Clipped" transform="translate(1.048387, 3.793011)">
                <mask id="mask-8" fill="white">
                    <use xlink:href="#path-7"></use>
                </mask>
                <g id="Shape"></g>
                <g id="Group" mask="url(#mask-8)">
                    <g transform="translate(0.000000, -0.336022)">
                        <g opacity="0.0200043" transform="translate(0.000000, 15.793011)">
                            <g transform="translate(0.000000, 0.235215)" fill="#212121" id="Rectangle">
                                <rect x="0.300739247" y="0.28125" width="37.0329301" height="1"></rect>
                            </g>
                        </g>
                        <g opacity="0.0500031" transform="translate(0.000000, 16.129032)">
                            <g transform="translate(0.000000, 0.319892)" fill="#FFFFFF" id="Rectangle">
                                <rect x="0.300739247" y="0.0709005376" width="37.0329301" height="1"></rect>
                            </g>
                        </g>
                        <g opacity="0.0200043">
                            <g transform="translate(0.000000, 0.272177)" fill="#212121" fill-rule="nonzero" id="Shape">
                                <path d="M0.300739247,0.466733871 L37.3340054,0.466733871 L37.3340054,0.256384409 L0.300739247,0.256384409 L0.300739247,0.466733871 Z M23.0255376,6.98924731 L14.608871,6.98924731 C13.7147177,6.98924731 12.984543,6.29099462 12.9317876,5.41129032 C12.9277554,5.44724462 12.9254032,5.48084677 12.9254032,5.51646505 C12.9254032,6.44657258 13.6787634,7.1999328 14.608871,7.1999328 L23.0255376,7.1999328 C23.9556452,7.1999328 24.7090054,6.44657258 24.7090054,5.51646505 C24.7090054,5.48084677 24.7066532,5.44724462 24.702621,5.41129032 C24.6498656,6.29099462 23.9196909,6.98924731 23.0255376,6.98924731 Z"></path>
                            </g>
                        </g>
                        <g opacity="0.100006" transform="translate(0.000000, 3.360215)">
                            <g transform="translate(0.198589, 0.198555)" fill="#231F20" fill-rule="nonzero" id="Shape">
                                <path d="M34.6102151,28.7422715 L2.62701613,28.7422715 C1.23857527,28.7422715 0.102150538,27.6058468 0.102150538,26.2170699 L0.102150538,26.4277554 C0.102150538,27.8165323 1.23857527,28.952621 2.62701613,28.952621 L34.6102151,28.952621 C35.9989919,28.952621 37.1354167,27.8165323 37.1354167,26.4277554 L37.1354167,26.2170699 C37.1354167,27.6058468 35.9989919,28.7422715 34.6102151,28.7422715 M14.4102823,0.336021505 L22.8269489,0.336021505 C23.7211022,0.336021505 24.4516129,1.03461022 24.5040323,1.91431452 C24.5060484,1.87869624 24.5104167,1.84475806 24.5104167,1.80913978 C24.5104167,0.879032258 23.7570565,0.125672043 22.8269489,0.125672043 L14.4102823,0.125672043 C13.4805108,0.125672043 12.7268145,0.879032258 12.7268145,1.80913978 C12.7268145,1.84475806 12.7291667,1.87869624 12.7335349,1.91431452 C12.7859543,1.03461022 13.516129,0.336021505 14.4102823,0.336021505"></path>
                            </g>
                        </g>
                    </g>
                </g>
            </g>
        </g>
    </g>
</svg>