<svg width="16px" height="16px" viewBox="0 0 16 16" version="1.1" xmlns="http://www.w3.org/2000/svg">
    <g id="Icons" stroke="none" stroke-width="1" fill="none" fill-rule="evenodd">
        <g id="Icon/close-[small]" fill="#FFFFFF" fill-rule="nonzero">
            <path d="M8,8.70710678 L5.17157288,11.5355339 C4.97631073,11.7307961 4.65972824,11.7307961 4.46446609,11.5355339 C4.26920395,11.3402718 4.26920395,11.0236893 4.46446609,10.8284271 L7.29289322,8 L4.46446609,5.17157288 C4.26920395,4.97631073 4.26920395,4.65972824 4.46446609,4.46446609 C4.65972824,4.26920395 4.97631073,4.26920395 5.17157288,4.46446609 L8,7.29289322 L10.8284271,4.46446609 C11.0236893,4.26920395 11.3402718,4.26920395 11.5355339,4.46446609 C11.7307961,4.65972824 11.7307961,4.97631073 11.5355339,5.17157288 L8.70710678,8 L11.5355339,10.8284271 C11.7307961,11.0236893 11.7307961,11.3402718 11.5355339,11.5355339 C11.3402718,11.7307961 11.0236893,11.7307961 10.8284271,11.5355339 L8,8.70710678 Z" id="Combined-Shape"></path>
        </g>
    </g>
</svg>