<svg width="40" height="40" viewBox="0 0 40 40" fill="none" xmlns="http://www.w3.org/2000/svg">
<path fill-rule="evenodd" clip-rule="evenodd" d="M30 36C34.4183 36 38 32.4183 38 28C38 23.5817 34.4183 20 30 20C25.5817 20 22 23.5817 22 28C22 32.4183 25.5817 36 30 36ZM26.2929 26.2929L29.2929 23.2929C29.6834 22.9024 30.3166 22.9024 30.7071 23.2929L33.7071 26.2929C34.0976 26.6834 34.0976 27.3166 33.7071 27.7071C33.3166 28.0976 32.6834 28.0976 32.2929 27.7071L31 26.4142V32C31 32.5523 30.5523 33 30 33C29.4477 33 29 32.5523 29 32V26.4142L27.7071 27.7071C27.3166 28.0976 26.6834 28.0976 26.2929 27.7071C25.9024 27.3166 25.9024 26.6834 26.2929 26.2929Z" fill="#F5A523"/>
<path fill-rule="evenodd" clip-rule="evenodd" d="M32 18.4141V14H23C22.4477 14 22 13.5523 22 13V4H9C8.44771 4 8 4.44772 8 5V35C8 35.5523 8.44772 36 9 36H20.5143C21.141 36.7589 21.8676 37.4322 22.6738 38H9C7.34315 38 6 36.6569 6 35V5C6 3.34315 7.34315 2 9 2H22.7574C23.553 2 24.3161 2.31607 24.8787 2.87868L33.1213 11.1213C33.6839 11.6839 34 12.447 34 13.2426V19.1994C33.3664 18.8755 32.6973 18.6113 32 18.4141ZM24 4.82843L31.1716 12H24V4.82843Z" fill="#8F96A3"/>
<path fill-rule="evenodd" clip-rule="evenodd" d="M11 9C11 8.44772 11.4477 8 12 8H18C18.5523 8 19 8.44772 19 9C19 9.55228 18.5523 10 18 10H12C11.4477 10 11 9.55228 11 9ZM11 13C11 12.4477 11.4477 12 12 12H18C18.5523 12 19 12.4477 19 13C19 13.5523 18.5523 14 18 14H12C11.4477 14 11 13.5523 11 13ZM11 17C11 16.4477 11.4477 16 12 16H28C28.5523 16 29 16.4477 29 17C29 17.5523 28.5523 18 28 18H12C11.4477 18 11 17.5523 11 17ZM11 21C11 20.4477 11.4477 20 12 20H22.6738C21.8676 20.5678 21.141 21.2411 20.5143 22H12C11.4477 22 11 21.5523 11 21ZM19.1994 24H12C11.4477 24 11 24.4477 11 25C11 25.5523 11.4477 26 12 26H18.4141C18.6113 25.3027 18.8755 24.6336 19.1994 24ZM18.0448 28H12C11.4477 28 11 28.4477 11 29C11 29.5523 11.4477 30 12 30H18.0448C18.0152 29.6706 18 29.3371 18 29C18 28.6629 18.0152 28.3294 18.0448 28Z" fill="#EEF1F6"/>
<path d="M38 29C38 33.9706 33.9706 38 29 38C24.0294 38 20 33.9706 20 29C20 24.0294 24.0294 20 29 20C33.9706 20 38 24.0294 38 29Z" fill="#F5A523"/>
<path fill-rule="evenodd" clip-rule="evenodd" d="M28.6172 23.0759C28.4993 23.1247 28.3888 23.197 28.2929 23.2929L24.2929 27.2929C23.9024 27.6834 23.9024 28.3166 24.2929 28.7071C24.6834 29.0976 25.3166 29.0976 25.7071 28.7071L28 26.4142V34C28 34.5523 28.4477 35 29 35C29.5523 35 30 34.5523 30 34V26.4142L32.2929 28.7071C32.6834 29.0976 33.3166 29.0976 33.7071 28.7071C34.0976 28.3166 34.0976 27.6834 33.7071 27.2929L29.7075 23.2933L29.7071 23.2929M29.705 23.2908C29.5242 23.1111 29.2751 23 29 23C28.8644 23 28.7351 23.027 28.6172 23.0759" fill="white"/>
</svg>
