<svg width="20px" height="20px" viewBox="0 0 20 20" version="1.1" xmlns="http://www.w3.org/2000/svg">
    <g id="Symbols" stroke="none" stroke-width="1" fill="none" fill-rule="evenodd">
        <g id="Icons/Dictionary" fill="#3C3F49" fill-rule="nonzero">
            <path d="M10,6 L6,6 L6,17 L16,17 L16,6 L14,6 L14,11.4342585 L12,10.1009252 L10,11.4342585 L10,6 Z M11,6 L11,9.56574145 L12,8.89907479 L13,9.56574145 L13,6 L11,6 Z M5,5 L16,5 L16,3 L5,3 C4.44771525,3 4,3.44771525 4,4 C4,4.55228475 4.44771525,5 5,5 Z M5,6 C4.63571286,6 4.29417337,5.90260571 4,5.73243561 L4,16 C4,16.5522847 4.44771525,17 5,17 L5,6 Z M17,3 L16,3 L16,5 L17,5 L17,18 L5,18 C3.8954305,18 3,17.1045695 3,16 L3,4 C3,2.8954305 3.8954305,2 5,2 L17,2 L17,3 Z" id="Shape"></path>
        </g>
    </g>
</svg>