<svg width="20" height="20" viewBox="0 0 20 20" fill="none" xmlns="http://www.w3.org/2000/svg">
<path fill-rule="evenodd" clip-rule="evenodd" d="M16.9709 1.6447L18.3852 3.05891C18.7757 3.44944 18.7757 4.0826 18.3852 4.47313L8.48567 14.3726L5.19171 15.4706C4.92974 15.5579 4.64658 15.4164 4.55925 15.1544C4.52504 15.0517 4.52504 14.9408 4.55925 14.8382L5.65724 11.5442L15.5567 1.6447C15.9473 1.25418 16.5804 1.25418 16.9709 1.6447ZM16.2638 2.35181L14.8496 3.76602L16.2638 5.18023L17.6781 3.76602L16.2638 2.35181ZM14.1425 4.47313L7.77856 10.8371L9.19277 12.2513L15.5567 5.88734L14.1425 4.47313ZM6.53127 12.0844L7.07145 11.5442L8.48567 12.9584L7.94548 13.4986L5.82416 14.2057L6.53127 12.0844ZM8.5 2.99988H2C1.44772 2.99988 1 3.44759 1 3.99988V17.9999C1 18.5522 1.44772 18.9999 2 18.9999H16C16.5523 18.9999 17 18.5522 17 17.9999V11.4999C17 11.2237 16.7761 10.9999 16.5 10.9999C16.2239 10.9999 16 11.2237 16 11.4999V17.9999H2V3.99988H8.5C8.77614 3.99988 9 3.77602 9 3.49988C9 3.22374 8.77614 2.99988 8.5 2.99988Z" fill="white"/>
</svg>
