<svg width="20px" height="20px" viewBox="0 0 20 20" version="1.1" xmlns="http://www.w3.org/2000/svg">
    <g id="Symbols" stroke="none" stroke-width="1" fill="none" fill-rule="evenodd">
        <g id="Icon/adisabled-[red]">
            <circle id="Oval-5" fill="#45A8FC" cx="10" cy="10" r="10"></circle>
            <path d="M13.5355339,6.46446609 C15.4881554,8.41708755 15.4881554,11.5829124 13.5355339,13.5355339 C11.5829124,15.4881554 8.41708755,15.4881554 6.46446609,13.5355339 C4.51184464,11.5829124 4.51184464,8.41708755 6.46446609,6.46446609 L7.17157288,7.17157288 C5.60947571,8.73367004 5.60947571,11.26633 7.17157288,12.8284271 C8.73367004,14.3905243 11.26633,14.3905243 12.8284271,12.8284271 C14.3905243,11.26633 14.3905243,8.73367004 12.8284271,7.17157288 L13.5355339,6.46446609 Z M6.46446609,7.17157288 C6.26920395,6.97631073 6.26920395,6.65972824 6.46446609,6.46446609 C6.65972824,6.26920395 6.97631073,6.26920395 7.17157288,6.46446609 C7.36683502,6.65972824 7.36683502,6.97631073 7.17157288,7.17157288 C6.97631073,7.36683502 6.65972824,7.36683502 6.46446609,7.17157288 Z M12.8284271,7.17157288 C12.633165,6.97631073 12.633165,6.65972824 12.8284271,6.46446609 C13.0236893,6.26920395 13.3402718,6.26920395 13.5355339,6.46446609 C13.7307961,6.65972824 13.7307961,6.97631073 13.5355339,7.17157288 C13.3402718,7.36683502 13.0236893,7.36683502 12.8284271,7.17157288 Z M10,5 C10.2761424,5 10.5,5.22385763 10.5,5.5 L10.5,8.5 C10.5,8.77614237 10.2761424,9 10,9 C9.72385763,9 9.5,8.77614237 9.5,8.5 L9.5,5.5 C9.5,5.22385763 9.72385763,5 10,5 Z" id="Combined-Shape" fill="#FFFFFF" fill-rule="nonzero"></path>
        </g>
    </g>
</svg>