<svg width="819" height="300" viewBox="0 0 819 300" fill="none" xmlns="http://www.w3.org/2000/svg">
<path d="M20 0H140L220 80V280C220 291.046 211.046 300 200 300H20C8.954 300 0 291.046 0 280V20C0 8.954 8.954 0 20 0Z" fill="#4C89EF"/>
<mask id="mask0" mask-type="alpha" maskUnits="userSpaceOnUse" x="0" y="0" width="220" height="300">
<path d="M20 0H140L220 80V280C220 291.046 211.046 300 200 300H20C8.954 300 0 291.046 0 280V20C0 8.954 8.954 0 20 0Z" fill="white"/>
</mask>
<g mask="url(#mask0)">
<path d="M140 0L220 80V165L140 65.147V0Z" fill="url(#paint0_linear)"/>
</g>
<mask id="mask1" mask-type="alpha" maskUnits="userSpaceOnUse" x="0" y="0" width="220" height="300">
<path d="M20 0H140L220 80V280C220 291.046 211.046 300 200 300H20C8.954 300 0 291.046 0 280V20C0 8.954 8.954 0 20 0Z" fill="white"/>
</mask>
<g mask="url(#mask1)">
<path d="M140 0L220 80H160C148.954 80 140 71.046 140 60V0Z" fill="black"/>
<path d="M140 0L220 80H160C148.954 80 140 71.046 140 60V0Z" fill="#9CB7ED"/>
</g>
<mask id="mask2" mask-type="alpha" maskUnits="userSpaceOnUse" x="0" y="0" width="220" height="300">
<path d="M20 0H140L220 80V280C220 291.046 211.046 300 200 300H20C8.954 300 0 291.046 0 280V20C0 8.954 8.954 0 20 0Z" fill="white"/>
</mask>
<g mask="url(#mask2)">
<path d="M50 140H170V150H50V140ZM50 160H170V170H50V160ZM50 180H170V190H50V180ZM50 200H120V210H50V200Z" fill="white"/>
</g>
<path d="M562 52H591.032C603.088 52 612.861 61.7671 612.861 73.8153V158.459H669.617V189H604.13C592.074 189 582.301 179.233 582.301 167.185V82.5414H562V52ZM784 73.8153V96.5032H753.44V82.5414H729.428V189H698.867V82.5414H674.855V96.5032H644.295V73.8153C644.295 61.7671 654.068 52 666.124 52H762.171C774.227 52 784 61.7671 784 73.8153Z" fill="black"/>
<path d="M548.411 271.742L520 251.592C528.347 239.99 536.957 231.013 546.016 224.717C556.085 217.718 566.785 214 577.849 214C588.122 214 597.02 216.474 604.97 221.21C608.177 223.12 611.124 225.324 614.102 227.934C616.156 229.733 617.623 231.145 620.744 234.243C625.474 238.94 627.44 240.662 629.792 242.064C632.344 243.584 635.039 244.333 638.95 244.333C642.865 244.333 645.57 243.582 648.136 242.056C650.499 240.651 652.481 238.919 657.21 234.232L657.254 234.189C660.36 231.111 661.841 229.688 663.895 227.892C666.87 225.292 669.811 223.095 673.011 221.19C680.944 216.468 689.817 214 700.05 214C710.284 214 719.156 216.468 727.09 221.19C730.289 223.095 733.231 225.292 736.205 227.892C738.259 229.688 739.741 231.111 742.847 234.189L742.89 234.232C747.619 238.919 749.601 240.651 751.965 242.056C754.53 243.582 757.236 244.333 761.151 244.333C764.635 244.333 768.483 242.996 772.962 239.883C778.45 236.069 784.387 229.879 790.589 221.259L819 241.408C810.653 253.01 802.043 261.987 792.984 268.283C782.915 275.282 772.215 279 761.151 279C750.882 279 741.982 276.528 734.026 271.798C730.816 269.889 727.866 267.687 724.883 265.079C722.823 263.279 721.337 261.852 718.225 258.768L718.181 258.725C713.464 254.05 711.489 252.322 709.138 250.923C706.596 249.41 703.922 248.667 700.05 248.667C696.178 248.667 693.505 249.41 690.962 250.923C688.612 252.322 686.637 254.05 681.919 258.725L681.876 258.768C678.764 261.852 677.278 263.279 675.218 265.08C672.235 267.687 669.285 269.889 666.074 271.798C658.119 276.528 649.219 279 638.95 279C628.676 279 619.778 276.526 611.829 271.79C608.621 269.88 605.675 267.676 602.697 265.066C600.643 263.267 599.176 261.855 596.055 258.757C591.325 254.06 589.359 252.338 587.006 250.936C584.454 249.416 581.76 248.667 577.849 248.667C574.365 248.667 570.517 250.004 566.038 253.117C560.55 256.931 554.613 263.121 548.411 271.741V271.742Z" fill="#45A1FC"/>
<path d="M339 163.871V135.915H382.915V92H411.085V135.915H455V163.871H411.085V208H382.915V163.871H339Z" fill="#2F3237"/>
<defs>
<linearGradient id="paint0_linear" x1="189.403" y1="151.487" x2="145.523" y2="54.7785" gradientUnits="userSpaceOnUse">
<stop stop-color="#4C89EF"/>
<stop offset="1" stop-color="#3B6CC3"/>
</linearGradient>
</defs>
</svg>
