<svg width="140" height="140" viewBox="0 0 140 140" fill="none" xmlns="http://www.w3.org/2000/svg">
<path fill-rule="evenodd" clip-rule="evenodd" d="M39.375 40.1875H47.6875C51.1393 40.1875 53.9375 42.9857 53.9375 46.4375V70.6875H70.1875V79.4375H51.4375C47.9857 79.4375 45.1875 76.6393 45.1875 73.1875V48.9375H39.375V40.1875ZM102.938 46.4375V52.9375H94.1875V48.9375H87.3125V79.4375H78.5625V48.9375H71.6875V52.9375H62.9375V46.4375C62.9375 42.9857 65.7357 40.1875 69.1875 40.1875H96.6875C100.139 40.1875 102.938 42.9857 102.938 46.4375Z" fill="#1A73E8"/>
<path d="M35.3187 102.906L27.1813 97.0938C29.5719 93.7471 32.038 91.1576 34.6327 89.3413C37.5166 87.3226 40.5812 86.25 43.75 86.25C46.6924 86.25 49.2409 86.9636 51.5178 88.3297C52.4364 88.8809 53.2802 89.5166 54.1333 90.2694C54.7215 90.7884 55.1417 91.1956 56.0355 92.0895C57.3904 93.4443 57.9534 93.9411 58.6272 94.3453C59.3581 94.7839 60.1299 95 61.25 95C62.3713 95 63.1463 94.7832 63.881 94.3432C64.558 93.9378 65.1257 93.4381 66.4801 92.0861L66.4926 92.0737C67.3821 91.1859 67.8064 90.7755 68.3948 90.2574C69.2467 89.5072 70.0891 88.8734 71.0055 88.3241C73.2778 86.9619 75.8189 86.25 78.75 86.25C81.6811 86.25 84.2222 86.9619 86.4945 88.3241C87.4109 88.8734 88.2533 89.5072 89.1052 90.2574C89.6936 90.7755 90.1179 91.1859 91.0074 92.0737L91.0199 92.0861C92.3743 93.4381 92.942 93.9378 93.619 94.3432C94.3537 94.7832 95.1287 95 96.25 95C97.2478 95 98.3499 94.6143 99.6327 93.7163C101.205 92.616 102.905 90.8304 104.681 88.3438L112.819 94.1562C110.428 97.5029 107.962 100.092 105.367 101.909C102.483 103.927 99.4188 105 96.25 105C93.3087 105 90.7597 104.287 88.4811 102.922C87.5617 102.372 86.7166 101.736 85.8623 100.984C85.2723 100.465 84.8468 100.054 83.9554 99.1639L83.943 99.1514C82.5918 97.8028 82.026 97.3045 81.3529 96.901C80.6248 96.4645 79.859 96.25 78.75 96.25C77.641 96.25 76.8752 96.4645 76.1472 96.901C75.474 97.3045 74.9082 97.8028 73.557 99.1514L73.5446 99.1639C72.6532 100.054 72.2277 100.465 71.6377 100.984C70.7834 101.736 69.9383 102.372 69.0189 102.922C66.7403 104.287 64.1913 105 61.25 105C58.3076 105 55.7591 104.286 53.4822 102.92C52.5636 102.369 51.7198 101.733 50.8667 100.981C50.2785 100.462 49.8583 100.054 48.9645 99.1605C47.6096 97.8057 47.0466 97.3089 46.3728 96.9047C45.6419 96.4661 44.8701 96.25 43.75 96.25C42.7522 96.25 41.6501 96.6357 40.3673 97.5337C38.7953 98.634 37.0948 100.42 35.3187 102.906Z" fill="#1A73E8"/>
<mask id="mask0" mask-type="alpha" maskUnits="userSpaceOnUse" x="27" y="86" width="86" height="19">
<path d="M35.3187 102.906L27.1813 97.0938C29.5719 93.7471 32.038 91.1576 34.6327 89.3413C37.5166 87.3226 40.5812 86.25 43.75 86.25C46.6924 86.25 49.2409 86.9636 51.5178 88.3297C52.4364 88.8809 53.2802 89.5166 54.1333 90.2694C54.7215 90.7884 55.1417 91.1956 56.0355 92.0895C57.3904 93.4443 57.9534 93.9411 58.6272 94.3453C59.3581 94.7839 60.1299 95 61.25 95C62.3713 95 63.1463 94.7832 63.881 94.3432C64.558 93.9378 65.1257 93.4381 66.4801 92.0861L66.4926 92.0737C67.3821 91.1859 67.8064 90.7755 68.3948 90.2574C69.2467 89.5072 70.0891 88.8734 71.0055 88.3241C73.2778 86.9619 75.8189 86.25 78.75 86.25C81.6811 86.25 84.2222 86.9619 86.4945 88.3241C87.4109 88.8734 88.2533 89.5072 89.1052 90.2574C89.6936 90.7755 90.1179 91.1859 91.0074 92.0737L91.0199 92.0861C92.3743 93.4381 92.942 93.9378 93.619 94.3432C94.3537 94.7832 95.1287 95 96.25 95C97.2478 95 98.3499 94.6143 99.6327 93.7163C101.205 92.616 102.905 90.8304 104.681 88.3438L112.819 94.1562C110.428 97.5029 107.962 100.092 105.367 101.909C102.483 103.927 99.4188 105 96.25 105C93.3087 105 90.7597 104.287 88.4811 102.922C87.5617 102.372 86.7166 101.736 85.8623 100.984C85.2723 100.465 84.8468 100.054 83.9554 99.1639L83.943 99.1514C82.5918 97.8028 82.026 97.3045 81.3529 96.901C80.6248 96.4645 79.859 96.25 78.75 96.25C77.641 96.25 76.8752 96.4645 76.1472 96.901C75.474 97.3045 74.9082 97.8028 73.557 99.1514L73.5446 99.1639C72.6532 100.054 72.2277 100.465 71.6377 100.984C70.7834 101.736 69.9383 102.372 69.0189 102.922C66.7403 104.287 64.1913 105 61.25 105C58.3076 105 55.7591 104.286 53.4822 102.92C52.5636 102.369 51.7198 101.733 50.8667 100.981C50.2785 100.462 49.8583 100.054 48.9645 99.1605C47.6096 97.8057 47.0466 97.3089 46.3728 96.9047C45.6419 96.4661 44.8701 96.25 43.75 96.25C42.7522 96.25 41.6501 96.6357 40.3673 97.5337C38.7953 98.634 37.0948 100.42 35.3187 102.906Z" fill="#1A73E8"/>
</mask>
<g mask="url(#mask0)">
</g>
</svg>