<svg width="20px" height="20px" viewBox="0 0 20 20" version="1.1" xmlns="http://www.w3.org/2000/svg">
    <g id="Symbols" stroke="none" stroke-width="1" fill="none" fill-rule="evenodd">
        <g id="Icons/Settings-Copy" fill="#3C3F49">
            <path d="M4.375,4.96339286 L5.90178571,4.96339286 C6.53578606,4.96339286 7.0497449,5.48306234 7.0497449,6.12410714 L7.0497449,10.6276786 L10.0344388,10.6276786 L10.0344388,12.2526786 L6.59056122,12.2526786 C5.95656087,12.2526786 5.44260204,11.7330091 5.44260204,11.0919643 L5.44260204,6.58839286 L4.375,6.58839286 L4.375,4.96339286 Z M16.0497449,6.12410714 L16.0497449,7.33125 L14.442602,7.33125 L14.442602,6.58839286 L13.1798469,6.58839286 L13.1798469,12.2526786 L11.5727041,12.2526786 L11.5727041,6.58839286 L10.309949,6.58839286 L10.309949,7.33125 L8.70280612,7.33125 L8.70280612,6.12410714 C8.70280612,5.48306234 9.21676496,4.96339286 9.85076531,4.96339286 L14.9017857,4.96339286 C15.5357861,4.96339286 16.0497449,5.48306234 16.0497449,6.12410714 Z M3.62995931,16.6111498 L2.13534681,15.5317074 C2.57442447,14.9101686 3.02738736,14.429273 3.50396315,14.0919632 C4.03366076,13.717055 4.59654331,13.5178571 5.17857143,13.5178571 C5.71900407,13.5178571 6.18710658,13.6503822 6.6053086,13.9040914 C6.77402985,14.0064489 6.9290208,14.1245204 7.08570881,14.2643107 C7.19374616,14.360697 7.27092634,14.4363336 7.43509806,14.6023294 C7.68395191,14.8539483 7.78735309,14.9461984 7.91111217,15.0212789 C8.04536551,15.1027259 8.18711632,15.1428571 8.39285714,15.1428571 C8.59881805,15.1428571 8.74115552,15.1025992 8.87610622,15.020883 C9.00045281,14.9455878 9.10471231,14.8527877 9.3534961,14.6017123 L9.35578225,14.5994051 C9.51915927,14.4345231 9.59710291,14.3583007 9.70515891,14.2620879 C9.86163735,14.1227599 10.016369,14.0050652 10.1846909,13.9030402 C10.6020443,13.6500699 11.0687813,13.5178571 11.6071429,13.5178571 C12.1455044,13.5178571 12.6122414,13.6500699 13.0295948,13.9030402 C13.1979167,14.0050652 13.3526484,14.1227599 13.5091268,14.2620879 C13.6171828,14.3583007 13.6951264,14.4345231 13.8585035,14.5994051 L13.8607896,14.6017123 C14.1095734,14.8527877 14.2138329,14.9455878 14.3381795,15.020883 C14.4731302,15.1025992 14.6154677,15.1428571 14.8214286,15.1428571 C15.0047066,15.1428571 15.2071301,15.0712217 15.4427387,14.9044632 C15.731469,14.7001063 16.0438122,14.3685019 16.3700407,13.9067074 L17.8646532,14.9861498 C17.4255755,15.6076886 16.9726126,16.0885842 16.4960368,16.4258939 C15.9663392,16.8008021 15.4034567,17 14.8214286,17 C14.281189,17 13.8130052,16.8675816 13.3944938,16.6141617 C13.2256149,16.511901 13.0703984,16.3939163 12.9134896,16.2542538 C12.8051161,16.1577919 12.7269707,16.0813798 12.5632439,15.9161448 L12.5609577,15.9138377 C12.3127763,15.6633701 12.2088603,15.5708435 12.0852177,15.4959001 C11.951489,15.4148431 11.8108349,15.375 11.6071429,15.375 C11.4034508,15.375 11.2627967,15.4148431 11.129068,15.4959001 C11.0054254,15.5708435 10.9015094,15.6633701 10.653328,15.9138377 L10.6510418,15.9161448 C10.487315,16.0813798 10.4091696,16.1577919 10.3007961,16.2542538 C10.1438873,16.3939163 9.98867077,16.511901 9.81979193,16.6141617 C9.40128048,16.8675816 8.93309672,17 8.39285714,17 C7.8524245,17 7.38432199,16.867475 6.96611997,16.6137658 C6.79739872,16.5114082 6.64240777,16.3933367 6.48571977,16.2535464 C6.37768241,16.1571602 6.30050223,16.0815236 6.13633051,15.9155277 C5.88747666,15.6639088 5.78407548,15.5716588 5.6603164,15.4965783 C5.52606306,15.4151312 5.38431225,15.375 5.17857143,15.375 C4.99529343,15.375 4.79286986,15.4466355 4.55726134,15.6133939 C4.26853101,15.8177508 3.95618777,16.1493552 3.62995931,16.6111498 Z" id="Combined-Shape"></path>
        </g>
    </g>
</svg>