<?xml version="1.0" encoding="UTF-8"?>
<svg width="60px" height="60px" viewBox="0 0 60 60" version="1.1" xmlns="http://www.w3.org/2000/svg" xmlns:xlink="http://www.w3.org/1999/xlink">
    <!-- Generator: Sketch 52.5 (67469) - http://www.bohemiancoding.com/sketch -->
    <title>illustration</title>
    <desc>Created with Sketch.</desc>
    <g id="Design" stroke="none" stroke-width="1" fill="none" fill-rule="evenodd">
        <g id="04-06" transform="translate(-938.000000, -486.000000)" fill="#45A8FC" fill-rule="nonzero">
            <g id="Icon/disabled" transform="translate(938.000000, 486.000000)">
                <path d="M40.6066017,19.3933983 C46.4644661,25.2512627 46.4644661,34.7487373 40.6066017,40.6066017 C34.7487373,46.4644661 25.2512627,46.4644661 19.3933983,40.6066017 C13.5355339,34.7487373 13.5355339,25.2512627 19.3933983,19.3933983 L21.5147186,21.5147186 C16.8284271,26.2010101 16.8284271,33.7989899 21.5147186,38.4852814 C26.2010101,43.1715729 33.7989899,43.1715729 38.4852814,38.4852814 C43.1715729,33.7989899 43.1715729,26.2010101 38.4852814,21.5147186 L40.6066017,19.3933983 Z M19.3933983,21.5147186 C18.8076118,20.9289322 18.8076118,19.9791847 19.3933983,19.3933983 C19.9791847,18.8076118 20.9289322,18.8076118 21.5147186,19.3933983 C22.1005051,19.9791847 22.1005051,20.9289322 21.5147186,21.5147186 C20.9289322,22.1005051 19.9791847,22.1005051 19.3933983,21.5147186 Z M38.4852814,21.5147186 C37.8994949,20.9289322 37.8994949,19.9791847 38.4852814,19.3933983 C39.0710678,18.8076118 40.0208153,18.8076118 40.6066017,19.3933983 C41.1923882,19.9791847 41.1923882,20.9289322 40.6066017,21.5147186 C40.0208153,22.1005051 39.0710678,22.1005051 38.4852814,21.5147186 Z M30,15 C30.8284271,15 31.5,15.6715729 31.5,16.5 L31.5,25.5 C31.5,26.3284271 30.8284271,27 30,27 C29.1715729,27 28.5,26.3284271 28.5,25.5 L28.5,16.5 C28.5,15.6715729 29.1715729,15 30,15 Z M30,57 C44.9116882,57 57,44.9116882 57,30 C57,15.0883118 44.9116882,3 30,3 C15.0883118,3 3,15.0883118 3,30 C3,44.9116882 15.0883118,57 30,57 Z M30,60 C13.4314575,60 0,46.5685425 0,30 C0,13.4314575 13.4314575,0 30,0 C46.5685425,0 60,13.4314575 60,30 C60,46.5685425 46.5685425,60 30,60 Z" id="Shape"></path>
            </g>
        </g>
    </g>
</svg>