<svg width="102px" height="77px" viewBox="0 0 102 77" version="1.1" xmlns="http://www.w3.org/2000/svg">
    <g id="Page-1" stroke="none" stroke-width="1" fill="none" fill-rule="evenodd">
        <g id="disabled">
            <path d="M41,38 C39.3452751,38 38.5843574,37.4293117 37.6679497,36.0547002 C37.0843574,35.1793117 36.8452751,35 36,35 C35.1547249,35 34.9156426,35.1793117 34.3320503,36.0547002 C33.4156426,37.4293117 32.6547249,38 31,38 C29.3452751,38 28.5843574,37.4293117 27.6679497,36.0547002 C27.0843574,35.1793117 26.8452751,35 26,35 C25.1547249,35 24.9156426,35.1793117 24.3320503,36.0547002 C23.4156426,37.4293117 22.6547249,38 21,38 C19.3452751,38 18.5843574,37.4293117 17.6679497,36.0547002 C17.0843574,35.1793117 16.8452751,35 16,35 C15.1547249,35 14.9156426,35.1793117 14.3320503,36.0547002 C13.4156426,37.4293117 12.6547249,38 11,38 C9.3452751,38 8.5843574,37.4293117 7.6679497,36.0547002 C7.0843574,35.1793117 6.8452751,35 6,35 C5.1547249,35 4.9156426,35.1793117 4.3320503,36.0547002 C3.4156426,37.4293117 2.6547249,38 1,38 C0.4477153,38 0,37.5522847 0,37 C0,36.4477153 0.4477153,36 1,36 C1.8452751,36 2.0843574,35.8206883 2.6679497,34.9452998 C3.5843574,33.5706883 4.3452751,33 6,33 C7.6547249,33 8.4156426,33.5706883 9.3320503,34.9452998 C9.9156426,35.8206883 10.1547249,36 11,36 C11.8452751,36 12.0843574,35.8206883 12.6679497,34.9452998 C13.5843574,33.5706883 14.3452751,33 16,33 C17.6547249,33 18.4156426,33.5706883 19.3320503,34.9452998 C19.9156426,35.8206883 20.1547249,36 21,36 C21.8452751,36 22.0843574,35.8206883 22.6679497,34.9452998 C23.5843574,33.5706883 24.3452751,33 26,33 C27.6547249,33 28.4156426,33.5706883 29.3320503,34.9452998 C29.9156426,35.8206883 30.1547249,36 31,36 C31.8452751,36 32.0843574,35.8206883 32.6679497,34.9452998 C33.5843574,33.5706883 34.3452751,33 36,33 C37.6547249,33 38.4156426,33.5706883 39.3320503,34.9452998 C39.9156426,35.8206883 40.1547249,36 41,36 C41.5522847,36 42,36.4477153 42,37 C42,37.5522847 41.5522847,38 41,38 Z" id="Path" fill="#3C3F49"></path>
            <path d="M101,17 C99.345275,17 98.584357,16.4293117 97.66795,15.0547002 C97.084357,14.1793117 96.845275,14 96,14 C95.154725,14 94.915643,14.1793117 94.33205,15.0547002 C93.415643,16.4293117 92.654725,17 91,17 C89.345275,17 88.584357,16.4293117 87.66795,15.0547002 C87.084357,14.1793117 86.845275,14 86,14 C85.154725,14 84.915643,14.1793117 84.33205,15.0547002 C83.415643,16.4293117 82.654725,17 81,17 C79.345275,17 78.584357,16.4293117 77.66795,15.0547002 C77.084357,14.1793117 76.845275,14 76,14 C75.154725,14 74.915643,14.1793117 74.33205,15.0547002 C73.415643,16.4293117 72.654725,17 71,17 C69.345275,17 68.584357,16.4293117 67.66795,15.0547002 C67.084357,14.1793117 66.845275,14 66,14 C65.154725,14 64.915643,14.1793117 64.33205,15.0547002 C63.415643,16.4293117 62.654725,17 61,17 C60.447715,17 60,16.5522847 60,16 C60,15.4477153 60.447715,15 61,15 C61.845275,15 62.084357,14.8206883 62.66795,13.9452998 C63.584357,12.5706883 64.345275,12 66,12 C67.654725,12 68.415643,12.5706883 69.33205,13.9452998 C69.915643,14.8206883 70.154725,15 71,15 C71.845275,15 72.084357,14.8206883 72.66795,13.9452998 C73.584357,12.5706883 74.345275,12 76,12 C77.654725,12 78.415643,12.5706883 79.33205,13.9452998 C79.915643,14.8206883 80.154725,15 81,15 C81.845275,15 82.084357,14.8206883 82.66795,13.9452998 C83.584357,12.5706883 84.345275,12 86,12 C87.654725,12 88.415643,12.5706883 89.33205,13.9452998 C89.915643,14.8206883 90.154725,15 91,15 C91.845275,15 92.084357,14.8206883 92.66795,13.9452998 C93.584357,12.5706883 94.345275,12 96,12 C97.654725,12 98.415643,12.5706883 99.33205,13.9452998 C99.915643,14.8206883 100.154725,15 101,15 C101.552285,15 102,15.4477153 102,16 C102,16.5522847 101.552285,17 101,17 Z" id="Path" fill="#3C3F49"></path>
            <path d="M51,63 C49.3452751,63 48.5843574,62.4293117 47.6679497,61.0547002 C47.0843574,60.1793117 46.8452751,60 46,60 C45.1547249,60 44.9156426,60.1793117 44.3320503,61.0547002 C43.4156426,62.4293117 42.6547249,63 41,63 C39.3452751,63 38.5843574,62.4293117 37.6679497,61.0547002 C37.0843574,60.1793117 36.8452751,60 36,60 C35.1547249,60 34.9156426,60.1793117 34.3320503,61.0547002 C33.4156426,62.4293117 32.6547249,63 31,63 C29.3452751,63 28.5843574,62.4293117 27.6679497,61.0547002 C27.0843574,60.1793117 26.8452751,60 26,60 C25.1547249,60 24.9156426,60.1793117 24.3320503,61.0547002 C23.4156426,62.4293117 22.6547249,63 21,63 C19.3452751,63 18.5843574,62.4293117 17.6679497,61.0547002 C17.0843574,60.1793117 16.8452751,60 16,60 C15.1547249,60 14.9156426,60.1793117 14.3320503,61.0547002 C13.4156426,62.4293117 12.6547249,63 11,63 C10.4477153,63 10,62.5522847 10,62 C10,61.4477153 10.4477153,61 11,61 C11.8452751,61 12.0843574,60.8206883 12.6679497,59.9452998 C13.5843574,58.5706883 14.3452751,58 16,58 C17.6547249,58 18.4156426,58.5706883 19.3320503,59.9452998 C19.9156426,60.8206883 20.1547249,61 21,61 C21.8452751,61 22.0843574,60.8206883 22.6679497,59.9452998 C23.5843574,58.5706883 24.3452751,58 26,58 C27.6547249,58 28.4156426,58.5706883 29.3320503,59.9452998 C29.9156426,60.8206883 30.1547249,61 31,61 C31.8452751,61 32.0843574,60.8206883 32.6679497,59.9452998 C33.5843574,58.5706883 34.3452751,58 36,58 C37.6547249,58 38.4156426,58.5706883 39.3320503,59.9452998 C39.9156426,60.8206883 40.1547249,61 41,61 C41.8452751,61 42.0843574,60.8206883 42.6679497,59.9452998 C43.5843574,58.5706883 44.3452751,58 46,58 C47.6547249,58 48.4156426,58.5706883 49.3320503,59.9452998 C49.9156426,60.8206883 50.1547249,61 51,61 C51.5522847,61 52,61.4477153 52,62 C52,62.5522847 51.5522847,63 51,63 Z" id="Path" fill="#E8EFF2"></path>
            <path d="M32,0 L80,0 C83.313708,0 86,2.6862915 86,6 L86,70 C86,73.3137085 83.313708,76 80,76 L32,76 C28.6862915,76 26,73.3137085 26,70 L26,6 C26,2.6862915 28.6862915,0 32,0 Z" id="Path" fill="#FFFFFF"></path>
            <path d="M67.749881,72 C68.025176,72.7049286 68.371092,73.3744945 68.778931,74 L32,74 C29.790861,74 28,72.209139 28,70 L28,6 C28,3.790861 29.790861,2 32,2 L80,2 C82.209139,2 84,3.790861 84,6 L84,58.7789307 C83.374494,58.3710918 82.704929,58.025176 82,57.7498806 L82,6 C82,4.8954305 81.104569,4 80,4 L32,4 C30.8954305,4 30,4.8954305 30,6 L30,70 C30,71.1045695 30.8954305,72 32,72 L67.749881,72 Z" id="Combined-Shape" fill="#DBDDE5"></path>
            <path d="M37,10 L75,10 C75.552285,10 76,10.4477153 76,11 C76,11.5522847 75.552285,12 75,12 L37,12 C36.4477153,12 36,11.5522847 36,11 C36,10.4477153 36.4477153,10 37,10 Z M37,16 L75,16 C75.552285,16 76,16.4477153 76,17 C76,17.5522847 75.552285,18 75,18 L37,18 C36.4477153,18 36,17.5522847 36,17 C36,16.4477153 36.4477153,16 37,16 Z M37,38 L75,38 C75.552285,38 76,38.4477153 76,39 C76,39.5522847 75.552285,40 75,40 L37,40 C36.4477153,40 36,39.5522847 36,39 C36,38.4477153 36.4477153,38 37,38 Z M37,44 L75,44 C75.552285,44 76,44.4477153 76,45 C76,45.5522847 75.552285,46 75,46 L37,46 C36.4477153,46 36,45.5522847 36,45 C36,44.4477153 36.4477153,44 37,44 Z M37,50 L75,50 C75.552285,50 76,50.4477153 76,51 C76,51.5522847 75.552285,52 75,52 L37,52 C36.4477153,52 36,51.5522847 36,51 C36,50.4477153 36.4477153,50 37,50 Z M37,22 L75,22 C75.552285,22 76,22.4477153 76,23 C76,23.5522847 75.552285,24 75,24 L37,24 C36.4477153,24 36,23.5522847 36,23 C36,22.4477153 36.4477153,22 37,22 Z M37,28 L56,28 C56.552285,28 57,28.4477153 57,29 C57,29.5522847 56.552285,30 56,30 L37,30 C36.4477153,30 36,29.5522847 36,29 C36,28.4477153 36.4477153,28 37,28 Z M37,56 L56,56 C56.552285,56 57,56.4477153 57,57 C57,57.5522847 56.552285,58 56,58 L37,58 C36.4477153,58 36,57.5522847 36,57 C36,56.4477153 36.4477153,56 37,56 Z" id="Combined-Shape" fill="#677075" fill-rule="nonzero"></path>
            <path d="M83.606385,63.8078289 L73.807829,73.6063847 C74.976409,74.4815965 76.427665,75 78,75 C81.865993,75 85,71.8659932 85,68 C85,66.4276649 84.481596,64.9764094 83.606385,63.8078289 Z M82.192171,62.3936153 C81.023591,61.5184035 79.572335,61 78,61 C74.134007,61 71,64.1340068 71,68 C71,69.5723351 71.518404,71.0235906 72.393615,72.1921711 L82.192171,62.3936153 Z M78,77 C73.029437,77 69,72.9705627 69,68 C69,63.0294373 73.029437,59 78,59 C82.970563,59 87,63.0294373 87,68 C87,72.9705627 82.970563,77 78,77 Z" id="Shape" fill="#677075" fill-rule="nonzero"></path>
        </g>
    </g>
</svg>