<svg height="40" viewBox="0 0 40 40" width="40" xmlns="http://www.w3.org/2000/svg"><g fill="none" fill-rule="evenodd"><path d="m19.692852 18c-.7158482.5953219-1.3667576 1.2660525-1.9405364 2h-13.7523156c-.55228475 0-1-.4477153-1-1s.44771525-1 1-1zm-4.0658532 6c-.208696.6460265-.3682017 1.3141648-.4741024 2h-11.1528964c-.55228475 0-1-.4477153-1-1s.44771525-1 1-1zm-.4741024 6c.1059007.6858352.2654064 1.3539735.4741024 2h-11.6269988c-.55228475 0-1-.4477153-1-1s.44771525-1 1-1zm-11.1528964-24h32c.5522847 0 1 .44771525 1 1s-.4477153 1-1 1h-32c-.55228475 0-1-.44771525-1-1s.44771525-1 1-1zm0 6h32c.5522847 0 1 .4477153 1 1s-.4477153 1-1 1h-32c-.55228475 0-1-.4477153-1-1s.44771525-1 1-1z" fill="#e8eff2"/><path d="m28 36c4.418278 0 8-3.581722 8-8s-3.581722-8-8-8-8 3.581722-8 8 3.581722 8 8 8zm0 2c-5.5228475 0-10-4.4771525-10-10s4.4771525-10 10-10 10 4.4771525 10 10-4.4771525 10-10 10zm1.8369398-14.8585786-.8369398 5.8585786c0 .5522847-.4477153 1-1 1s-1-.4477153-1-1l-.8369398-5.8585786c-.0781049-.5467341.3017941-1.053266.8485281-1.1313709.0468433-.0066919.0941025-.0100505.1414214-.0100505h1.6939806c.5522848 0 1 .4477153 1 1 0 .0473189-.0033586.0945781-.0100505.1414214zm-1.8369398 11.3585786c-.8284271 0-1.5-.6715729-1.5-1.5s.6715729-1.5 1.5-1.5 1.5.6715729 1.5 1.5-.6715729 1.5-1.5 1.5z" fill="#f91a47" fill-rule="nonzero"/></g></svg>