<?xml version="1.0" encoding="UTF-8"?>
<svg width="40px" height="40px" viewBox="0 0 40 40" version="1.1" xmlns="http://www.w3.org/2000/svg" xmlns:xlink="http://www.w3.org/1999/xlink">
    <!-- Generator: Sketch 52.6 (67491) - http://www.bohemiancoding.com/sketch -->
    <title>sharingdone</title>
    <desc>Created with Sketch.</desc>
    <g id="Symbols" stroke="none" stroke-width="1" fill="none" fill-rule="evenodd">
        <g id="ChromeWebStore_BadgeWBorder-Copy-2">
            <path d="M19.692852,18 C18.9770038,18.5953219 18.3260944,19.2660525 17.7523156,20 L4,20 C3.44771525,20 3,19.5522847 3,19 C3,18.4477153 3.44771525,18 4,18 L19.692852,18 Z M36.4130466,18.089021 C36.5976574,18.1728586 36.7522849,18.3111635 36.8564108,18.4834175 C36.7116622,18.3486502 36.5638351,18.2171456 36.4130466,18.089021 Z M15.6269988,24 C15.4183028,24.6460265 15.2587971,25.3141648 15.1528964,26 L4,26 C3.44771525,26 3,25.5522847 3,25 C3,24.4477153 3.44771525,24 4,24 L15.6269988,24 Z M15.1528964,30 C15.2587971,30.6858352 15.4183028,31.3539735 15.6269988,32 L4,32 C3.44771525,32 3,31.5522847 3,31 C3,30.4477153 3.44771525,30 4,30 L15.1528964,30 Z M4,6 L36,6 C36.5522847,6 37,6.44771525 37,7 C37,7.55228475 36.5522847,8 36,8 L4,8 C3.44771525,8 3,7.55228475 3,7 C3,6.44771525 3.44771525,6 4,6 Z M4,12 L36,12 C36.5522847,12 37,12.4477153 37,13 C37,13.5522847 36.5522847,14 36,14 L4,14 C3.44771525,14 3,13.5522847 3,13 C3,12.4477153 3.44771525,12 4,12 Z" id="Shape" fill="#E8EFF2"></path>
            <path d="M28,36 C32.418278,36 36,32.418278 36,28 C36,23.581722 32.418278,20 28,20 C23.581722,20 20,23.581722 20,28 C20,32.418278 23.581722,36 28,36 Z M28,38 C22.4771525,38 18,33.5228475 18,28 C18,22.4771525 22.4771525,18 28,18 C33.5228475,18 38,22.4771525 38,28 C38,33.5228475 33.5228475,38 28,38 Z" id="Oval" fill="#20E197" fill-rule="nonzero"></path>
            <path d="M31.2600599,24.3273272 C31.6315669,23.9186696 32.2640152,23.888553 32.6726728,24.2600599 C33.0813304,24.6315669 33.111447,25.2640152 32.7399401,25.6726728 L27.0956372,31.8814059 L23.3598156,28.7682213 C22.9355387,28.4146572 22.8782146,27.7840925 23.2317787,27.3598156 C23.5853428,26.9355387 24.2159075,26.8782146 24.6401844,27.2317787 L26.9043628,29.1185941 L31.2600599,24.3273272 Z" id="Path-8" fill="#20E197" fill-rule="nonzero"></path>
        </g>
    </g>
</svg>