<?xml version="1.0" encoding="UTF-8"?>
<svg width="20px" height="20px" viewBox="0 0 20 20" version="1.1" xmlns="http://www.w3.org/2000/svg" xmlns:xlink="http://www.w3.org/1999/xlink">
<!-- Generator: Sketch 52.6 (67491) - http://www.bohemiancoding.com/sketch -->
<title>Icons/thumpsup</title>
<desc>Created with Sketch.</desc>
<g id="Logo" stroke="none" stroke-width="1" fill="none" fill-rule="evenodd">
    <g id="Icon/blocked-Copy-2" fill="#F91A47">
        <path d="M2,9 L2,16 L4.39473341,16 C5.06940234,16 5.68340174,16.3895871 5.97075922,17 L5.97075922,17 C6.2581167,17.6104129 6.8721161,18 7.54678503,18 L12,18 C14.6517862,18 16,17.3729161 16,15 L15.9994755,13.9989505 C15.9994755,13.4466658 16.4471908,12.9989505 16.9994755,12.9989505 C16.9996504,12.9989505 16.9998253,12.9989506 17.0000001,12.9989507 L17.7899399,12.9998895 C17.9132968,12.6750814 18,12.0840084 18,11.2510955 C18,10.2708493 17.8805955,9.56928794 17.6902781,9.16475914 C17.6516365,9.0826246 17.6245552,9.03211532 17.6010064,9 L10,9 L10,3 C10,2.55805556 9.54013609,2.20857757 8.00001134,2.06358737 L8.0000066,3.29203927 C8.00000142,4.63333993 7.73016026,5.96093249 7.20654262,7.19580576 L6.44151844,9 L2,9 Z M12,20 L5.72075922,20 C5.29032881,20 4.90818997,19.7245699 4.77207592,19.3162278 L4.57958969,18.988079 C4.2205572,18.3760038 3.56408216,18 2.85447636,18 L0,18 L0,7 L5,7 L5,7 C5.65762893,5.68474214 6.00000296,4.23443501 6.00000864,2.76393202 L6.00001544,1.00332305 C6.00001544,0.45104683 6.44772378,0.00333849292 7,0.00333849292 C7.01020977,0.00333849292 7.02041893,0.00349485432 7.03062391,0.00380752211 C10.3435413,0.105311184 12,1.10404201 12,3 L12,7 L14,7 L18,7 C19.3333333,7.3340945 20,8.75112632 20,11.2510955 C20,13.7496661 19.334079,14.9993009 18.002237,15 C17.9947564,19.9999384 13.2493099,20 12,20 Z" id="Path-4" transform="translate(10.000000, 10.001669) rotate(-180.000000) translate(-10.000000, -10.001669) "></path>
    </g>
</g>
</svg>