<?xml version="1.0" encoding="UTF-8"?>
<svg width="16px" height="16px" viewBox="0 0 16 16" version="1.1" xmlns="http://www.w3.org/2000/svg" xmlns:xlink="http://www.w3.org/1999/xlink">
    <!-- Generator: Sketch 52.2 (67145) - http://www.bohemiancoding.com/sketch -->
    <title>Slice</title>
    <desc>Created with Sketch.</desc>
    <g id="Page-1" stroke="none" stroke-width="1" fill="none" fill-rule="evenodd">
        <g id="5" transform="translate(4.000000, 4.000000)" fill="#F91A47">
            <path d="M1.55,6.62 C1.82066802,6.8626679 2.11233177,7.0703325 2.425,7.243 C2.73766823,7.4156675 3.08533142,7.502 3.468,7.502 C3.92533562,7.502 4.289332,7.3853345 4.56,7.152 C4.830668,6.9186655 4.966,6.5733356 4.966,6.116 C4.966,5.6679978 4.837668,5.3273345 4.581,5.094 C4.324332,4.8606655 3.9860021,4.744 3.566,4.744 C3.43533268,4.744 3.31866718,4.7509999 3.216,4.765 C3.11333282,4.7790001 3.01300049,4.8046665 2.915,4.842 C2.81699951,4.8793335 2.71433387,4.9259997 2.607,4.982 C2.49966613,5.0380003 2.38066732,5.1079996 2.25,5.192 L1.326,4.604 L1.578,0.11 L6.618,0.11 L6.618,1.846 L3.356,1.846 L3.202,3.512 C3.37000084,3.43733296 3.53099923,3.38366683 3.685,3.351 C3.83900077,3.31833317 4.0093324,3.302 4.196,3.302 C4.5786686,3.302 4.9403316,3.35799944 5.281,3.47 C5.6216684,3.58200056 5.9226654,3.74999888 6.184,3.974 C6.4453346,4.1980011 6.6506659,4.4826649 6.8,4.828 C6.9493341,5.1733351 7.024,5.5839976 7.024,6.06 C7.024,6.5546691 6.9353342,6.9933314 6.758,7.376 C6.5806658,7.7586686 6.3426682,8.0829987 6.044,8.349 C5.7453318,8.6150013 5.3976686,8.8179993 5.001,8.958 C4.6043314,9.0980007 4.1913355,9.168 3.762,9.168 C3.03399636,9.168 2.41800252,9.0490012 1.914,8.811 C1.40999748,8.5729988 0.98066844,8.2766684 0.626,7.922 L1.55,6.62 Z"></path>
        </g>
    </g>
</svg>