<svg width="600px" height="600px" viewBox="0 0 600 600" version="1.1" xmlns="http://www.w3.org/2000/svg">
    <g id="Page-1" stroke="none" stroke-width="1" fill="none" fill-rule="evenodd">
        <g id="ar" fill-rule="nonzero">
            <rect id="Rectangle" fill="#007A3D" x="0" y="0" width="600" height="600"></rect>
            <g id="Group" transform="translate(69.177734, 101.404220)" fill="#FFFFFF">
                <path d="M434.28906,185.24617 C429.01519,190.91031 421.83746,196.52554 412.75586,202.09187 C403.67341,207.65834 392.39413,212.73646 378.91797,217.32625 C365.44103,221.91614 349.76722,225.77356 331.89648,228.89851 C314.02507,232.02355 293.66376,233.97668 270.8125,234.75789 C268.66378,240.81261 266.46652,247.30674 264.2207,254.24031 C261.97434,261.17392 259.77707,268.74227 257.62891,276.94539 L256.16406,276.94539 C255.18723,275.96882 254.35716,274.74812 253.67383,273.28328 C252.98997,271.81844 252.35521,269.71883 251.76953,266.98445 C252.74583,261.51571 253.82005,256.14462 254.99219,250.87117 C256.1638,245.59776 257.43333,240.22667 258.80078,234.75789 C248.83959,234.75793 239.46459,233.4884 230.67578,230.9493 C230.0896,268.83992 221.00758,303.60551 203.42969,335.24617 C184.28887,369.81639 144.3475,387.10164 83.60547,387.10164 C59.19134,387.10164 39.26948,379.97263 23.83984,365.71492 C8.21483,351.26172 0.40234,333.19533 0.40234,311.5157 C0.40234,288.66412 11.14451,260.63681 32.62891,227.43367 L38.19531,229.48445 C23.74215,256.24228 16.5156,277.82429 16.51562,294.23055 C16.5156,302.82427 18.61521,310.49027 22.81445,317.22859 C27.01364,323.96682 32.97066,329.72854 40.68555,334.51375 C48.40033,339.29884 57.87298,342.96094 69.10352,345.50008 C80.33389,348.03906 92.98037,349.30859 107.04297,349.30867 C128.52721,349.30859 148.44906,345.59766 166.80859,338.17586 C185.16777,330.94924 197.66776,321.6719 204.30859,310.34383 C210.36306,299.4063 213.3904,283.29303 213.39062,262.00398 C213.3904,250.48057 211.58376,239.00597 207.9707,227.58015 C204.35721,216.15443 199.42557,206.04702 193.17578,197.25789 L209.28906,162.68758 C212.60915,167.37518 215.73415,172.50213 218.66406,178.06844 C221.59352,183.63493 223.83961,188.37125 225.40234,192.27742 C231.06617,194.81656 236.73022,196.57437 242.39453,197.55086 C248.05834,198.52749 254.01536,199.01578 260.26562,199.0157 C262.41379,199.01578 264.65988,199.01578 267.00391,199.0157 C269.34738,199.01578 271.78878,198.82046 274.32812,198.42976 C285.07002,180.65642 296.64227,164.4455 309.04492,149.79695 C321.44693,135.14865 334.38637,122.3557 347.86328,111.41805 C359.38635,102.04322 370.51915,94.719 381.26172,89.44539 C392.0035,84.17214 400.79256,81.53523 407.62891,81.53523 C414.65973,81.53523 421.39801,82.85378 427.84375,85.49031 C434.28862,88.12721 440.0015,91.34987 444.98242,95.15828 C449.96243,98.96705 453.9175,102.97095 456.84766,107.17 C459.77687,111.36938 461.24219,115.12914 461.24219,118.4493 C461.24219,126.45725 460.46047,133.78147 458.89844,140.42195 C457.33547,147.0627 455.28469,153.06856 452.74609,158.43953 C450.20657,163.81073 447.32571,168.69354 444.10352,173.08797 C440.88041,177.48259 437.60893,181.53532 434.28906,185.24617 L434.28906,185.24617 Z M397.08203,120.50008 C391.61288,120.50008 384.72812,122.25804 376.42773,125.77351 C368.12658,129.28928 359.14221,134.31857 349.47461,140.8614 C339.80629,147.4045 329.89419,155.50996 319.73828,165.17781 C309.58171,174.84588 299.91375,185.83219 290.73437,198.1368 C294.05438,198.1368 297.22821,198.0392 300.25586,197.84383 C303.28289,197.64859 306.84734,197.35562 310.94922,196.96492 C325.01138,195.98843 338.82973,193.88883 352.4043,190.66609 C365.97814,187.44352 380.57773,182.80485 396.20312,176.75008 C408.50739,172.06268 418.46832,167.13104 426.08594,161.95515 C433.70268,156.77949 438.58549,152.43379 440.73437,148.91805 C438.39018,145.59786 435.55815,142.22872 432.23828,138.81062 C428.91753,135.39279 425.30425,132.31662 421.39844,129.58211 C417.49176,126.84788 413.43903,124.65062 409.24023,122.99031 C405.0406,121.33031 400.98787,120.50008 397.08203,120.50008 L397.08203,120.50008 Z M344.64062,22.94148 L323.83984,53.7032 L296.00781,30.2657 L316.51562,0.08992 L344.64062,22.94148 Z" id="Shape"></path>
            </g>
        </g>
    </g>
</svg>