<?xml version="1.0" encoding="UTF-8"?>
<svg width="353px" height="353px" viewBox="0 0 353 353" version="1.1" xmlns="http://www.w3.org/2000/svg" xmlns:xlink="http://www.w3.org/1999/xlink">
    <!-- Generator: Sketch 50.2 (55047) - http://www.bohemiancoding.com/sketch -->
    <title>g5162</title>
    <desc>Created with Sketch.</desc>
    <defs></defs>
    <g id="Page-1" stroke="none" stroke-width="1" fill="none" fill-rule="evenodd">
        <g id="Flag_of_Galicia" transform="translate(-124.000000, -24.000000)">
            <g id="g5162" transform="translate(0.960000, 0.952166)">
                <rect id="rect733" fill="#FFFFFF" x="0.040048152" y="0.0477636298" width="599.99994" height="399.999668"></rect>
                <polygon id="path556" fill="#0099CC" fill-rule="nonzero" points="86.069986 0.0481866619 0.04 0.0481866619 0.04 56.9875107 515.93648 400.047831 600.04006 400.047831 600.04006 341.823437"></polygon>
            </g>
            <g id="g4979" transform="translate(237.960000, 65.957106)">
                <path d="M59.64841,240.252908 C-0.48563,240.252908 1.4672,183.673888 1.4672,183.673888 L1.4672,96.8345089 L117.82722,96.8345089 L117.82722,183.673888 C117.82722,183.673888 119.86411,240.252908 59.64841,240.252908" id="path558" fill="#005BBF" fill-rule="nonzero"></path>
                <path d="M59.64841,240.252908 C-0.48563,240.252908 1.4672,183.673888 1.4672,183.673888 L1.4672,96.8345089 L117.82722,96.8345089 L117.82722,183.673888 C117.82722,183.673888 119.86411,240.252908 59.64841,240.252908 Z" id="path559" stroke="#000000" stroke-width="1.00643704"></path>
                <path d="M59.13678,42.1818856 C59.13678,42.1818856 46.73046,36.1456769 34.99429,45.0330623 C34.99429,45.0330623 13.87592,41.9849306 12.32182,62.2145379 C12.25937,63.0336202 12.13207,64.5420748 12.50918,64.9816382 C12.8863,65.4212116 13.26341,66.2402839 13.26341,66.8023566 C13.26341,67.3692297 13.64053,67.6838836 13.76784,67.9336926 C13.89273,68.1859017 14.20739,68.5630204 14.26985,69.6319016 C14.3323,70.7008029 14.14494,71.202811 15.15139,72.2717022 C16.15542,73.3405835 16.21787,76.4223477 16.21787,77.3014845 C16.21787,78.1806113 16.8472,80.6330476 17.28675,81.137476 C17.72632,81.6394841 18.48055,82.8957296 18.48055,83.9646208 C18.48055,85.0335021 18.92012,87.9879666 18.73036,88.7397837 C18.54301,89.494011 19.8617,90.4379928 21.05789,90.8151114 C22.25169,91.1922301 37.08884,96.0322479 58.71403,95.6551292 C80.34162,95.2780206 88.12891,94.1274631 97.06434,90.8775662 C98.44549,90.375538 98.6977,89.244202 98.5728,88.6148742 C98.44549,87.9879666 98.5728,85.9774938 98.94991,85.4730655 C99.32702,84.9710573 101.84192,80.9477116 101.3375,80.1934842 C100.83548,79.4392569 100.83548,77.8035026 101.3375,77.176575 C101.84192,76.5472471 103.41523,73.5231373 103.72509,72.2717022 C104.03735,71.0178669 104.07818,69.5406347 104.65466,69.1034615 C105.23354,68.6662982 105.4281,67.2491305 105.5386,66.9536781 C105.65148,66.6558355 106.07184,65.7334654 106.65793,65.3131134 C106.65793,65.3131134 107.74844,60.201675 107.07587,57.689184 C106.40812,55.1742929 102.63458,44.3605011 87.29541,46.6255833 C87.29541,46.6255833 75.89553,37.9904071 59.13198,42.1818856" id="path560" fill="#D81126" fill-rule="nonzero"></path>
                <path d="M59.13678,42.1818856 C59.13678,42.1818856 46.73046,36.1456769 34.99429,45.0330623 C34.99429,45.0330623 13.87592,41.9849306 12.32182,62.2145379 C12.25937,63.0336202 12.13207,64.5420748 12.50918,64.9816382 C12.8863,65.4212116 13.26341,66.2402839 13.26341,66.8023566 C13.26341,67.3692297 13.64053,67.6838836 13.76784,67.9336926 C13.89273,68.1859017 14.20739,68.5630204 14.26985,69.6319016 C14.3323,70.7008029 14.14494,71.202811 15.15139,72.2717022 C16.15542,73.3405835 16.21787,76.4223477 16.21787,77.3014845 C16.21787,78.1806113 16.8472,80.6330476 17.28675,81.137476 C17.72632,81.6394841 18.48055,82.8957296 18.48055,83.9646208 C18.48055,85.0335021 18.92012,87.9879666 18.73036,88.7397837 C18.54301,89.494011 19.8617,90.4379928 21.05789,90.8151114 C22.25169,91.1922301 37.08884,96.0322479 58.71403,95.6551292 C80.34162,95.2780206 88.12891,94.1274631 97.06434,90.8775662 C98.44549,90.375538 98.6977,89.244202 98.5728,88.6148742 C98.44549,87.9879666 98.5728,85.9774938 98.94991,85.4730655 C99.32702,84.9710573 101.84192,80.9477116 101.3375,80.1934842 C100.83548,79.4392569 100.83548,77.8035026 101.3375,77.176575 C101.84192,76.5472471 103.41523,73.5231373 103.72509,72.2717022 C104.03735,71.0178669 104.07818,69.5406347 104.65466,69.1034615 C105.23354,68.6662982 105.4281,67.2491305 105.5386,66.9536781 C105.65148,66.6558355 106.07184,65.7334654 106.65793,65.3131134 C106.65793,65.3131134 107.74844,60.201675 107.07587,57.689184 C106.40812,55.1742929 102.63458,44.3605011 87.29541,46.6255833 C87.29541,46.6255833 75.89553,37.9904071 59.13198,42.1818856 L59.13678,42.1818856 Z" id="path561" stroke="#000000" stroke-width="1.50845454"></path>
                <path d="M100.64332,79.8403874 C53.53532,64.9191935 17.22912,79.1005712 17.22912,79.1005712 C17.22912,79.1005712 17.56539,80.7459462 17.98334,81.2479544 C18.40369,81.7499725 18.98978,82.9245518 18.98978,83.8060888 C18.98978,84.6852156 19.07385,85.9438612 19.07385,86.6140222 C19.07385,87.2817729 18.55982,90.2890714 21.24765,90.2530487 C21.24765,90.2530487 53.9893,77.4095727 96.62478,90.9135989 C96.62478,90.9135989 97.79215,89.8663293 97.83539,88.3578647 C97.87622,86.8494101 98.12603,85.256889 98.71451,84.4185953 C99.3006,83.5803016 100.64092,80.9621227 100.64092,79.8403874" id="path562" fill="#BCAC0B" fill-rule="nonzero"></path>
                <path d="M56.96778,158.359244 L36.51476,158.359244 C36.51476,158.359244 34.50188,176.631233 50.2614,182.165434 L50.2614,183.842031 L53.61459,183.842031 L53.61459,186.020636 C53.61459,186.020636 47.83058,191.216151 52.85796,197.168304 L52.85796,199.013044 L53.69866,199.013044 L53.69866,201.945877 L54.61862,201.945877 L54.61862,206.72104 C54.61862,206.72104 53.86439,223.780026 37.14168,231.951617 L37.14168,232.958043 L81.79244,232.958043 L81.79244,231.951617 C65.07212,223.780026 64.3155,206.72104 64.3155,206.72104 L64.3155,201.945877 L65.23546,201.945877 L65.23546,199.013044 L66.07376,199.013044 L66.07376,197.168304 C71.10354,191.216151 65.31953,186.020636 65.31953,186.020636 L65.31953,183.842031 L68.67271,183.842031 L68.67271,182.165434 C84.43223,176.631233 82.41935,158.359244 82.41935,158.359244 L56.96538,158.359244" id="path563" fill-opacity="0.94117647" fill="#C8B100" fill-rule="nonzero"></path>
                <path d="M56.96778,158.359244 L36.51476,158.359244 C36.51476,158.359244 34.50188,176.631233 50.2614,182.165434 L50.2614,183.842031 L53.61459,183.842031 L53.61459,186.020636 C53.61459,186.020636 47.83058,191.216151 52.85796,197.168304 L52.85796,199.013044 L53.69866,199.013044 L53.69866,201.945877 L54.61862,201.945877 L54.61862,206.72104 C54.61862,206.72104 53.86439,223.780026 37.14168,231.951617 L37.14168,232.958043 L81.79244,232.958043 L81.79244,231.951617 C65.07212,223.780026 64.3155,206.72104 64.3155,206.72104 L64.3155,201.945877 L65.23546,201.945877 L65.23546,199.013044 L66.07376,199.013044 L66.07376,197.168304 C71.10354,191.216151 65.31953,186.020636 65.31953,186.020636 L65.31953,183.842031 L68.67271,183.842031 L68.67271,182.165434 C84.43223,176.631233 82.41935,158.359244 82.41935,158.359244 L56.96538,158.359244 L56.96778,158.359244 Z" id="path564" stroke="#000000" stroke-width="1.00643704"></path>
                <path d="M49.58884,181.913224 L69.33087,181.913224 M50.2614,183.421679 L68.66071,183.421679 M53.61459,185.93657 L65.18261,185.93657 M52.85796,197.37728 L66.06174,197.37728 M53.73949,198.782446 L65.26668,198.782446 M53.73949,201.633613 L65.22345,201.633613 M46.69924,224.788863 L72.22287,224.788863 M39.49084,230.697772 L79.47451,230.697772 M37.98238,231.576899 L81.0238,231.576899" id="path565" stroke="#000000" stroke-width="0.5"></path>
                <path d="M59.6388,157.280752 C66.83999,157.280752 72.67925,151.441499 72.67925,144.240321 C72.67925,137.039124 66.83999,131.19988 59.6388,131.19988 C52.4376,131.19988 46.59835,137.039124 46.59835,144.240321 C46.59835,151.441499 52.4376,157.280752 59.6388,157.280752" id="path566" fill="#CCCCCC" fill-rule="nonzero"></path>
                <path d="M59.6388,157.280752 C66.83999,157.280752 72.67925,151.441499 72.67925,144.240321 C72.67925,137.039124 66.83999,131.19988 59.6388,131.19988 C52.4376,131.19988 46.59835,137.039124 46.59835,144.240321 C46.59835,151.441499 52.4376,157.280752 59.6388,157.280752 Z" id="path567" stroke="#000000" stroke-width="1.00643704"></path>
                <polyline id="path568" fill="#CCCCCC" fill-rule="nonzero" points="29.29435 118.964111 21.16359 118.964111 21.16359 110.830943 13.95518 110.830943 13.95518 118.964111 5.82442 118.964111 5.82442 126.170088 13.95518 126.170088 13.95518 134.300856 21.16359 134.300856 21.16359 126.170088 29.29435 126.170088 29.29435 118.964111"></polyline>
                <polyline id="path569" stroke="#000000" stroke-width="1.00643704" points="29.29435 118.964111 21.16359 118.964111 21.16359 110.830943 13.95518 110.830943 13.95518 118.964111 5.82442 118.964111 5.82442 126.170088 13.95518 126.170088 13.95518 134.300856 21.16359 134.300856 21.16359 126.170088 29.29435 126.170088 29.29435 118.964111"></polyline>
                <polyline id="path570" fill="#CCCCCC" fill-rule="nonzero" points="113.79906 118.964111 105.6683 118.964111 105.6683 110.830943 98.4575 110.830943 98.4575 118.964111 90.32914 118.964111 90.32914 126.170088 98.4575 126.170088 98.4575 134.300856 105.6683 134.300856 105.6683 126.170088 113.79906 126.170088 113.79906 118.964111"></polyline>
                <polyline id="path571" stroke="#000000" stroke-width="1.00643704" points="113.79906 118.964111 105.6683 118.964111 105.6683 110.830943 98.4575 110.830943 98.4575 118.964111 90.32914 118.964111 90.32914 126.170088 98.4575 126.170088 98.4575 134.300856 105.6683 134.300856 105.6683 126.170088 113.79906 126.170088 113.79906 118.964111"></polyline>
                <polyline id="path572" fill="#CCCCCC" fill-rule="nonzero" points="70.97624 108.746014 62.84547 108.746014 62.84547 100.615256 55.63708 100.615256 55.63708 108.746014 47.50631 108.746014 47.50631 115.954412 55.63708 115.954412 55.63708 124.08516 62.84547 124.08516 62.84547 115.954412 70.97624 115.954412 70.97624 108.746014"></polyline>
                <polyline id="path573" stroke="#000000" stroke-width="1.00643704" points="70.97624 108.746014 62.84547 108.746014 62.84547 100.615256 55.63708 100.615256 55.63708 108.746014 47.50631 108.746014 47.50631 115.954412 55.63708 115.954412 55.63708 124.08516 62.84547 124.08516 62.84547 115.954412 70.97624 115.954412 70.97624 108.746014"></polyline>
                <polyline id="path574" fill="#CCCCCC" fill-rule="nonzero" points="29.29435 154.167766 21.16359 154.167766 21.16359 146.037008 13.95518 146.037008 13.95518 154.167766 5.82442 154.167766 5.82442 161.376154 13.95518 161.376154 13.95518 169.506912 21.16359 169.506912 21.16359 161.376154 29.29435 161.376154 29.29435 154.167766"></polyline>
                <polyline id="path575" stroke="#000000" stroke-width="1.00643704" points="29.29435 154.167766 21.16359 154.167766 21.16359 146.037008 13.95518 146.037008 13.95518 154.167766 5.82442 154.167766 5.82442 161.376154 13.95518 161.376154 13.95518 169.506912 21.16359 169.506912 21.16359 161.376154 29.29435 161.376154 29.29435 154.167766"></polyline>
                <polyline id="path576" fill="#CCCCCC" fill-rule="nonzero" points="113.79906 154.167766 105.6683 154.167766 105.6683 146.037008 98.4575 146.037008 98.4575 154.167766 90.32914 154.167766 90.32914 161.376154 98.4575 161.376154 98.4575 169.506912 105.6683 169.506912 105.6683 161.376154 113.79906 161.376154 113.79906 154.167766"></polyline>
                <polyline id="path577" stroke="#000000" stroke-width="1.00643704" points="113.79906 154.167766 105.6683 154.167766 105.6683 146.037008 98.4575 146.037008 98.4575 154.167766 90.32914 154.167766 90.32914 161.376154 98.4575 161.376154 98.4575 169.506912 105.6683 169.506912 105.6683 161.376154 113.79906 161.376154 113.79906 154.167766"></polyline>
                <polyline id="path578" fill="#CCCCCC" fill-rule="nonzero" points="29.29435 189.719708 21.16359 189.719708 21.16359 181.58655 13.95518 181.58655 13.95518 189.719708 5.82442 189.719708 5.82442 196.928105 13.95518 196.928105 13.95518 205.056453 21.16359 205.056453 21.16359 196.928105 29.29435 196.928105 29.29435 189.719708"></polyline>
                <polyline id="path579" stroke="#000000" stroke-width="1.00643704" points="29.29435 189.719708 21.16359 189.719708 21.16359 181.58655 13.95518 181.58655 13.95518 189.719708 5.82442 189.719708 5.82442 196.928105 13.95518 196.928105 13.95518 205.056453 21.16359 205.056453 21.16359 196.928105 29.29435 196.928105 29.29435 189.719708"></polyline>
                <polyline id="path580" fill="#CCCCCC" fill-rule="nonzero" points="113.79906 189.719708 105.6683 189.719708 105.6683 181.58655 98.4575 181.58655 98.4575 189.719708 90.32914 189.719708 90.32914 196.928105 98.4575 196.928105 98.4575 205.056453 105.6683 205.056453 105.6683 196.928105 113.79906 196.928105 113.79906 189.719708"></polyline>
                <polyline id="path581" stroke="#000000" stroke-width="1.00643704" points="113.79906 189.719708 105.6683 189.719708 105.6683 181.58655 98.4575 181.58655 98.4575 189.719708 90.32914 189.719708 90.32914 196.928105 98.4575 196.928105 98.4575 205.056453 105.6683 205.056453 105.6683 196.928105 113.79906 196.928105 113.79906 189.719708"></polyline>
                <path d="M59.53311,24.7746227 C63.85431,24.7746227 67.35882,21.2725166 67.35882,16.9513182 C67.35882,12.6301298 63.85431,9.12801368 59.53311,9.12801368 C55.21192,9.12801368 51.7098,12.6301298 51.7098,16.9513182 C51.7098,21.2725166 55.21192,24.7746227 59.53311,24.7746227" id="path582" fill="#005BBF" fill-rule="nonzero"></path>
                <path d="M59.53311,24.7746227 C63.85431,24.7746227 67.35882,21.2725166 67.35882,16.9513182 C67.35882,12.6301298 63.85431,9.12801368 59.53311,9.12801368 C55.21192,9.12801368 51.7098,12.6301298 51.7098,16.9513182 C51.7098,21.2725166 55.21192,24.7746227 59.53311,24.7746227 Z" id="path583" stroke="#000000" stroke-width="1.00643704"></path>
                <polyline id="path584" fill="#FFCC00" fill-rule="nonzero" points="66.82798 15.5677731 60.41465 15.5677731 60.41465 5.19595486 62.86468 5.19595486 62.86468 3.12062715 60.41465 3.12062715 60.41465 0.668180778 58.33932 0.668180778 58.33932 3.12062715 55.88687 3.12062715 55.88687 5.19595486 58.33932 5.19595486 58.33932 15.5677731 52.24064 15.5677731 52.24064 16.9513182 58.33932 16.9513182 58.33932 17.0137729 60.41465 17.0137729 60.41465 16.9513182 66.82798 16.9513182 66.82798 15.5677731"></polyline>
                <polyline id="path585" stroke="#000000" stroke-width="0.502017496" fill="#BCAC0B" fill-rule="nonzero" points="66.82798 15.5677731 60.41465 15.5677731 60.41465 5.19595486 62.86468 5.19595486 62.86468 3.12062715 60.41465 3.12062715 60.41465 0.668180778 58.33932 0.668180778 58.33932 3.12062715 55.88687 3.12062715 55.88687 5.19595486 58.33932 5.19595486 58.33932 15.5677731 52.24064 15.5677731 52.24064 16.9513182 58.33932 16.9513182 58.33932 17.0137729 60.41465 17.0137729 60.41465 16.9513182 66.82798 16.9513182 66.82798 15.5677731"></polyline>
                <path d="M28.20625,34.1352041 C28.20625,34.1352041 33.99026,33.4650532 37.34105,34.805365 C37.34105,34.805365 33.50025,39.174587 34.32414,44.9465957 C34.74448,47.8818287 35.33057,49.3902834 36.16887,50.8146716 C37.00717,52.24146 37.92713,55.1742929 37.42511,57.5210313 L38.51562,57.5210313 C38.51562,57.5210313 39.60613,52.7434682 37.76139,50.0604343 C35.91666,47.3798106 34.99429,43.6903402 36.83903,39.8351372 C38.68137,35.9799343 41.3644,34.4714796 41.3644,34.4714796 C44.46537,35.7277251 51.00602,34.5531458 52.84835,33.212844 C54.69068,31.8701219 55.61305,30.0277919 52.1782,29.8596492 C48.74334,29.6915164 42.87525,29.7755828 38.8519,32.7948922 C38.8519,32.7948922 36.75496,30.3616673 26.27744,31.5362466 C15.79993,32.7108158 8.22642,37.1857459 5.90849,46.6255833 C4.73632,51.4031563 9.17761,61.4603106 13.28503,63.8911354 C13.28503,63.8911354 13.16012,62.2577712 13.57808,61.083202 C13.57808,61.083202 6.57865,53.2454863 8.67559,45.9530222 C10.77014,38.660568 19.15311,33.8829949 28.20625,34.1352041" id="path586" fill="#FFCC00" fill-rule="nonzero"></path>
                <path d="M28.20625,34.1352041 C28.20625,34.1352041 33.99026,33.4650532 37.34105,34.805365 C37.34105,34.805365 33.50025,39.174587 34.32414,44.9465957 C34.74448,47.8818287 35.33057,49.3902834 36.16887,50.8146716 C37.00717,52.24146 37.92713,55.1742929 37.42511,57.5210313 L38.51562,57.5210313 C38.51562,57.5210313 39.60613,52.7434682 37.76139,50.0604343 C35.91666,47.3798106 34.99429,43.6903402 36.83903,39.8351372 C38.68137,35.9799343 41.3644,34.4714796 41.3644,34.4714796 C44.46537,35.7277251 51.00602,34.5531458 52.84835,33.212844 C54.69068,31.8701219 55.61305,30.0277919 52.1782,29.8596492 C48.74334,29.6915164 42.87525,29.7755828 38.8519,32.7948922 C38.8519,32.7948922 36.75496,30.3616673 26.27744,31.5362466 C15.79993,32.7108158 8.22642,37.1857459 5.90849,46.6255833 C4.73632,51.4031563 9.17761,61.4603106 13.28503,63.8911354 C13.28503,63.8911354 13.16012,62.2577712 13.57808,61.083202 C13.57808,61.083202 6.57865,53.2454863 8.67559,45.9530222 C10.77014,38.660568 19.15311,33.8829949 28.20625,34.1352041 Z" id="path587" stroke="#000000" stroke-width="0.653343347" fill="#BCAC0B" fill-rule="nonzero"></path>
                <path d="M47.89783,32.6916044 C49.70894,32.5450832 51.15975,32.2304293 51.14053,31.9830205 C51.12131,31.7404121 49.63688,31.6587459 47.82577,31.805267 C46.01466,31.9517882 44.56386,32.2688522 44.58307,32.5138609 C44.60229,32.7588595 46.08672,32.8381255 47.89783,32.6916044" id="path588" fill="#FFFFFF" fill-rule="nonzero"></path>
                <path d="M41.30195,34.4282463 C41.30195,34.4282463 39.22902,36.3762644 41.30195,34.4282463 C43.37727,32.4802283 47.71528,31.1591279 50.16772,31.726001 C52.61776,32.2904739 49.72575,32.6051278 48.90907,32.6675825 C48.09239,32.7300373 46.45663,33.0447012 44.06904,32.6675825" id="path589" stroke="#000000" stroke-width="0.653343347"></path>
                <path d="M90.73508,34.7621217 C90.73508,34.7621217 84.95346,34.094371 81.60028,35.4346828 C81.60028,35.4346828 85.44348,39.8015147 84.61719,45.5759135 C84.19924,48.5111466 83.61315,50.0196012 82.77486,51.4439894 C81.93415,52.8659675 81.01419,55.8036108 81.5162,58.1503591 L80.4257,58.1503591 C80.4257,58.1503591 79.33759,53.372796 81.17992,50.6897621 C83.02467,48.0067382 83.94703,44.319668 82.10229,40.4644651 C80.25996,36.6068619 77.57693,35.0984073 77.57693,35.0984073 C74.47594,36.3570529 67.9377,35.1824737 66.09297,33.8421618 C64.25304,32.4994498 63.32827,30.6571098 66.76313,30.488977 C70.20039,30.3208342 76.06847,30.4049106 80.09182,33.4218099 C80.09182,33.4218099 82.18637,30.9909951 92.66388,32.1655744 C103.1438,33.3377435 110.7149,37.8150637 113.03283,47.2525109 C114.20741,52.030074 109.76371,62.0896385 105.6563,64.5204632 C105.6563,64.5204632 105.78359,62.8870991 105.36325,61.7125298 C105.36325,61.7125298 112.36267,53.8748142 110.26813,46.58235 C108.17118,39.2898858 99.79062,34.5123227 90.73508,34.7621217" id="path590" fill="#FFCC00" fill-rule="nonzero"></path>
                <path d="M90.73508,34.7621217 C90.73508,34.7621217 84.95346,34.094371 81.60028,35.4346828 C81.60028,35.4346828 85.44348,39.8015147 84.61719,45.5759135 C84.19924,48.5111466 83.61315,50.0196012 82.77486,51.4439894 C81.93415,52.8659675 81.01419,55.8036108 81.5162,58.1503591 L80.4257,58.1503591 C80.4257,58.1503591 79.33759,53.372796 81.17992,50.6897621 C83.02467,48.0067382 83.94703,44.319668 82.10229,40.4644651 C80.25996,36.6068619 77.57693,35.0984073 77.57693,35.0984073 C74.47594,36.3570529 67.9377,35.1824737 66.09297,33.8421618 C64.25304,32.4994498 63.32827,30.6571098 66.76313,30.488977 C70.20039,30.3208342 76.06847,30.4049106 80.09182,33.4218099 C80.09182,33.4218099 82.18637,30.9909951 92.66388,32.1655744 C103.1438,33.3377435 110.7149,37.8150637 113.03283,47.2525109 C114.20741,52.030074 109.76371,62.0896385 105.6563,64.5204632 C105.6563,64.5204632 105.78359,62.8870991 105.36325,61.7125298 C105.36325,61.7125298 112.36267,53.8748142 110.26813,46.58235 C108.17118,39.2898858 99.79062,34.5123227 90.73508,34.7621217 Z" id="path591" stroke="#000000" stroke-width="0.653343347" fill="#BCAC0B" fill-rule="nonzero"></path>
                <path d="M71.04349,33.3209222 C69.23479,33.1744011 67.78158,32.857337 67.80079,32.6123383 C67.82241,32.3673397 69.30444,32.2880637 71.11555,32.4345948 C72.92666,32.581116 74.37987,32.8981801 74.36065,33.1431887 C74.33903,33.3881773 72.8546,33.4674533 71.04349,33.3209222" id="path592" fill="#FFFFFF" fill-rule="nonzero"></path>
                <path d="M77.63938,35.0575742 C77.63938,35.0575742 79.71471,37.0055922 77.63938,35.0575742 C75.56645,33.107146 71.22845,31.7884557 68.776,32.3529186 C66.32356,32.9197917 69.21557,33.2344556 70.03225,33.2969104 C70.85133,33.3593651 72.48469,33.674019 74.87468,33.2969104" id="path593" stroke="#000000" stroke-width="0.653343347"></path>
                <path d="M54.107,28.3511945 L54.107,50.648929 C53.85479,52.8275446 56.78763,55.9285202 58.88457,56.8508803 C58.88457,56.8508803 63.83029,55.1742929 64.16416,50.648929 L64.16416,27.0925489 L62.48758,27.0925489 L62.48758,47.4614768 C62.4059,49.5584162 61.06319,53.3295527 59.21845,53.9180475 C59.21845,53.9180475 55.61545,53.3295527 55.44732,47.5455432 L55.44732,27.6834438 L54.107,28.3511945" id="path594" fill="#FFCC00" fill-rule="nonzero"></path>
                <path d="M54.107,28.3511945 L54.107,50.648929 C53.85479,52.8275446 56.78763,55.9285202 58.88457,56.8508803 C58.88457,56.8508803 63.83029,55.1742929 64.16416,50.648929 L64.16416,27.0925489 L62.48758,27.0925489 L62.48758,47.4614768 C62.4059,49.5584162 61.06319,53.3295527 59.21845,53.9180475 C59.21845,53.9180475 55.61545,53.3295527 55.44732,47.5455432 L55.44732,27.6834438 L54.107,28.3511945" id="path595" stroke="#000000" stroke-width="0.653343347" fill="#BCAC0B" fill-rule="nonzero"></path>
                <path d="M4.77715,58.846942 C6.24957,58.846942 7.44337,57.6531513 7.44337,56.1807294 C7.44337,54.7106977 6.24957,53.5145068 4.77715,53.5145068 C3.30472,53.5145068 2.11093,54.7082975 2.11093,56.1807294 C2.11093,57.6531513 3.30472,58.846942 4.77715,58.846942" id="path596" fill="#FFFFFF" fill-rule="nonzero"></path>
                <path d="M4.77715,58.846942 C6.24957,58.846942 7.44337,57.6531513 7.44337,56.1807294 C7.44337,54.7106977 6.24957,53.5145068 4.77715,53.5145068 C3.30472,53.5145068 2.11093,54.7082975 2.11093,56.1807294 C2.11093,57.6531513 3.30472,58.846942 4.77715,58.846942 Z" id="path597" stroke="#000000" stroke-width="1.00643704"></path>
                <path d="M3.11016,52.7170462 C4.58499,52.7170462 5.77878,51.5232655 5.77878,50.0508336 C5.77878,48.5808019 4.58499,47.384611 3.11016,47.384611 C1.63774,47.384611 0.44394,48.5784017 0.44394,50.0508336 C0.44394,51.5232655 1.63774,52.7170462 3.11016,52.7170462" id="path598" fill="#FFFFFF" fill-rule="nonzero"></path>
                <path d="M3.11016,52.7170462 C4.58499,52.7170462 5.77878,51.5232655 5.77878,50.0508336 C5.77878,48.5808019 4.58499,47.384611 3.11016,47.384611 C1.63774,47.384611 0.44394,48.5784017 0.44394,50.0508336 C0.44394,51.5232655 1.63774,52.7170462 3.11016,52.7170462 Z" id="path599" stroke="#000000" stroke-width="1.00643704"></path>
                <path d="M3.9917,45.2996825 C5.46412,45.2996825 6.65792,44.1058918 6.65792,42.6310597 C6.65792,41.1586478 5.46412,39.9648471 3.9917,39.9648471 C2.51927,39.9648471 1.32548,41.1586478 1.32548,42.6310597 C1.32548,44.1058918 2.51927,45.2996825 3.9917,45.2996825" id="path600" fill="#FFFFFF" fill-rule="nonzero"></path>
                <path d="M3.9917,45.2996825 C5.46412,45.2996825 6.65792,44.1058918 6.65792,42.6310597 C6.65792,41.1586478 5.46412,39.9648471 3.9917,39.9648471 C2.51927,39.9648471 1.32548,41.1586478 1.32548,42.6310597 C1.32548,44.1058918 2.51927,45.2996825 3.9917,45.2996825 Z" id="path601" stroke="#000000" stroke-width="1.00643704"></path>
                <path d="M8.13995,39.1385643 C9.61478,39.1385643 10.80857,37.9447636 10.80857,36.4723517 C10.80857,34.9975196 9.61478,33.8037289 8.13995,33.8037289 C6.66753,33.8037289 5.47373,34.9975196 5.47373,36.4723517 C5.47373,37.9447636 6.66753,39.1385643 8.13995,39.1385643" id="path602" fill="#FFFFFF" fill-rule="nonzero"></path>
                <path d="M8.13995,39.1385643 C9.61478,39.1385643 10.80857,37.9447636 10.80857,36.4723517 C10.80857,34.9975196 9.61478,33.8037289 8.13995,33.8037289 C6.66753,33.8037289 5.47373,34.9975196 5.47373,36.4723517 C5.47373,37.9447636 6.66753,39.1385643 8.13995,39.1385643 Z" id="path603" stroke="#000000" stroke-width="1.00643704"></path>
                <path d="M13.04483,34.6444328 C14.51725,34.6444328 15.71105,33.4506321 15.71105,31.97581 C15.71105,30.5033881 14.51725,29.3095974 13.04483,29.3095974 C11.57241,29.3095974 10.37621,30.5033881 10.37621,31.97581 C10.37621,33.4506321 11.57241,34.6444328 13.04483,34.6444328" id="path604" fill="#FFFFFF" fill-rule="nonzero"></path>
                <path d="M13.04483,34.6444328 C14.51725,34.6444328 15.71105,33.4506321 15.71105,31.97581 C15.71105,30.5033881 14.51725,29.3095974 13.04483,29.3095974 C11.57241,29.3095974 10.37621,30.5033881 10.37621,31.97581 C10.37621,33.4506321 11.57241,34.6444328 13.04483,34.6444328 Z" id="path605" stroke="#000000" stroke-width="1.00643704"></path>
                <path d="M19.36208,32.1295417 C20.83451,32.1295417 22.0283,30.9357509 22.0283,29.4609189 C22.0283,27.988497 20.83451,26.7946962 19.36208,26.7946962 C17.88966,26.7946962 16.69586,27.988497 16.69586,29.4609189 C16.69586,30.9357509 17.88966,32.1295417 19.36208,32.1295417" id="path606" fill="#FFFFFF" fill-rule="nonzero"></path>
                <path d="M19.36208,32.1295417 C20.83451,32.1295417 22.0283,30.9357509 22.0283,29.4609189 C22.0283,27.988497 20.83451,26.7946962 19.36208,26.7946962 C17.88966,26.7946962 16.69586,27.988497 16.69586,29.4609189 C16.69586,30.9357509 17.88966,32.1295417 19.36208,32.1295417 Z" id="path607" stroke="#000000" stroke-width="1.00643704"></path>
                <path d="M25.96278,30.9357509 C27.4352,30.9357509 28.62899,29.73955 28.62899,28.2671281 C28.62899,26.7946962 27.4352,25.6009155 25.96278,25.6009155 C24.49035,25.6009155 23.29656,26.7946962 23.29656,28.2671281 C23.29656,29.73955 24.49035,30.9357509 25.96278,30.9357509" id="path608" fill="#FFFFFF" fill-rule="nonzero"></path>
                <path d="M25.96278,30.9357509 C27.4352,30.9357509 28.62899,29.73955 28.62899,28.2671281 C28.62899,26.7946962 27.4352,25.6009155 25.96278,25.6009155 C24.49035,25.6009155 23.29656,26.7946962 23.29656,28.2671281 C23.29656,29.73955 24.49035,30.9357509 25.96278,30.9357509 Z" id="path609" stroke="#000000" stroke-width="1.00643704"></path>
                <path d="M32.25121,30.5586323 C33.72364,30.5586323 34.91743,29.3624414 34.91743,27.8900095 C34.91743,26.4175876 33.72364,25.2237969 32.25121,25.2237969 C30.77638,25.2237969 29.58259,26.4175876 29.58259,27.8900095 C29.58259,29.3624414 30.77638,30.5586323 32.25121,30.5586323" id="path610" fill="#FFFFFF" fill-rule="nonzero"></path>
                <path d="M32.25121,30.5586323 C33.72364,30.5586323 34.91743,29.3624414 34.91743,27.8900095 C34.91743,26.4175876 33.72364,25.2237969 32.25121,25.2237969 C30.77638,25.2237969 29.58259,26.4175876 29.58259,27.8900095 C29.58259,29.3624414 30.77638,30.5586323 32.25121,30.5586323 Z" id="path611" stroke="#000000" stroke-width="1.00643704"></path>
                <path d="M37.90792,31.0606504 C39.38034,31.0606504 40.57414,29.8668497 40.57414,28.3944378 C40.57414,26.9196057 39.38034,25.725815 37.90792,25.725815 C36.43549,25.725815 35.2417,26.9196057 35.2417,28.3944378 C35.2417,29.8668497 36.43549,31.0606504 37.90792,31.0606504" id="path612" fill="#FFFFFF" fill-rule="nonzero"></path>
                <path d="M37.90792,31.0606504 C39.38034,31.0606504 40.57414,29.8668497 40.57414,28.3944378 C40.57414,26.9196057 39.38034,25.725815 37.90792,25.725815 C36.43549,25.725815 35.2417,26.9196057 35.2417,28.3944378 C35.2417,29.8668497 36.43549,31.0606504 37.90792,31.0606504 Z" id="path613" stroke="#000000" stroke-width="1.00643704"></path>
                <path d="M54.03734,29.0477775 C55.50977,29.0477775 56.70596,27.8539767 56.70596,26.3815648 C56.70596,24.9115331 55.50977,23.7153422 54.03734,23.7153422 C52.56491,23.7153422 51.37112,24.909133 51.37112,26.3815648 C51.37112,27.8539767 52.56491,29.0477775 54.03734,29.0477775" id="path614" fill="#FFFFFF" fill-rule="nonzero"></path>
                <path d="M54.03734,29.0477775 C55.50977,29.0477775 56.70596,27.8539767 56.70596,26.3815648 C56.70596,24.9115331 55.50977,23.7153422 54.03734,23.7153422 C52.56491,23.7153422 51.37112,24.909133 51.37112,26.3815648 C51.37112,27.8539767 52.56491,29.0477775 54.03734,29.0477775 Z" id="path615" stroke="#000000" stroke-width="1.00643704"></path>
                <path d="M59.19203,30.4313226 C60.66446,30.4313226 61.86065,29.2375319 61.86065,27.76511 C61.86065,26.2926881 60.66446,25.0988874 59.19203,25.0988874 C57.7196,25.0988874 56.52581,26.2926881 56.52581,27.76511 C56.52581,29.2375319 57.7196,30.4313226 59.19203,30.4313226" id="path616" fill="#FFFFFF" fill-rule="nonzero"></path>
                <path d="M59.19203,30.4313226 C60.66446,30.4313226 61.86065,29.2375319 61.86065,27.76511 C61.86065,26.2926881 60.66446,25.0988874 59.19203,25.0988874 C57.7196,25.0988874 56.52581,26.2926881 56.52581,27.76511 C56.52581,29.2375319 57.7196,30.4313226 59.19203,30.4313226 Z" id="path617" stroke="#000000" stroke-width="1.00643704"></path>
                <path d="M59.19203,50.1709327 C60.66446,50.1709327 61.86065,48.977132 61.86065,47.5047201 C61.86065,46.0322882 60.66446,44.8384975 59.19203,44.8384975 C57.7196,44.8384975 56.52581,46.0322882 56.52581,47.5047201 C56.52581,48.977132 57.7196,50.1709327 59.19203,50.1709327" id="path618" fill="#FFFFFF" fill-rule="nonzero"></path>
                <path d="M59.19203,50.1709327 C60.66446,50.1709327 61.86065,48.977132 61.86065,47.5047201 C61.86065,46.0322882 60.66446,44.8384975 59.19203,44.8384975 C57.7196,44.8384975 56.52581,46.0322882 56.52581,47.5047201 C56.52581,48.977132 57.7196,50.1709327 59.19203,50.1709327 Z" id="path619" stroke="#000000" stroke-width="1.00643704"></path>
                <path d="M114.32751,60.5451511 C115.79993,60.5451511 116.99372,59.3513704 116.99372,57.8765383 C116.99372,56.4041064 115.79993,55.2103157 114.32751,55.2103157 C112.85268,55.2103157 111.65889,56.4041064 111.65889,57.8765383 C111.65889,59.3513704 112.85268,60.5451511 114.32751,60.5451511" id="path620" fill="#FFFFFF" fill-rule="nonzero"></path>
                <path d="M114.32751,60.5451511 C115.79993,60.5451511 116.99372,59.3513704 116.99372,57.8765383 C116.99372,56.4041064 115.79993,55.2103157 114.32751,55.2103157 C112.85268,55.2103157 111.65889,56.4041064 111.65889,57.8765383 C111.65889,59.3513704 112.85268,60.5451511 114.32751,60.5451511 Z" id="path621" stroke="#000000" stroke-width="1.00643704"></path>
                <path d="M115.70866,53.9108369 C117.18348,53.9108369 118.37728,52.7170462 118.37728,51.2446243 C118.37728,49.7722024 117.18348,48.5784017 115.70866,48.5784017 C114.23623,48.5784017 113.04244,49.7722024 113.04244,51.2446243 C113.04244,52.7170462 114.23623,53.9108369 115.70866,53.9108369" id="path622" fill="#FFFFFF" fill-rule="nonzero"></path>
                <path d="M115.70866,53.9108369 C117.18348,53.9108369 118.37728,52.7170462 118.37728,51.2446243 C118.37728,49.7722024 117.18348,48.5784017 115.70866,48.5784017 C114.23623,48.5784017 113.04244,49.7722024 113.04244,51.2446243 C113.04244,52.7170462 114.23623,53.9108369 115.70866,53.9108369 Z" id="path623" stroke="#000000" stroke-width="1.00643704"></path>
                <path d="M114.57731,46.9978916 C116.05214,46.9978916 117.24593,45.8041008 117.24593,44.3292788 C117.24593,42.8568569 116.05214,41.6630562 114.57731,41.6630562 C113.10489,41.6630562 111.91109,42.8568569 111.91109,44.3292788 C111.91109,45.8041008 113.10489,46.9978916 114.57731,46.9978916" id="path624" fill="#FFFFFF" fill-rule="nonzero"></path>
                <path d="M114.57731,46.9978916 C116.05214,46.9978916 117.24593,45.8041008 117.24593,44.3292788 C117.24593,42.8568569 116.05214,41.6630562 114.57731,41.6630562 C113.10489,41.6630562 111.91109,42.8568569 111.91109,44.3292788 C111.91109,45.8041008 113.10489,46.9978916 114.57731,46.9978916 Z" id="path625" stroke="#000000" stroke-width="1.00643704"></path>
                <path d="M111.68531,40.4596647 C113.16014,40.4596647 114.35393,39.2634638 114.35393,37.7910419 C114.35393,36.3210202 113.16014,35.1248293 111.68531,35.1248293 C110.21288,35.1248293 109.01909,36.31862 109.01909,37.7910419 C109.01909,39.2634638 110.21288,40.4596647 111.68531,40.4596647" id="path626" fill="#FFFFFF" fill-rule="nonzero"></path>
                <path d="M111.68531,40.4596647 C113.16014,40.4596647 114.35393,39.2634638 114.35393,37.7910419 C114.35393,36.3210202 113.16014,35.1248293 111.68531,35.1248293 C110.21288,35.1248293 109.01909,36.31862 109.01909,37.7910419 C109.01909,39.2634638 110.21288,40.4596647 111.68531,40.4596647 Z" id="path627" stroke="#000000" stroke-width="1.00643704"></path>
                <path d="M106.78283,35.9318906 C108.25525,35.9318906 109.44905,34.7380999 109.44905,33.265678 C109.44905,31.7932561 108.25525,30.5994654 106.78283,30.5994654 C105.3104,30.5994654 104.11421,31.7932561 104.11421,33.265678 C104.11421,34.7380999 105.3104,35.9318906 106.78283,35.9318906" id="path628" fill="#FFFFFF" fill-rule="nonzero"></path>
                <path d="M106.78283,35.9318906 C108.25525,35.9318906 109.44905,34.7380999 109.44905,33.265678 C109.44905,31.7932561 108.25525,30.5994654 106.78283,30.5994654 C105.3104,30.5994654 104.11421,31.7932561 104.11421,33.265678 C104.11421,34.7380999 105.3104,35.9318906 106.78283,35.9318906 Z" id="path629" stroke="#000000" stroke-width="1.00643704"></path>
                <path d="M100.87391,33.0398908 C102.34634,33.0398908 103.54013,31.8461001 103.54013,30.3736782 C103.54013,28.9012563 102.34634,27.7074556 100.87391,27.7074556 C99.39909,27.7074556 98.20529,28.9012563 98.20529,30.3736782 C98.20529,31.8461001 99.39909,33.0398908 100.87391,33.0398908" id="path630" fill="#FFFFFF" fill-rule="nonzero"></path>
                <path d="M100.87391,33.0398908 C102.34634,33.0398908 103.54013,31.8461001 103.54013,30.3736782 C103.54013,28.9012563 102.34634,27.7074556 100.87391,27.7074556 C99.39909,27.7074556 98.20529,28.9012563 98.20529,30.3736782 C98.20529,31.8461001 99.39909,33.0398908 100.87391,33.0398908 Z" id="path631" stroke="#000000" stroke-width="1.00643704"></path>
                <path d="M94.14591,31.5002138 C95.62074,31.5002138 96.81454,30.3064231 96.81454,28.8339912 C96.81454,27.3639795 95.62074,26.1677886 94.14591,26.1677886 C92.67348,26.1677886 91.47969,27.3615793 91.47969,28.8339912 C91.47969,30.3064231 92.67348,31.5002138 94.14591,31.5002138" id="path632" fill="#FFFFFF" fill-rule="nonzero"></path>
                <path d="M94.14591,31.5002138 C95.62074,31.5002138 96.81454,30.3064231 96.81454,28.8339912 C96.81454,27.3639795 95.62074,26.1677886 94.14591,26.1677886 C92.67348,26.1677886 91.47969,27.3615793 91.47969,28.8339912 C91.47969,30.3064231 92.67348,31.5002138 94.14591,31.5002138 Z" id="path633" stroke="#000000" stroke-width="1.00643704"></path>
                <path d="M87.98479,30.9981957 C89.45961,30.9981957 90.6534,29.804405 90.6534,28.3295829 C90.6534,26.8595512 89.45961,25.6633603 87.98479,25.6633603 C86.51236,25.6633603 85.31857,26.857151 85.31857,28.3295829 C85.31857,29.804405 86.51236,30.9981957 87.98479,30.9981957" id="path634" fill="#FFFFFF" fill-rule="nonzero"></path>
                <path d="M87.98479,30.9981957 C89.45961,30.9981957 90.6534,29.804405 90.6534,28.3295829 C90.6534,26.8595512 89.45961,25.6633603 87.98479,25.6633603 C86.51236,25.6633603 85.31857,26.857151 85.31857,28.3295829 C85.31857,29.804405 86.51236,30.9981957 87.98479,30.9981957 Z" id="path635" stroke="#000000" stroke-width="1.00643704"></path>
                <path d="M82.40014,30.2631798 C83.87497,30.2631798 85.06876,29.0693891 85.06876,27.5969772 C85.06876,26.1245453 83.87497,24.9307546 82.40014,24.9307546 C80.92771,24.9307546 79.73392,26.1245453 79.73392,27.5969772 C79.73392,29.0693891 80.92771,30.2631798 82.40014,30.2631798" id="path636" fill="#FFFFFF" fill-rule="nonzero"></path>
                <path d="M82.40014,30.2631798 C83.87497,30.2631798 85.06876,29.0693891 85.06876,27.5969772 C85.06876,26.1245453 83.87497,24.9307546 82.40014,24.9307546 C80.92771,24.9307546 79.73392,26.1245453 79.73392,27.5969772 C79.73392,29.0693891 80.92771,30.2631798 82.40014,30.2631798 Z" id="path637" stroke="#000000" stroke-width="1.00643704"></path>
                <path d="M86.00554,52.0901285 C87.47797,52.0901285 88.67176,50.8939376 88.67176,49.4215057 C88.67176,47.951494 87.47797,46.7552931 86.00554,46.7552931 C84.53312,46.7552931 83.33932,47.9490839 83.33932,49.4215057 C83.33932,50.8939376 84.53312,52.0901285 86.00554,52.0901285" id="path638" fill="#FFFFFF" fill-rule="nonzero"></path>
                <path d="M86.00554,52.0901285 C87.47797,52.0901285 88.67176,50.8939376 88.67176,49.4215057 C88.67176,47.951494 87.47797,46.7552931 86.00554,46.7552931 C84.53312,46.7552931 83.33932,47.9490839 83.33932,49.4215057 C83.33932,50.8939376 84.53312,52.0901285 86.00554,52.0901285 Z" id="path639" stroke="#000000" stroke-width="1.00643704"></path>
                <path d="M87.38909,46.9330366 C88.86152,46.9330366 90.05531,45.7392459 90.05531,44.266824 C90.05531,42.7944021 88.86152,41.6006014 87.38909,41.6006014 C85.91427,41.6006014 84.72048,42.7944021 84.72048,44.266824 C84.72048,45.7392459 85.91427,46.9330366 87.38909,46.9330366" id="path640" fill="#FFFFFF" fill-rule="nonzero"></path>
                <path d="M87.38909,46.9330366 C88.86152,46.9330366 90.05531,45.7392459 90.05531,44.266824 C90.05531,42.7944021 88.86152,41.6006014 87.38909,41.6006014 C85.91427,41.6006014 84.72048,42.7944021 84.72048,44.266824 C84.72048,45.7392459 85.91427,46.9330366 87.38909,46.9330366 Z" id="path641" stroke="#000000" stroke-width="1.00643704"></path>
                <path d="M64.97604,29.8668497 C66.45087,29.8668497 67.64467,28.6706588 67.64467,27.1982369 C67.64467,25.725815 66.45087,24.5320243 64.97604,24.5320243 C63.50361,24.5320243 62.30982,25.725815 62.30982,27.1982369 C62.30982,28.6706588 63.50361,29.8668497 64.97604,29.8668497" id="path642" fill="#FFFFFF" fill-rule="nonzero"></path>
                <path d="M64.97604,29.8668497 C66.45087,29.8668497 67.64467,28.6706588 67.64467,27.1982369 C67.64467,25.725815 66.45087,24.5320243 64.97604,24.5320243 C63.50361,24.5320243 62.30982,25.725815 62.30982,27.1982369 C62.30982,28.6706588 63.50361,29.8668497 64.97604,29.8668497 Z" id="path643" stroke="#000000" stroke-width="1.00643704"></path>
                <path d="M51.92599,29.1438548 C53.40081,29.1438548 54.59461,27.950064 54.59461,26.475232 C54.59461,25.0052203 53.40081,23.8114195 51.92599,23.8114195 C50.45356,23.8114195 49.25977,25.0028201 49.25977,26.475232 C49.25977,27.950064 50.45356,29.1438548 51.92599,29.1438548" id="path644" fill="#FFFFFF" fill-rule="nonzero"></path>
                <path d="M51.92599,29.1438548 C53.40081,29.1438548 54.59461,27.950064 54.59461,26.475232 C54.59461,25.0052203 53.40081,23.8114195 51.92599,23.8114195 C50.45356,23.8114195 49.25977,25.0028201 49.25977,26.475232 C49.25977,27.950064 50.45356,29.1438548 51.92599,29.1438548 Z" id="path645" stroke="#000000" stroke-width="1.00643704"></path>
                <path d="M48.78416,29.0165451 C50.25659,29.0165451 51.45038,27.8227544 51.45038,26.3503325 C51.45038,24.8779106 50.25659,23.6841199 48.78416,23.6841199 C47.31174,23.6841199 46.11795,24.8779106 46.11795,26.3503325 C46.11795,27.8227544 47.31174,29.0165451 48.78416,29.0165451" id="path646" fill="#FFFFFF" fill-rule="nonzero"></path>
                <path d="M48.78416,29.0165451 C50.25659,29.0165451 51.45038,27.8227544 51.45038,26.3503325 C51.45038,24.8779106 50.25659,23.6841199 48.78416,23.6841199 C47.31174,23.6841199 46.11795,24.8779106 46.11795,26.3503325 C46.11795,27.8227544 47.31174,29.0165451 48.78416,29.0165451 Z" id="path647" stroke="#000000" stroke-width="1.00643704"></path>
                <path d="M31.84047,52.1525733 C33.31289,52.1525733 34.50909,50.9587926 34.50909,49.4839605 C34.50909,48.0115386 33.31289,46.8177379 31.84047,46.8177379 C30.36804,46.8177379 29.17425,48.0115386 29.17425,49.4839605 C29.17425,50.9587926 30.36804,52.1525733 31.84047,52.1525733" id="path648" fill="#FFFFFF" fill-rule="nonzero"></path>
                <path d="M31.84047,52.1525733 C33.31289,52.1525733 34.50909,50.9587926 34.50909,49.4839605 C34.50909,48.0115386 33.31289,46.8177379 31.84047,46.8177379 C30.36804,46.8177379 29.17425,48.0115386 29.17425,49.4839605 C29.17425,50.9587926 30.36804,52.1525733 31.84047,52.1525733 Z" id="path649" stroke="#000000" stroke-width="1.00643704"></path>
                <path d="M31.05502,45.7704683 C32.52744,45.7704683 33.72364,44.5766876 33.72364,43.1042557 C33.72364,41.6318338 32.52744,40.4380331 31.05502,40.4380331 C29.58259,40.4380331 28.3888,41.6318338 28.3888,43.1042557 C28.3888,44.5766876 29.58259,45.7704683 31.05502,45.7704683" id="path650" fill="#FFFFFF" fill-rule="nonzero"></path>
                <path d="M31.05502,45.7704683 C32.52744,45.7704683 33.72364,44.5766876 33.72364,43.1042557 C33.72364,41.6318338 32.52744,40.4380331 31.05502,40.4380331 C29.58259,40.4380331 28.3888,41.6318338 28.3888,43.1042557 C28.3888,44.5766876 29.58259,45.7704683 31.05502,45.7704683 Z" id="path651" stroke="#000000" stroke-width="1.00643704"></path>
                <path d="M32.94059,39.6093601 C34.41541,39.6093601 35.6092,38.4155594 35.6092,36.9431375 C35.6092,35.4707156 34.41541,34.2769248 32.94059,34.2769248 C31.46816,34.2769248 30.27437,35.4707156 30.27437,36.9431375 C30.27437,38.4155594 31.46816,39.6093601 32.94059,39.6093601" id="path652" fill="#FFFFFF" fill-rule="nonzero"></path>
                <path d="M32.94059,39.6093601 C34.41541,39.6093601 35.6092,38.4155594 35.6092,36.9431375 C35.6092,35.4707156 34.41541,34.2769248 32.94059,34.2769248 C31.46816,34.2769248 30.27437,35.4707156 30.27437,36.9431375 C30.27437,38.4155594 31.46816,39.6093601 32.94059,39.6093601 Z" id="path653" stroke="#000000" stroke-width="1.00643704"></path>
                <path d="M44.66474,29.6146405 C46.13957,29.6146405 47.33336,28.4208498 47.33336,26.9484379 C47.33336,25.4736058 46.13957,24.2798151 44.66474,24.2798151 C43.19232,24.2798151 41.99852,25.4736058 41.99852,26.9484379 C41.99852,28.4208498 43.19232,29.6146405 44.66474,29.6146405" id="path654" fill="#FFFFFF" fill-rule="nonzero"></path>
                <path d="M44.66474,29.6146405 C46.13957,29.6146405 47.33336,28.4208498 47.33336,26.9484379 C47.33336,25.4736058 46.13957,24.2798151 44.66474,24.2798151 C43.19232,24.2798151 41.99852,25.4736058 41.99852,26.9484379 C41.99852,28.4208498 43.19232,29.6146405 44.66474,29.6146405 Z" id="path655" stroke="#000000" stroke-width="1.00643704"></path>
                <path d="M40.23305,31.4377591 C41.70788,31.4377591 42.90167,30.2439684 42.90167,28.7715465 C42.90167,27.2967244 41.70788,26.1029337 40.23305,26.1029337 C38.76063,26.1029337 37.56683,27.2967244 37.56683,28.7715465 C37.56683,30.2439684 38.76063,31.4377591 40.23305,31.4377591" id="path656" fill="#FFFFFF" fill-rule="nonzero"></path>
                <path d="M40.23305,31.4377591 C41.70788,31.4377591 42.90167,30.2439684 42.90167,28.7715465 C42.90167,27.2967244 41.70788,26.1029337 40.23305,26.1029337 C38.76063,26.1029337 37.56683,27.2967244 37.56683,28.7715465 C37.56683,30.2439684 38.76063,31.4377591 40.23305,31.4377591 Z" id="path657" stroke="#000000" stroke-width="1.00643704"></path>
                <path d="M35.99112,35.0215414 C37.46355,35.0215414 38.65734,33.8253505 38.65734,32.3529186 C38.65734,30.8804967 37.46355,29.686716 35.99112,29.686716 C34.5163,29.686716 33.3225,30.8804967 33.3225,32.3529186 C33.3225,33.8253505 34.5163,35.0215414 35.99112,35.0215414" id="path658" fill="#FFFFFF" fill-rule="nonzero"></path>
                <path d="M35.99112,35.0215414 C37.46355,35.0215414 38.65734,33.8253505 38.65734,32.3529186 C38.65734,30.8804967 37.46355,29.686716 35.99112,29.686716 C34.5163,29.686716 33.3225,30.8804967 33.3225,32.3529186 C33.3225,33.8253505 34.5163,35.0215414 35.99112,35.0215414 Z" id="path659" stroke="#000000" stroke-width="1.00643704"></path>
                <path d="M59.19203,33.4506321 C60.66446,33.4506321 61.86065,32.2544412 61.86065,30.7820093 C61.86065,29.3119975 60.66446,28.1157966 59.19203,28.1157966 C57.7196,28.1157966 56.52581,29.3095974 56.52581,30.7820093 C56.52581,32.2544412 57.7196,33.4506321 59.19203,33.4506321" id="path660" fill="#FFFFFF" fill-rule="nonzero"></path>
                <path d="M59.19203,33.4506321 C60.66446,33.4506321 61.86065,32.2544412 61.86065,30.7820093 C61.86065,29.3119975 60.66446,28.1157966 59.19203,28.1157966 C57.7196,28.1157966 56.52581,29.3095974 56.52581,30.7820093 C56.52581,32.2544412 57.7196,33.4506321 59.19203,33.4506321 Z" id="path661" stroke="#000000" stroke-width="1.00643704"></path>
                <path d="M59.19203,38.4780141 C60.66446,38.4780141 61.86065,37.2842234 61.86065,35.8118015 C61.86065,34.3393696 60.66446,33.1455889 59.19203,33.1455889 C57.7196,33.1455889 56.52581,34.3393696 56.52581,35.8118015 C56.52581,37.2842234 57.7196,38.4780141 59.19203,38.4780141" id="path662" fill="#FFFFFF" fill-rule="nonzero"></path>
                <path d="M59.19203,38.4780141 C60.66446,38.4780141 61.86065,37.2842234 61.86065,35.8118015 C61.86065,34.3393696 60.66446,33.1455889 59.19203,33.1455889 C57.7196,33.1455889 56.52581,34.3393696 56.52581,35.8118015 C56.52581,37.2842234 57.7196,38.4780141 59.19203,38.4780141 Z" id="path663" stroke="#000000" stroke-width="1.00643704"></path>
                <path d="M59.19203,43.884905 C60.66446,43.884905 61.86065,42.6911143 61.86065,41.2186824 C61.86065,39.7486707 60.66446,38.5524798 59.19203,38.5524798 C57.7196,38.5524798 56.52581,39.7462705 56.52581,41.2186824 C56.52581,42.6911143 57.7196,43.884905 59.19203,43.884905" id="path664" fill="#FFFFFF" fill-rule="nonzero"></path>
                <path d="M59.19203,43.884905 C60.66446,43.884905 61.86065,42.6911143 61.86065,41.2186824 C61.86065,39.7486707 60.66446,38.5524798 59.19203,38.5524798 C57.7196,38.5524798 56.52581,39.7462705 56.52581,41.2186824 C56.52581,42.6911143 57.7196,43.884905 59.19203,43.884905 Z" id="path665" stroke="#000000" stroke-width="1.00643704"></path>
                <path d="M68.43492,29.1750871 C69.90734,29.1750871 71.10114,27.9788862 71.10114,26.5064643 C71.10114,25.0364426 69.90734,23.8402517 68.43492,23.8402517 C66.96009,23.8402517 65.7663,25.0340424 65.7663,26.5064643 C65.7663,27.9788862 66.96009,29.1750871 68.43492,29.1750871" id="path666" fill="#FFFFFF" fill-rule="nonzero"></path>
                <path d="M68.43492,29.1750871 C69.90734,29.1750871 71.10114,27.9788862 71.10114,26.5064643 C71.10114,25.0364426 69.90734,23.8402517 68.43492,23.8402517 C66.96009,23.8402517 65.7663,25.0340424 65.7663,26.5064643 C65.7663,27.9788862 66.96009,29.1750871 68.43492,29.1750871 Z" id="path667" stroke="#000000" stroke-width="1.00643704"></path>
                <path d="M72.08116,28.4208498 C73.55358,28.4208498 74.74738,27.2246589 74.74738,25.752237 C74.74738,24.2822153 73.55358,23.0860144 72.08116,23.0860144 C70.60633,23.0860144 69.41254,24.2798151 69.41254,25.752237 C69.41254,27.2246589 70.60633,28.4208498 72.08116,28.4208498" id="path668" fill="#FFFFFF" fill-rule="nonzero"></path>
                <path d="M72.08116,28.4208498 C73.55358,28.4208498 74.74738,27.2246589 74.74738,25.752237 C74.74738,24.2822153 73.55358,23.0860144 72.08116,23.0860144 C70.60633,23.0860144 69.41254,24.2798151 69.41254,25.752237 C69.41254,27.2246589 70.60633,28.4208498 72.08116,28.4208498 Z" id="path669" stroke="#000000" stroke-width="1.00643704"></path>
                <path d="M76.19818,29.0814 C77.6706,29.0814 78.8644,27.8852091 78.8644,26.4127872 C78.8644,24.9403653 77.6706,23.7465646 76.19818,23.7465646 C74.72575,23.7465646 73.53196,24.9403653 73.53196,26.4127872 C73.53196,27.8852091 74.72575,29.0814 76.19818,29.0814" id="path670" fill="#FFFFFF" fill-rule="nonzero"></path>
                <path d="M76.19818,29.0814 C77.6706,29.0814 78.8644,27.8852091 78.8644,26.4127872 C78.8644,24.9403653 77.6706,23.7465646 76.19818,23.7465646 C74.72575,23.7465646 73.53196,24.9403653 73.53196,26.4127872 C73.53196,27.8852091 74.72575,29.0814 76.19818,29.0814 Z" id="path671" stroke="#000000" stroke-width="1.00643704"></path>
                <path d="M86.50756,40.3948098 C87.97998,40.3948098 89.17618,39.2010191 89.17618,37.7285872 C89.17618,36.2561653 87.97998,35.0623745 86.50756,35.0623745 C85.03513,35.0623745 83.84134,36.2561653 83.84134,37.7285872 C83.84134,39.2010191 85.03513,40.3948098 86.50756,40.3948098" id="path672" fill="#FFFFFF" fill-rule="nonzero"></path>
                <path d="M86.50756,40.3948098 C87.97998,40.3948098 89.17618,39.2010191 89.17618,37.7285872 C89.17618,36.2561653 87.97998,35.0623745 86.50756,35.0623745 C85.03513,35.0623745 83.84134,36.2561653 83.84134,37.7285872 C83.84134,39.2010191 85.03513,40.3948098 86.50756,40.3948098 Z" id="path673" stroke="#000000" stroke-width="1.00643704"></path>
                <path d="M80.34643,31.4689915 C81.82126,31.4689915 83.01505,30.2752007 83.01505,28.8027688 C83.01505,27.3279468 81.82126,26.134156 80.34643,26.134156 C78.87401,26.134156 77.68022,27.3279468 77.68022,28.8027688 C77.68022,30.2752007 78.87401,31.4689915 80.34643,31.4689915" id="path674" fill="#FFFFFF" fill-rule="nonzero"></path>
                <path d="M80.34643,31.4689915 C81.82126,31.4689915 83.01505,30.2752007 83.01505,28.8027688 C83.01505,27.3279468 81.82126,26.134156 80.34643,26.134156 C78.87401,26.134156 77.68022,27.3279468 77.68022,28.8027688 C77.68022,30.2752007 78.87401,31.4689915 80.34643,31.4689915 Z" id="path675" stroke="#000000" stroke-width="1.00643704"></path>
                <path d="M84.11997,35.1152186 C85.5924,35.1152186 86.78619,33.9214278 86.78619,32.4466058 C86.78619,30.9741739 85.5924,29.7803831 84.11997,29.7803831 C82.64515,29.7803831 81.45135,30.9741739 81.45135,32.4466058 C81.45135,33.9214278 82.64515,35.1152186 84.11997,35.1152186" id="path676" fill="#FFFFFF" fill-rule="nonzero"></path>
                <path d="M84.11997,35.1152186 C85.5924,35.1152186 86.78619,33.9214278 86.78619,32.4466058 C86.78619,30.9741739 85.5924,29.7803831 84.11997,29.7803831 C82.64515,29.7803831 81.45135,30.9741739 81.45135,32.4466058 C81.45135,33.9214278 82.64515,35.1152186 84.11997,35.1152186 Z" id="path677" stroke="#000000" stroke-width="1.00643704"></path>
                <polyline id="path678" fill="#FFFFFF" fill-rule="nonzero" points="59.02148 75.0556138 51.98122 78.5769314 58.3177 82.5666646 65.82875 78.8123393 59.02148 75.0556138"></polyline>
                <polyline id="path679" stroke="#000000" stroke-width="0.502017496" points="59.02148 75.0556138 51.98122 78.5769314 58.3177 82.5666646 65.82875 78.8123393 59.02148 75.0556138"></polyline>
                <path d="M43.62948,75.79543 L33.06789,77.4287841 C33.06789,77.4287841 32.94059,83.0878942 33.445,84.4714393 L44.2564,82.9605845 C44.2564,82.9605845 44.76082,77.6810033 43.62948,75.79543" id="path680" fill="#FFFFFF" fill-rule="nonzero"></path>
                <path d="M43.62948,75.79543 L33.06789,77.4287841 C33.06789,77.4287841 32.94059,83.0878942 33.445,84.4714393 L44.2564,82.9605845 C44.2564,82.9605845 44.76082,77.6810033 43.62948,75.79543 Z" id="path681" stroke="#000000" stroke-width="0.502017496"></path>
                <path d="M42.4549,77.8059028 C42.4549,77.8059028 36.0848,78.3919873 34.49227,78.9804821 L34.57635,82.835685 C34.57635,82.835685 38.76784,82.0814477 42.62304,81.7451722 L42.4549,77.8059028" id="path682" fill-opacity="0.94117647" fill="#058E6E" fill-rule="nonzero"></path>
                <path d="M42.4549,77.8059028 C42.4549,77.8059028 36.0848,78.3919873 34.49227,78.9804821 L34.57635,82.835685 C34.57635,82.835685 38.76784,82.0814477 42.62304,81.7451722 L42.4549,77.8059028" id="path683" stroke="#000000" stroke-width="0.502017496"></path>
                <path d="M73.74334,76.098073 L84.30252,77.7338473 C84.30252,77.7338473 84.42983,83.3905372 83.92541,84.7740923 L73.11402,83.2656377 C73.11402,83.2656377 72.6096,77.9836463 73.74334,76.098073" id="path684" fill="#FFFFFF" fill-rule="nonzero"></path>
                <path d="M73.74334,76.098073 L84.30252,77.7338473 C84.30252,77.7338473 84.42983,83.3905372 83.92541,84.7740923 L73.11402,83.2656377 C73.11402,83.2656377 72.6096,77.9836463 73.74334,76.098073 Z" id="path685" stroke="#000000" stroke-width="0.502017496"></path>
                <path d="M74.91551,78.110946 C74.91551,78.110946 81.28561,78.6970405 82.87814,79.2831251 L82.79407,83.138328 C82.79407,83.138328 78.60258,82.3841107 74.74738,82.0502253 L74.91551,78.110946" id="path686" fill-opacity="0.94117647" fill="#058E6E" fill-rule="nonzero"></path>
                <path d="M74.91551,78.110946 C74.91551,78.110946 81.28561,78.6970405 82.87814,79.2831251 L82.79407,83.138328 C82.79407,83.138328 78.60258,82.3841107 74.74738,82.0502253 L74.91551,78.110946" id="path687" stroke="#000000" stroke-width="0.502017496"></path>
                <path d="M17.22431,80.8252122 C17.22431,80.8252122 54.27274,67.0665767 101.38314,81.9877806 M18.73277,88.7445841 C18.73277,88.7445841 54.56818,75.3414555 98.76256,89.3402893 M18.9009,80.3207839 L26.1093,82.4153231 L21.07952,87.7813909" id="path688" stroke="#000000" stroke-width="0.502017496"></path>
                <path d="M19.06904,86.7749544 L23.17646,83.3376932 L18.48296,82.4153231 C18.48296,82.4153231 19.12189,83.1407282 18.98978,83.8060888 C18.86007,84.4714393 19.02821,86.1888599 19.06904,86.7749544" id="path689" fill="#FF0000" fill-rule="nonzero"></path>
                <path d="M19.06904,86.7749544 L23.17646,83.3376932 L18.48296,82.4153231 C18.48296,82.4153231 19.12189,83.1407282 18.98978,83.8060888 C18.86007,84.4714393 19.02821,86.1888599 19.06904,86.7749544 Z" id="path690" stroke="#000000" stroke-width="0.502017496"></path>
                <polyline id="path691" stroke="#000000" stroke-width="0.502017496" points="100.58567 81.7043391 92.91609 83.0878942 98.07078 89.1217027"></polyline>
                <path d="M98.32299,86.9863205 L95.43099,83.967021 L99.57923,83.5899023 C99.57923,83.5899023 98.44789,84.3441297 98.44789,84.9734575 C98.44789,85.6027753 98.5752,86.4819121 98.32299,86.9863205" id="path692" fill="#FF0000" fill-rule="nonzero"></path>
                <path d="M98.32299,86.9863205 L95.43099,83.967021 L99.57923,83.5899023 C99.57923,83.5899023 98.44789,84.3441297 98.44789,84.9734575 C98.44789,85.6027753 98.5752,86.4819121 98.32299,86.9863205 Z" id="path693" stroke="#000000" stroke-width="0.502017496"></path>
                <path d="M28.29031,80.8516243 C28.94366,80.8516243 29.4745,80.4264819 29.4745,79.900442 C29.4745,79.3792124 28.94366,78.9540501 28.29031,78.9540501 C27.63457,78.9540501 27.10373,79.3792124 27.10373,79.900442 C27.10373,80.4264819 27.63457,80.8516243 28.29031,80.8516243 Z M48.89706,78.5024757 C49.55281,78.5024757 50.08365,78.0773234 50.08365,77.5560938 C50.08365,77.0300538 49.55281,76.6073017 48.89706,76.6073017 C48.24372,76.6073017 47.71288,77.0300538 47.71288,77.5560938 C47.71288,78.0773234 48.24372,78.5024757 48.89706,78.5024757 Z M48.89706,81.8556706 C49.55281,81.8556706 50.08365,81.4305082 50.08365,80.9068785 C50.08365,80.3832387 49.55281,79.9604965 48.89706,79.9604965 C48.24372,79.9604965 47.71288,80.3832387 47.71288,80.9068785 C47.71288,81.4305082 48.24372,81.8556706 48.89706,81.8556706 Z M69.18194,78.6706185 C69.83768,78.6706185 70.36852,78.2478664 70.36852,77.7218264 C70.36852,77.2005968 69.83768,76.7754445 69.18194,76.7754445 C68.5286,76.7754445 67.99776,77.1981866 67.99776,77.7218264 C67.99776,78.2478664 68.5286,78.6706185 69.18194,78.6706185 Z M89.29868,82.3600789 C89.95443,82.3600789 90.48527,81.9349366 90.48527,81.4088966 C90.48527,80.887657 89.95443,80.4625047 89.29868,80.4625047 C88.64534,80.4625047 88.1145,80.887657 88.1145,81.4088966 C88.1145,81.9349366 88.64534,82.3600789 89.29868,82.3600789 Z M88.96481,85.0407126 C89.62055,85.0407126 90.15139,84.6155603 90.15139,84.0943207 C90.15139,83.5730911 89.62055,83.1431284 88.96481,83.1431284 C88.30906,83.1431284 87.77821,83.5706909 87.77821,84.0943207 C87.77821,84.6155603 88.30906,85.0407126 88.96481,85.0407126 Z M69.18194,82.0238033 C69.83768,82.0238033 70.36852,81.598651 70.36852,81.0750212 C70.36852,80.5537816 69.83768,80.1286293 69.18194,80.1286293 C68.5286,80.1286293 67.99776,80.5513814 67.99776,81.0750212 C67.99776,81.598651 68.5286,82.0238033 69.18194,82.0238033 Z M29.28474,85.0407126 C29.93808,85.0407126 30.46893,84.6155603 30.46893,84.0943207 C30.46893,83.5730911 29.93808,83.1431284 29.28474,83.1431284 C28.62899,83.1431284 28.09815,83.5706909 28.09815,84.0943207 C28.09815,84.6155603 28.62899,85.0407126 29.28474,85.0407126 Z" id="path694" stroke="#000000" stroke-width="0.502017496"></path>
                <path d="M16.55415,70.0114205 C16.55415,70.0114205 16.72229,77.2198183 21.4158,76.2133718 C26.1093,75.2069453 25.60728,69.3388694 25.94356,69.004984 C26.27744,68.6686984 26.77946,68.6686984 26.77946,68.6686984 C26.77946,68.6686984 27.44961,74.3686416 31.80684,73.6984907 C36.16647,73.0283297 35.99833,65.9880747 35.49631,64.8134955 L36.50275,64.4772199 C36.50275,64.4772199 38.17694,72.6920442 43.20673,71.5198751 C48.23651,70.3452958 47.73449,65.149781 47.73449,65.149781 L48.12121,65.149781 C48.12121,65.149781 49.24296,70.6815714 53.2663,70.3452958 C57.28725,70.0114205 58.12795,68.6686984 57.62352,63.136908 L60.30655,62.6348899 C60.30655,62.6348899 59.30012,70.6815714 64.15936,70.5134386 C69.02341,70.3452958 69.18914,66.4900929 69.52543,65.8199419 L70.25804,65.8199419 C70.25804,65.8199419 70.53187,71.5198751 74.55522,71.5198751 C78.57856,71.5198751 79.41445,66.6582356 79.41445,64.8134955 L83.34412,64.9888488 C83.34412,64.9888488 79.24872,72.5263116 85.28494,73.5327481 C91.31876,74.5367744 91.4869,68.6686984 91.4869,68.6686984 L92.65907,68.6686984 C92.65907,68.6686984 92.49094,76.2133718 95.84413,76.3815146 C99.19491,76.5496473 101.20779,75.3750781 101.54166,69.8432777 L103.38641,70.5134386 C103.38641,70.5134386 101.78667,79.4560682 95.50785,77.887569 C92.15466,77.0516755 91.14822,73.1964725 91.31636,72.190026 C91.31636,72.190026 88.97201,76.3791144 84.44424,75.0388025 C79.91888,73.6984907 80.4209,70.5134386 80.4209,69.5070021 C80.4209,69.5070021 77.69943,74.505552 73.88265,73.3598049 C70.53187,72.3557686 69.18914,71.1811894 69.18914,68.834441 C69.18914,68.834441 67.51256,72.689644 64.15936,72.5239114 C60.80617,72.3557686 59.13198,70.3428957 58.96384,68.5005656 C58.96384,68.5005656 58.29848,72.1035595 53.76592,72.3557686 C50.74901,72.5239114 49.07241,71.0178669 48.40225,69.0025838 C48.40225,69.0025838 47.53513,72.6536213 43.20673,73.1940723 C40.5261,73.5303479 37.84307,72.0218932 37.1705,69.5070021 C37.1705,69.5070021 36.50275,74.3662414 32.14312,75.0388025 C27.78349,75.7089534 26.77706,72.6920442 26.77706,72.6920442 C26.77706,72.6920442 25.94116,76.5496473 22.41983,77.3855509 C18.8985,78.2238446 16.55175,76.7178001 15.71345,73.1964725 C14.87516,69.6751449 15.21144,68.1666903 15.21144,68.1666903 L16.55175,70.0090203" id="path695" fill="#FFCC00" fill-rule="nonzero"></path>
                <path d="M16.55415,70.0114205 C16.55415,70.0114205 16.72229,77.2198183 21.4158,76.2133718 C26.1093,75.2069453 25.60728,69.3388694 25.94356,69.004984 C26.27744,68.6686984 26.77946,68.6686984 26.77946,68.6686984 C26.77946,68.6686984 27.44961,74.3686416 31.80684,73.6984907 C36.16647,73.0283297 35.99833,65.9880747 35.49631,64.8134955 L36.50275,64.4772199 C36.50275,64.4772199 38.17694,72.6920442 43.20673,71.5198751 C48.23651,70.3452958 47.73449,65.149781 47.73449,65.149781 L48.12121,65.149781 C48.12121,65.149781 49.24296,70.6815714 53.2663,70.3452958 C57.28725,70.0114205 58.12795,68.6686984 57.62352,63.136908 L60.30655,62.6348899 C60.30655,62.6348899 59.30012,70.6815714 64.15936,70.5134386 C69.02341,70.3452958 69.18914,66.4900929 69.52543,65.8199419 L70.25804,65.8199419 C70.25804,65.8199419 70.53187,71.5198751 74.55522,71.5198751 C78.57856,71.5198751 79.41445,66.6582356 79.41445,64.8134955 L83.34412,64.9888488 C83.34412,64.9888488 79.24872,72.5263116 85.28494,73.5327481 C91.31876,74.5367744 91.4869,68.6686984 91.4869,68.6686984 L92.65907,68.6686984 C92.65907,68.6686984 92.49094,76.2133718 95.84413,76.3815146 C99.19491,76.5496473 101.20779,75.3750781 101.54166,69.8432777 L103.38641,70.5134386 C103.38641,70.5134386 101.78667,79.4560682 95.50785,77.887569 C92.15466,77.0516755 91.14822,73.1964725 91.31636,72.190026 C91.31636,72.190026 88.97201,76.3791144 84.44424,75.0388025 C79.91888,73.6984907 80.4209,70.5134386 80.4209,69.5070021 C80.4209,69.5070021 77.69943,74.505552 73.88265,73.3598049 C70.53187,72.3557686 69.18914,71.1811894 69.18914,68.834441 C69.18914,68.834441 67.51256,72.689644 64.15936,72.5239114 C60.80617,72.3557686 59.13198,70.3428957 58.96384,68.5005656 C58.96384,68.5005656 58.29848,72.1035595 53.76592,72.3557686 C50.74901,72.5239114 49.07241,71.0178669 48.40225,69.0025838 C48.40225,69.0025838 47.53513,72.6536213 43.20673,73.1940723 C40.5261,73.5303479 37.84307,72.0218932 37.1705,69.5070021 C37.1705,69.5070021 36.50275,74.3662414 32.14312,75.0388025 C27.78349,75.7089534 26.77706,72.6920442 26.77706,72.6920442 C26.77706,72.6920442 25.94116,76.5496473 22.41983,77.3855509 C18.8985,78.2238446 16.55175,76.7178001 15.71345,73.1964725 C14.87516,69.6751449 15.21144,68.1666903 15.21144,68.1666903 L16.55175,70.0090203 L16.55415,70.0114205 Z" id="path696" stroke="#000000" stroke-width="0.653343347" fill="#BCAC0B" fill-rule="nonzero"></path>
                <path d="M26.27744,70.3284846 C27.195,70.3284846 27.93722,69.5862682 27.93722,68.6686984 C27.93722,67.7535389 27.195,67.0089223 26.27744,67.0089223 C25.35987,67.0089223 24.61766,67.7535389 24.61766,68.6686984 C24.61766,69.5862682 25.35987,70.3284846 26.27744,70.3284846" id="path697" fill="#FFCC00" fill-rule="nonzero"></path>
                <path d="M26.27744,70.3284846 C27.195,70.3284846 27.93722,69.5862682 27.93722,68.6686984 C27.93722,67.7535389 27.195,67.0089223 26.27744,67.0089223 C25.35987,67.0089223 24.61766,67.7535389 24.61766,68.6686984 C24.61766,69.5862682 25.35987,70.3284846 26.27744,70.3284846 Z" id="path698" stroke="#000000" stroke-width="0.653343347" fill="#BCAC0B" fill-rule="nonzero"></path>
                <path d="M48.12362,66.8311788 C49.04118,66.8311788 49.7834,66.0865622 49.7834,65.1714027 C49.7834,64.2538429 49.04118,63.5116165 48.12362,63.5116165 C47.20605,63.5116165 46.46384,64.2538429 46.46384,65.1714027 C46.46384,66.0865622 47.20605,66.8311788 48.12362,66.8311788" id="path699" fill="#FFCC00" fill-rule="nonzero"></path>
                <path d="M48.12362,66.8311788 C49.04118,66.8311788 49.7834,66.0865622 49.7834,65.1714027 C49.7834,64.2538429 49.04118,63.5116165 48.12362,63.5116165 C47.20605,63.5116165 46.46384,64.2538429 46.46384,65.1714027 C46.46384,66.0865622 47.20605,66.8311788 48.12362,66.8311788 Z" id="path700" stroke="#000000" stroke-width="0.653343347" fill="#BCAC0B" fill-rule="nonzero"></path>
                <path d="M70.26284,67.4797181 C71.18041,67.4797181 71.92262,66.7351015 71.92262,65.8199419 C71.92262,64.9023822 71.18041,64.1601558 70.26284,64.1601558 C69.34528,64.1601558 68.60306,64.9023822 68.60306,65.8199419 C68.60306,66.7351015 69.34528,67.4797181 70.26284,67.4797181" id="path701" fill="#FFCC00" fill-rule="nonzero"></path>
                <path d="M70.26284,67.4797181 C71.18041,67.4797181 71.92262,66.7351015 71.92262,65.8199419 C71.92262,64.9023822 71.18041,64.1601558 70.26284,64.1601558 C69.34528,64.1601558 68.60306,64.9023822 68.60306,65.8199419 C68.60306,66.7351015 69.34528,67.4797181 70.26284,67.4797181 Z" id="path702" stroke="#000000" stroke-width="0.653343347" fill="#BCAC0B" fill-rule="nonzero"></path>
                <path d="M92.23393,71.0106464 C93.15149,71.0106464 93.8937,70.2660298 93.8937,69.3508703 C93.8937,68.4333105 93.15149,67.6910841 92.23393,67.6910841 C91.31876,67.6910841 90.57654,68.4333105 90.57654,69.3508703 C90.57654,70.2660298 91.31876,71.0106464 92.23393,71.0106464" id="path703" fill="#FFCC00" fill-rule="nonzero"></path>
                <path d="M92.23393,71.0106464 C93.15149,71.0106464 93.8937,70.2660298 93.8937,69.3508703 C93.8937,68.4333105 93.15149,67.6910841 92.23393,67.6910841 C91.31876,67.6910841 90.57654,68.4333105 90.57654,69.3508703 C90.57654,70.2660298 91.31876,71.0106464 92.23393,71.0106464 Z" id="path704" stroke="#000000" stroke-width="0.653343347" fill="#BCAC0B" fill-rule="nonzero"></path>
                <path d="M58.21441,64.9816382 L56.70596,64.9816382 C56.32884,66.4900929 53.12218,67.4340846 53.12218,67.4340846 C52.74506,66.2402839 53.56175,64.5420748 53.56175,64.5420748 C49.85306,63.5980931 49.85306,62.2769927 49.85306,62.2769927 C50.41753,61.0207472 53.81396,60.833393 53.81396,60.833393 C52.93242,59.702057 53.12218,57.8789385 53.12218,57.8789385 C55.38486,58.0062481 57.27043,60.2665299 57.27043,60.2665299 C57.27043,60.2665299 55.00775,59.1375841 55.25996,55.1118382 C55.25996,55.1118382 56.5162,55.0517936 57.27043,55.8660655 C57.27043,55.8660655 57.27043,51.530466 59.09355,51.0284479 L59.2809,51.0284479 C61.10402,51.530466 61.10402,55.8660655 61.10402,55.8660655 C61.85825,55.0517936 63.11449,55.1118382 63.11449,55.1118382 C63.3667,59.1351839 61.10402,60.2665299 61.10402,60.2665299 C61.10402,60.2665299 62.98959,58.0062481 65.25227,57.8789385 C65.25227,57.8789385 65.44203,59.6996568 64.56049,60.833393 C64.56049,60.833393 67.95692,61.0207472 68.52139,62.2769927 C68.52139,62.2769927 68.52139,63.5980931 64.8127,64.5420748 C64.8127,64.5420748 65.62939,66.2402839 65.25227,67.4340846 C65.25227,67.4340846 62.04561,66.4900929 61.66849,64.9816382 L58.21201,64.9816382" id="path705" fill="#FFCC00" fill-rule="nonzero"></path>
                <path d="M58.21441,64.9816382 L56.70596,64.9816382 C56.32884,66.4900929 53.12218,67.4340846 53.12218,67.4340846 C52.74506,66.2402839 53.56175,64.5420748 53.56175,64.5420748 C49.85306,63.5980931 49.85306,62.2769927 49.85306,62.2769927 C50.41753,61.0207472 53.81396,60.833393 53.81396,60.833393 C52.93242,59.702057 53.12218,57.8789385 53.12218,57.8789385 C55.38486,58.0062481 57.27043,60.2665299 57.27043,60.2665299 C57.27043,60.2665299 55.00775,59.1375841 55.25996,55.1118382 C55.25996,55.1118382 56.5162,55.0517936 57.27043,55.8660655 C57.27043,55.8660655 57.27043,51.530466 59.09355,51.0284479 L59.2809,51.0284479 C61.10402,51.530466 61.10402,55.8660655 61.10402,55.8660655 C61.85825,55.0517936 63.11449,55.1118382 63.11449,55.1118382 C63.3667,59.1351839 61.10402,60.2665299 61.10402,60.2665299 C61.10402,60.2665299 62.98959,58.0062481 65.25227,57.8789385 C65.25227,57.8789385 65.44203,59.6996568 64.56049,60.833393 C64.56049,60.833393 67.95692,61.0207472 68.52139,62.2769927 C68.52139,62.2769927 68.52139,63.5980931 64.8127,64.5420748 C64.8127,64.5420748 65.62939,66.2402839 65.25227,67.4340846 C65.25227,67.4340846 62.04561,66.4900929 61.66849,64.9816382 L58.21201,64.9816382 L58.21441,64.9816382 Z" id="path706" stroke="#000000" stroke-width="0.653343347" fill="#BCAC0B" fill-rule="nonzero"></path>
                <path d="M59.07193,65.8391534 C60.75093,65.8391534 62.11046,64.4796201 62.11046,62.8006225 C62.11046,61.1240351 60.75093,59.7645018 59.07193,59.7645018 C57.39534,59.7645018 56.03581,61.1240351 56.03581,62.8006225 C56.03581,64.4796201 57.39534,65.8391534 59.07193,65.8391534" id="path707" fill="#FFFFFF" fill-rule="nonzero"></path>
                <path d="M59.07193,65.8391534 C60.75093,65.8391534 62.11046,64.4796201 62.11046,62.8006225 C62.11046,61.1240351 60.75093,59.7645018 59.07193,59.7645018 C57.39534,59.7645018 56.03581,61.1240351 56.03581,62.8006225 C56.03581,64.4796201 57.39534,65.8391534 59.07193,65.8391534 Z" id="path708" stroke="#000000" stroke-width="0.5"></path>
                <path d="M59.07193,64.4604086 C59.98949,64.4604086 60.73412,63.7181922 60.73412,62.8006225 C60.73412,61.8854629 59.98949,61.1432465 59.07193,61.1432465 C58.15677,61.1432465 57.41455,61.8854629 57.41455,62.8006225 C57.41455,63.7181922 58.15677,64.4604086 59.07193,64.4604086" id="path709" fill="#FFFFFF" fill-rule="nonzero"></path>
                <path d="M59.07193,64.4604086 C59.98949,64.4604086 60.73412,63.7181922 60.73412,62.8006225 C60.73412,61.8854629 59.98949,61.1432465 59.07193,61.1432465 C58.15677,61.1432465 57.41455,61.8854629 57.41455,62.8006225 C57.41455,63.7181922 58.15677,64.4604086 59.07193,64.4604086 Z" id="path710" stroke="#000000" stroke-width="0.5"></path>
                <path d="M82.10709,66.9488777 L83.58192,67.268342 C83.62756,68.8224301 86.56761,70.4197615 86.56761,70.4197615 C87.18492,69.3316588 86.74536,67.5013397 86.74536,67.5013397 C90.56934,67.3620191 90.84556,66.0721511 90.84556,66.0721511 C90.55973,64.7222285 87.281,63.8214801 87.281,63.8214801 C88.37872,62.9015102 88.58049,61.0783916 88.58049,61.0783916 C86.34182,60.7253048 84.01909,62.5388026 84.01909,62.5388026 C84.01909,62.5388026 86.47152,61.9118949 87.07443,57.9245819 C87.07443,57.9245819 85.85662,57.6003073 84.95106,58.2368257 C84.95106,58.2368257 85.86382,53.9973035 84.18963,53.122987 L84.00468,53.0821439 C82.11671,53.1902422 81.20155,57.4297643 81.20155,57.4297643 C80.63707,56.4713615 79.39524,56.267196 79.39524,56.267196 C78.29993,60.1464208 80.27437,61.7317413 80.27437,61.7317413 C80.27437,61.7317413 78.90763,59.1207728 76.72182,58.5202772 C76.72182,58.5202772 76.15254,60.2617195 76.77466,61.5539877 C76.77466,61.5539877 73.41666,61.0231474 72.59759,62.1328717 C72.59759,62.1328717 72.32135,63.4227498 75.74661,65.1281594 C75.74661,65.1281594 74.58884,66.6150024 74.70654,67.8616371 C74.70654,67.8616371 78.04051,67.6166285 78.72749,66.2210724 L80.19991,66.5381365 L82.10709,66.9488777" id="path711" fill="#FFCC00" fill-rule="nonzero"></path>
                <path d="M82.10709,66.9488777 L83.58192,67.268342 C83.62756,68.8224301 86.56761,70.4197615 86.56761,70.4197615 C87.18492,69.3316588 86.74536,67.5013397 86.74536,67.5013397 C90.56934,67.3620191 90.84556,66.0721511 90.84556,66.0721511 C90.55973,64.7222285 87.281,63.8214801 87.281,63.8214801 C88.37872,62.9015102 88.58049,61.0783916 88.58049,61.0783916 C86.34182,60.7253048 84.01909,62.5388026 84.01909,62.5388026 C84.01909,62.5388026 86.47152,61.9118949 87.07443,57.9245819 C87.07443,57.9245819 85.85662,57.6003073 84.95106,58.2368257 C84.95106,58.2368257 85.86382,53.9973035 84.18963,53.122987 L84.00468,53.0821439 C82.11671,53.1902422 81.20155,57.4297643 81.20155,57.4297643 C80.63707,56.4713615 79.39524,56.267196 79.39524,56.267196 C78.29993,60.1464208 80.27437,61.7317413 80.27437,61.7317413 C80.27437,61.7317413 78.90763,59.1207728 76.72182,58.5202772 C76.72182,58.5202772 76.15254,60.2617195 76.77466,61.5539877 C76.77466,61.5539877 73.41666,61.0231474 72.59759,62.1328717 C72.59759,62.1328717 72.32135,63.4227498 75.74661,65.1281594 C75.74661,65.1281594 74.58884,66.6150024 74.70654,67.8616371 C74.70654,67.8616371 78.04051,67.6166285 78.72749,66.2210724 L80.19991,66.5381365 L82.10709,66.9488777" id="path712" stroke="#000000" stroke-width="0.653343347" fill="#BCAC0B" fill-rule="nonzero"></path>
                <path d="M81.08385,67.6070177 C79.44569,67.2539309 78.40322,65.6373881 78.75631,63.9968234 C79.1094,62.3586689 80.72594,61.3137995 82.36651,61.6692865 C84.00708,62.0223833 85.04955,63.6389262 84.69645,65.2794809 C84.34096,66.9176554 82.72441,67.9625248 81.08385,67.6070177" id="path713" fill="#FFFFFF" fill-rule="nonzero"></path>
                <path d="M81.08385,67.6070177 C79.44569,67.2539309 78.40322,65.6373881 78.75631,63.9968234 C79.1094,62.3586689 80.72594,61.3137995 82.36651,61.6692865 C84.00708,62.0223833 85.04955,63.6389262 84.69645,65.2794809 C84.34096,66.9176554 82.72441,67.9625248 81.08385,67.6070177 Z" id="path714" stroke="#000000" stroke-width="0.5"></path>
                <path d="M81.37689,66.2595053 C80.47854,66.0673507 79.90927,65.1834036 80.10383,64.2874655 C80.29599,63.3939276 81.17992,62.8222441 82.07587,63.0168089 C82.97182,63.2089735 83.54109,64.0953009 83.34893,64.9888488 C83.15437,65.8847969 82.27043,66.4540701 81.37689,66.2595053" id="path715" fill="#FFFFFF" fill-rule="nonzero"></path>
                <path d="M81.37689,66.2595053 C80.47854,66.0673507 79.90927,65.1834036 80.10383,64.2874655 C80.29599,63.3939276 81.17992,62.8222441 82.07587,63.0168089 C82.97182,63.2089735 83.54109,64.0953009 83.34893,64.9888488 C83.15437,65.8847969 82.27043,66.4540701 81.37689,66.2595053 Z" id="path716" stroke="#000000" stroke-width="0.5"></path>
                <path d="M35.26572,66.6534353 L33.76927,66.8504002 C33.59393,68.3972778 30.53859,69.7544109 30.53859,69.7544109 C30.00775,68.6206648 30.59384,66.8311788 30.59384,66.8311788 C26.79387,66.3844048 26.61853,65.0753153 26.61853,65.0753153 C27.01486,63.7566251 30.35363,63.1200868 30.35363,63.1200868 C29.33278,62.1160605 29.27994,60.2833412 29.27994,60.2833412 C31.54022,60.1127882 33.70922,62.1040495 33.70922,62.1040495 C33.70922,62.1040495 31.31684,61.2801669 31.0358,57.2592214 C31.0358,57.2592214 32.27523,57.031034 33.13034,57.7420281 C33.13034,57.7420281 32.55867,53.4424513 34.29531,52.7026351 L34.48267,52.6810135 C36.35623,52.9356228 36.92791,57.2375997 36.92791,57.2375997 C37.56924,56.3296507 38.82308,56.2239627 38.82308,56.2239627 C39.60373,60.1800433 37.50919,61.597231 37.50919,61.597231 C37.50919,61.597231 39.0801,59.1087619 41.30675,58.6860098 C41.30675,58.6860098 41.7343,60.4658951 41.0113,61.7029191 C41.0113,61.7029191 44.40052,61.4410992 45.12832,62.6132782 C45.12832,62.6132782 45.30127,63.9223677 41.74872,65.346746 C41.74872,65.346746 42.78397,66.9200555 42.56779,68.1546794 C42.56779,68.1546794 39.26505,67.6430605 38.69097,66.1970506 L37.19453,66.3964157 L35.26572,66.6534353" id="path717" fill="#FFCC00" fill-rule="nonzero"></path>
                <path d="M35.26572,66.6534353 L33.76927,66.8504002 C33.59393,68.3972778 30.53859,69.7544109 30.53859,69.7544109 C30.00775,68.6206648 30.59384,66.8311788 30.59384,66.8311788 C26.79387,66.3844048 26.61853,65.0753153 26.61853,65.0753153 C27.01486,63.7566251 30.35363,63.1200868 30.35363,63.1200868 C29.33278,62.1160605 29.27994,60.2833412 29.27994,60.2833412 C31.54022,60.1127882 33.70922,62.1040495 33.70922,62.1040495 C33.70922,62.1040495 31.31684,61.2801669 31.0358,57.2592214 C31.0358,57.2592214 32.27523,57.031034 33.13034,57.7420281 C33.13034,57.7420281 32.55867,53.4424513 34.29531,52.7026351 L34.48267,52.6810135 C36.35623,52.9356228 36.92791,57.2375997 36.92791,57.2375997 C37.56924,56.3296507 38.82308,56.2239627 38.82308,56.2239627 C39.60373,60.1800433 37.50919,61.597231 37.50919,61.597231 C37.50919,61.597231 39.0801,59.1087619 41.30675,58.6860098 C41.30675,58.6860098 41.7343,60.4658951 41.0113,61.7029191 C41.0113,61.7029191 44.40052,61.4410992 45.12832,62.6132782 C45.12832,62.6132782 45.30127,63.9223677 41.74872,65.346746 C41.74872,65.346746 42.78397,66.9200555 42.56779,68.1546794 C42.56779,68.1546794 39.26505,67.6430605 38.69097,66.1970506 L37.19453,66.3964157 L35.26572,66.6534353" id="path718" stroke="#000000" stroke-width="0.653343347" fill="#BCAC0B" fill-rule="nonzero"></path>
                <path d="M36.22892,67.3908413 C37.8935,67.1698545 39.06328,65.6421884 38.83989,63.9776119 C38.61891,62.3154256 37.09124,61.1456567 35.42906,61.3690437 C33.76447,61.5900205 32.5971,63.1176866 32.81809,64.7798729 C33.03907,66.4420492 34.56673,67.6118281 36.22892,67.3908413" id="path719" fill="#FFFFFF" fill-rule="nonzero"></path>
                <path d="M36.22892,67.3908413 C37.8935,67.1698545 39.06328,65.6421884 38.83989,63.9776119 C38.61891,62.3154256 37.09124,61.1456567 35.42906,61.3690437 C33.76447,61.5900205 32.5971,63.1176866 32.81809,64.7798729 C33.03907,66.4420492 34.56673,67.6118281 36.22892,67.3908413 Z" id="path720" stroke="#000000" stroke-width="0.5"></path>
                <path d="M36.04877,66.0241075 C36.95673,65.9040083 37.59566,65.070515 37.47316,64.1601558 C37.35305,63.2521968 36.51956,62.6156784 35.6116,62.7333674 C34.70125,62.8558667 34.06232,63.68937 34.18482,64.597319 C34.30492,65.5076782 35.14081,66.1442066 36.04877,66.0241075" id="path721" fill="#FFFFFF" fill-rule="nonzero"></path>
                <path d="M36.04877,66.0241075 C36.95673,65.9040083 37.59566,65.070515 37.47316,64.1601558 C37.35305,63.2521968 36.51956,62.6156784 35.6116,62.7333674 C34.70125,62.8558667 34.06232,63.68937 34.18482,64.597319 C34.30492,65.5076782 35.14081,66.1442066 36.04877,66.0241075 Z" id="path722" stroke="#000000" stroke-width="0.5"></path>
                <path d="M103.16061,73.1099959 C103.16061,73.1099959 102.39919,71.1115341 100.71778,71.8297286 C99.03638,72.5479332 99.20933,72.8097431 97.70568,72.7184762 C97.70568,72.7184762 97.11959,70.9217796 97.8594,70.1459307 C97.8594,70.1459307 95.4574,69.2475824 94.95298,67.1386321 C94.95298,67.1386321 96.24046,65.6445886 99.291,66.201861 C99.291,66.201861 99.19491,64.6861958 99.61286,64.018435 C99.61286,64.018435 102.88919,65.0320821 102.906,66.860001 C102.906,66.860001 101.92358,63.2738284 103.65303,60.6700606 C103.65303,60.6700606 105.1879,61.3282106 105.08942,62.9615647 C105.08942,62.9615647 105.79561,59.6011693 110.33778,60.504318 C110.33778,60.504318 107.87574,62.6877339 107.75324,63.6869598 C107.63074,64.6861958 105.57702,66.3892152 105.541,66.9560783 C105.50977,67.5205512 105.25996,68.5125766 104.65706,69.1058716 C104.05416,69.6991567 103.99411,70.7056032 104.04215,71.0202671 C104.08298,71.3397214 103.93886,72.716076 103.16061,73.1099959" id="path723" fill="#FFCC00" fill-rule="nonzero"></path>
                <path d="M103.16061,73.1099959 C103.16061,73.1099959 102.39919,71.1115341 100.71778,71.8297286 C99.03638,72.5479332 99.20933,72.8097431 97.70568,72.7184762 C97.70568,72.7184762 97.11959,70.9217796 97.8594,70.1459307 C97.8594,70.1459307 95.4574,69.2475824 94.95298,67.1386321 C94.95298,67.1386321 96.24046,65.6445886 99.291,66.201861 C99.291,66.201861 99.19491,64.6861958 99.61286,64.018435 C99.61286,64.018435 102.88919,65.0320821 102.906,66.860001 C102.906,66.860001 101.92358,63.2738284 103.65303,60.6700606 C103.65303,60.6700606 105.1879,61.3282106 105.08942,62.9615647 C105.08942,62.9615647 105.79561,59.6011693 110.33778,60.504318 C110.33778,60.504318 107.87574,62.6877339 107.75324,63.6869598 C107.63074,64.6861958 105.57702,66.3892152 105.541,66.9560783 C105.50977,67.5205512 105.25996,68.5125766 104.65706,69.1058716 C104.05416,69.6991567 103.99411,70.7056032 104.04215,71.0202671 C104.08298,71.3397214 103.93886,72.716076 103.16061,73.1099959 Z" id="path724" stroke="#000000" stroke-width="0.653343347" fill="#BCAC0B" fill-rule="nonzero"></path>
                <path d="M100.70097,69.1226829 C101.02283,67.4773179 102.61776,66.4012261 104.26313,66.7230906 C104.73152,66.8119573 105.14947,67.0089223 105.50496,67.2779527 C105.41369,67.847226 105.15908,68.6134642 104.65946,69.1058716 C104.05656,69.6991567 103.99651,70.7056032 104.04215,71.0202671 C104.07577,71.2700661 103.9869,72.1684144 103.57376,72.7376876 C103.41763,72.7304871 103.2591,72.716076 103.10296,72.6848436 C101.46,72.3653794 100.38391,70.7704581 100.70097,69.1226829" id="path725" fill="#FFFFFF" fill-rule="nonzero"></path>
                <path d="M100.70097,69.1226829 C101.02283,67.4773179 102.61776,66.4012261 104.26313,66.7230906 C104.73152,66.8119573 105.14947,67.0089223 105.50496,67.2779527 C105.41369,67.847226 105.15908,68.6134642 104.65946,69.1058716 C104.05656,69.6991567 103.99651,70.7056032 104.04215,71.0202671 C104.07577,71.2700661 103.9869,72.1684144 103.57376,72.7376876 C103.41763,72.7304871 103.2591,72.716076 103.10296,72.6848436 C101.46,72.3653794 100.38391,70.7704581 100.70097,69.1226829 Z" id="path726" stroke="#000000" stroke-width="0.5"></path>
                <path d="M102.05569,69.386893 C102.22864,68.4885547 103.10056,67.90007 104.00131,68.0754133 C104.40965,68.1546794 104.74834,68.3828667 104.98853,68.6903301 C104.89246,68.8392414 104.78436,68.9833623 104.65946,69.1058716 C104.05656,69.6991567 103.99651,70.7056032 104.04215,71.0202671 C104.04936,71.0851221 104.04936,71.1956005 104.03735,71.3253103 C103.82356,71.3709538 103.59538,71.3781543 103.36718,71.3325209 C102.46644,71.1571775 101.88035,70.2876515 102.05569,69.386893" id="path727" fill="#FFFFFF" fill-rule="nonzero"></path>
                <path d="M102.05569,69.386893 C102.22864,68.4885547 103.10056,67.90007 104.00131,68.0754133 C104.40965,68.1546794 104.74834,68.3828667 104.98853,68.6903301 C104.89246,68.8392414 104.78436,68.9833623 104.65946,69.1058716 C104.05656,69.6991567 103.99651,70.7056032 104.04215,71.0202671 C104.04936,71.0851221 104.04936,71.1956005 104.03735,71.3253103 C103.82356,71.3709538 103.59538,71.3781543 103.36718,71.3325209 C102.46644,71.1571775 101.88035,70.2876515 102.05569,69.386893 Z" id="path728" stroke="#000000" stroke-width="0.5"></path>
                <path d="M15.15139,72.2741024 C15.15139,72.2741024 16.03051,70.3260844 17.66387,71.1427564 C19.29963,71.9594385 19.10987,72.2116477 20.62074,72.2116477 C20.62074,72.2116477 21.31011,70.4509839 20.62074,69.6343018 C20.62074,69.6343018 23.07077,68.8800845 23.7001,66.8047568 C23.7001,66.8047568 22.50631,65.2338574 19.42454,65.6109661 C19.42454,65.6109661 19.61429,64.1001012 19.23718,63.4107388 C19.23718,63.4107388 15.90561,64.2274109 15.7783,66.0505295 C15.7783,66.0505295 16.9745,62.5292019 15.40119,59.8269565 C15.40119,59.8269565 13.83028,60.3914294 13.83028,62.0271937 C13.83028,62.0271937 13.32827,58.6307656 8.73804,59.2600834 C8.73804,59.2600834 11.06318,61.5876203 11.12803,62.5916566 C11.19049,63.5980931 13.13851,65.4212116 13.13851,65.9880747 C13.13851,66.5525476 13.32827,67.5589741 13.89273,68.1883019 C14.45961,68.8176297 14.45961,69.821666 14.39475,70.13633 C14.3323,70.4485837 14.39475,71.8321388 15.15139,72.2741024" id="path729" fill="#FFCC00" fill-rule="nonzero"></path>
                <path d="M15.15139,72.2741024 C15.15139,72.2741024 16.03051,70.3260844 17.66387,71.1427564 C19.29963,71.9594385 19.10987,72.2116477 20.62074,72.2116477 C20.62074,72.2116477 21.31011,70.4509839 20.62074,69.6343018 C20.62074,69.6343018 23.07077,68.8800845 23.7001,66.8047568 C23.7001,66.8047568 22.50631,65.2338574 19.42454,65.6109661 C19.42454,65.6109661 19.61429,64.1001012 19.23718,63.4107388 C19.23718,63.4107388 15.90561,64.2274109 15.7783,66.0505295 C15.7783,66.0505295 16.9745,62.5292019 15.40119,59.8269565 C15.40119,59.8269565 13.83028,60.3914294 13.83028,62.0271937 C13.83028,62.0271937 13.32827,58.6307656 8.73804,59.2600834 C8.73804,59.2600834 11.06318,61.5876203 11.12803,62.5916566 C11.19049,63.5980931 13.13851,65.4212116 13.13851,65.9880747 C13.13851,66.5525476 13.32827,67.5589741 13.89273,68.1883019 C14.45961,68.8176297 14.45961,69.821666 14.39475,70.13633 C14.3323,70.4485837 14.39475,71.8321388 15.15139,72.2741024 Z" id="path730" stroke="#000000" stroke-width="0.653343347" fill="#BCAC0B" fill-rule="nonzero"></path>
                <path d="M17.84162,68.4429213 C17.62064,66.7783248 16.09537,65.6109661 14.43079,65.8319528 C13.95999,65.8943976 13.53003,66.0649506 13.15772,66.3123394 C13.21537,66.886423 13.42194,67.6646721 13.89273,68.1883019 C14.45961,68.8176297 14.45961,69.821666 14.39475,70.13633 C14.34671,70.3813286 14.38034,71.2844872 14.76226,71.8753721 C14.91599,71.8777723 15.07452,71.8753721 15.23305,71.8537505 C16.89523,71.6327737 18.065,70.1051076 17.84162,68.4429213" id="path731" fill="#FFFFFF" fill-rule="nonzero"></path>
                <path d="M17.84162,68.4429213 C17.62064,66.7783248 16.09537,65.6109661 14.43079,65.8319528 C13.95999,65.8943976 13.53003,66.0649506 13.15772,66.3123394 C13.21537,66.886423 13.42194,67.6646721 13.89273,68.1883019 C14.45961,68.8176297 14.45961,69.821666 14.39475,70.13633 C14.34671,70.3813286 14.38034,71.2844872 14.76226,71.8753721 C14.91599,71.8777723 15.07452,71.8753721 15.23305,71.8537505 C16.89523,71.6327737 18.065,70.1051076 17.84162,68.4429213 Z" id="path732" stroke="#000000" stroke-width="0.5"></path>
                <path d="M16.47729,68.623065 C16.35718,67.715116 15.52129,67.0761774 14.61333,67.1962865 C14.19779,67.2539309 13.8471,67.4605066 13.59009,67.7511387 C13.67896,67.9072706 13.77504,68.0561919 13.89273,68.1883019 C14.45961,68.8176297 14.45961,69.821666 14.39475,70.13633 C14.38274,70.1987747 14.37794,70.3068729 14.38034,70.438983 C14.59172,70.4990275 14.81991,70.518249 15.0505,70.4894168 C15.95845,70.3669175 16.59739,69.5334241 16.47729,68.623065" id="path733" fill="#FFFFFF" fill-rule="nonzero"></path>
                <path d="M16.47729,68.623065 C16.35718,67.715116 15.52129,67.0761774 14.61333,67.1962865 C14.19779,67.2539309 13.8471,67.4605066 13.59009,67.7511387 C13.67896,67.9072706 13.77504,68.0561919 13.89273,68.1883019 C14.45961,68.8176297 14.45961,69.821666 14.39475,70.13633 C14.38274,70.1987747 14.37794,70.3068729 14.38034,70.438983 C14.59172,70.4990275 14.81991,70.518249 15.0505,70.4894168 C15.95845,70.3669175 16.59739,69.5334241 16.47729,68.623065 Z" id="path734" stroke="#000000" stroke-width="0.5"></path>
                <path d="M20.24122,90.6301574 C20.24122,90.6301574 53.9893,77.4095727 96.62478,90.9135989" id="path735" stroke="#000000" stroke-width="1.50845454"></path>
                <path d="M101.38314,80.1022073 C54.27274,65.1810034 16.72229,79.2639136 16.72229,79.2639136" id="path736" stroke="#000000" stroke-width="0.502017496"></path>
                <polyline id="path737" fill="#FF0000" fill-rule="nonzero" points="58.96865 76.8018665 55.19511 78.6874298 58.59153 80.8252122 62.61488 78.8123393 58.96865 76.8018665"></polyline>
                <polyline id="path738" stroke="#000000" stroke-width="0.502017496" points="58.96865 76.8018665 55.19511 78.6874298 58.59153 80.8252122 62.61488 78.8123393 58.96865 76.8018665"></polyline>
            </g>
        </g>
    </g>
</svg>