<svg width="10" height="10" viewBox="0 0 10 10" fill="none" xmlns="http://www.w3.org/2000/svg">
<rect width="10" height="10" fill="#DEE3ED"/>
<path d="M4.36328 6.25391C4.36328 5.88932 4.40755 5.59896 4.49609 5.38281C4.58464 5.16667 4.74609 4.95443 4.98047 4.74609C5.21745 4.53516 5.375 4.36458 5.45312 4.23438C5.53125 4.10156 5.57031 3.96224 5.57031 3.81641C5.57031 3.3763 5.36719 3.15625 4.96094 3.15625C4.76823 3.15625 4.61328 3.21615 4.49609 3.33594C4.38151 3.45312 4.32161 3.61589 4.31641 3.82422H3.18359C3.1888 3.32682 3.34896 2.9375 3.66406 2.65625C3.98177 2.375 4.41406 2.23438 4.96094 2.23438C5.51302 2.23438 5.94141 2.36849 6.24609 2.63672C6.55078 2.90234 6.70312 3.27865 6.70312 3.76562C6.70312 3.98698 6.65365 4.19661 6.55469 4.39453C6.45573 4.58984 6.28255 4.80729 6.03516 5.04688L5.71875 5.34766C5.52083 5.53776 5.40755 5.76042 5.37891 6.01562L5.36328 6.25391H4.36328ZM4.25 7.45312C4.25 7.27865 4.30859 7.13542 4.42578 7.02344C4.54557 6.90885 4.69792 6.85156 4.88281 6.85156C5.06771 6.85156 5.21875 6.90885 5.33594 7.02344C5.45573 7.13542 5.51562 7.27865 5.51562 7.45312C5.51562 7.625 5.45703 7.76693 5.33984 7.87891C5.22526 7.99089 5.07292 8.04688 4.88281 8.04688C4.69271 8.04688 4.53906 7.99089 4.42188 7.87891C4.30729 7.76693 4.25 7.625 4.25 7.45312Z" fill="#5E636E"/>
</svg>
