<svg width="20px" height="20px" viewBox="0 0 20 20" version="1.1" xmlns="http://www.w3.org/2000/svg">
    <g id="Symbols" stroke="none" stroke-width="1" fill="none" fill-rule="evenodd">
        <g id="Icon/blocked" fill="#3C3F49" fill-rule="nonzero">
            <path d="M6.83563412,13.8714727 C7.69756941,14.5768174 8.7993649,15 10,15 C12.7614237,15 15,12.7614237 15,10 C15,8.7993649 14.5768174,7.69756941 13.8714727,6.83563412 L6.83563412,13.8714727 Z M6.12852734,13.1643659 L13.1643659,6.12852734 C12.3024306,5.42318265 11.2006351,5 10,5 C7.23857625,5 5,7.23857625 5,10 C5,11.2006351 5.42318265,12.3024306 6.12852734,13.1643659 Z M10,16 C6.6862915,16 4,13.3137085 4,10 C4,6.6862915 6.6862915,4 10,4 C13.3137085,4 16,6.6862915 16,10 C16,13.3137085 13.3137085,16 10,16 Z" id="Combined-Shape"></path>
        </g>
    </g>
</svg>