<svg width="40" height="40" viewBox="0 0 40 40" fill="none" xmlns="http://www.w3.org/2000/svg">
<path fill-rule="evenodd" clip-rule="evenodd" d="M32 18.4141V14H23C22.4477 14 22 13.5523 22 13V4H9C8.44771 4 8 4.44772 8 5V35C8 35.5523 8.44772 36 9 36H20.5143C21.141 36.7589 21.8676 37.4322 22.6738 38H9C7.34315 38 6 36.6569 6 35V5C6 3.34315 7.34315 2 9 2H22.7574C23.553 2 24.3161 2.31607 24.8787 2.87868L33.1213 11.1213C33.6839 11.6839 34 12.447 34 13.2426V19.1994C33.3664 18.8755 32.6973 18.6113 32 18.4141ZM24 4.82843L31.1716 12H24V4.82843Z" fill="#8F96A3"/>
<path fill-rule="evenodd" clip-rule="evenodd" d="M11 9C11 8.44772 11.4477 8 12 8H18C18.5523 8 19 8.44772 19 9C19 9.55228 18.5523 10 18 10H12C11.4477 10 11 9.55228 11 9ZM11 13C11 12.4477 11.4477 12 12 12H18C18.5523 12 19 12.4477 19 13C19 13.5523 18.5523 14 18 14H12C11.4477 14 11 13.5523 11 13ZM11 17C11 16.4477 11.4477 16 12 16H28C28.5523 16 29 16.4477 29 17C29 17.5523 28.5523 18 28 18H12C11.4477 18 11 17.5523 11 17ZM11 21C11 20.4477 11.4477 20 12 20H22.6738C21.8676 20.5678 21.141 21.2411 20.5143 22H12C11.4477 22 11 21.5523 11 21ZM19.1994 24H12C11.4477 24 11 24.4477 11 25C11 25.5523 11.4477 26 12 26H18.4141C18.6113 25.3027 18.8755 24.6336 19.1994 24ZM18.0448 28H12C11.4477 28 11 28.4477 11 29C11 29.5523 11.4477 30 12 30H18.0448C18.0152 29.6706 18 29.3371 18 29C18 28.6629 18.0152 28.3294 18.0448 28Z" fill="#EEF1F6"/>
<path d="M38 29C38 33.9706 33.9706 38 29 38C24.0294 38 20 33.9706 20 29C20 24.0294 24.0294 20 29 20C33.9706 20 38 24.0294 38 29Z" fill="#45A1FC"/>
<path fill-rule="evenodd" clip-rule="evenodd" d="M25 29C25 26.7909 26.7909 25 29 25C31.2091 25 33 26.7909 33 29H32.12C31.6585 29 31.3951 29.5268 31.672 29.896L33.552 32.4027C33.776 32.7013 34.224 32.7013 34.448 32.4027L36.328 29.896C36.6049 29.5268 36.3415 29 35.88 29H35C35 25.6863 32.3137 23 29 23C25.6863 23 23 25.6863 23 29C23 32.3137 25.6863 35 29 35C29.5523 35 30 34.5523 30 34C30 33.4477 29.5523 33 29 33C26.7909 33 25 31.2091 25 29Z" fill="white"/>
</svg>
