<svg width="40" height="40" viewBox="0 0 40 40" fill="none" xmlns="http://www.w3.org/2000/svg">
<path fill-rule="evenodd" clip-rule="evenodd" d="M32 18.4141V14H23C22.4477 14 22 13.5523 22 13V4H9C8.44771 4 8 4.44772 8 5V35C8 35.5523 8.44772 36 9 36H20.5143C21.141 36.7589 21.8676 37.4322 22.6738 38H9C7.34315 38 6 36.6569 6 35V5C6 3.34315 7.34315 2 9 2H22.7574C23.553 2 24.3161 2.31607 24.8787 2.87868L33.1213 11.1213C33.6839 11.6839 34 12.447 34 13.2426V19.1994C33.3664 18.8755 32.6973 18.6113 32 18.4141ZM24 4.82843L31.1716 12H24V4.82843Z" fill="#8F96A3"/>
<path fill-rule="evenodd" clip-rule="evenodd" d="M11 9C11 8.44772 11.4477 8 12 8H18C18.5523 8 19 8.44772 19 9C19 9.55228 18.5523 10 18 10H12C11.4477 10 11 9.55228 11 9ZM11 13C11 12.4477 11.4477 12 12 12H18C18.5523 12 19 12.4477 19 13C19 13.5523 18.5523 14 18 14H12C11.4477 14 11 13.5523 11 13ZM11 17C11 16.4477 11.4477 16 12 16H28C28.5523 16 29 16.4477 29 17C29 17.5523 28.5523 18 28 18H12C11.4477 18 11 17.5523 11 17ZM11 21C11 20.4477 11.4477 20 12 20H22.6738C21.8676 20.5678 21.141 21.2411 20.5143 22H12C11.4477 22 11 21.5523 11 21ZM19.1994 24H12C11.4477 24 11 24.4477 11 25C11 25.5523 11.4477 26 12 26H18.4141C18.6113 25.3027 18.8755 24.6336 19.1994 24ZM18.0448 28H12C11.4477 28 11 28.4477 11 29C11 29.5523 11.4477 30 12 30H18.0448C18.0152 29.6706 18 29.3371 18 29C18 28.6629 18.0152 28.3294 18.0448 28Z" fill="#EEF1F6"/>
<path fill-rule="evenodd" clip-rule="evenodd" d="M36 29C36 32.866 32.866 36 29 36C25.134 36 22 32.866 22 29C22 25.134 25.134 22 29 22C32.866 22 36 25.134 36 29ZM38 29C38 33.9706 33.9706 38 29 38C24.0294 38 20 33.9706 20 29C20 24.0294 24.0294 20 29 20C33.9706 20 38 24.0294 38 29ZM31.6247 25.7809C32.056 25.4359 32.1259 24.8066 31.7809 24.3753C31.4359 23.944 30.8066 23.8741 30.3753 24.2191L25.3753 28.2191C25.1381 28.4089 25 28.6962 25 29C25 29.3038 25.1381 29.5911 25.3753 29.7809L30.3753 33.7809C30.8066 34.1259 31.4359 34.056 31.7809 33.6247C32.1259 33.1934 32.056 32.5641 31.6247 32.2191L27.6008 29L31.6247 25.7809Z" fill="#2F3237"/>
</svg>
