<svg fill="none" height="40" viewBox="0 0 40 40" width="40" xmlns="http://www.w3.org/2000/svg"><path clip-rule="evenodd" d="m32 18.4141v-4.4141h-9c-.5523 0-1-.4477-1-1v-9h-13c-.55229 0-1 .44772-1 1v30c0 .5523.44772 1 1 1h11.5143c.6267.7589 1.3533 1.4322 2.1595 2h-13.6738c-1.65685 0-3-1.3431-3-3v-30c0-1.65685 1.34315-3 3-3h13.7574c.7956 0 1.5587.31607 2.1213.87868l8.2426 8.24262c.5626.5626.8787 1.3257.8787 2.1213v5.9568c-.6336-.3239-1.3027-.5881-2-.7853zm-8-13.58567 7.1716 7.17157h-7.1716z" fill="#8f96a3" fill-rule="evenodd"/><path clip-rule="evenodd" d="m11 9c0-.55228.4477-1 1-1h6c.5523 0 1 .44772 1 1s-.4477 1-1 1h-6c-.5523 0-1-.44772-1-1zm0 4c0-.5523.4477-1 1-1h6c.5523 0 1 .4477 1 1s-.4477 1-1 1h-6c-.5523 0-1-.4477-1-1zm0 4c0-.5523.4477-1 1-1h16c.5523 0 1 .4477 1 1s-.4477 1-1 1h-16c-.5523 0-1-.4477-1-1zm0 4c0-.5523.4477-1 1-1h10.6738c-.8062.5678-1.5328 1.2411-2.1595 2h-8.5143c-.5523 0-1-.4477-1-1zm8.1994 3h-7.1994c-.5523 0-1 .4477-1 1s.4477 1 1 1h6.4141c.1972-.6973.4614-1.3664.7853-2zm-1.1546 4h-6.0448c-.5523 0-1 .4477-1 1s.4477 1 1 1h6.0448c-.0296-.3294-.0448-.6629-.0448-1s.0152-.6706.0448-1z" fill="#eef1f6" fill-rule="evenodd"/><path d="m38 29c0 4.9706-4.0294 9-9 9s-9-4.0294-9-9 4.0294-9 9-9 9 4.0294 9 9z" fill="#45a1fc"/><path d="m25 29 3 3 5-6" stroke="#fff" stroke-linecap="round" stroke-linejoin="round" stroke-width="2"/></svg>