<svg height="20" viewBox="0 0 20 20" width="20" xmlns="http://www.w3.org/2000/svg"><path d="m10.1000181 16c.0706004.3478037.1773029.6824976.3160256 1h-6.4160437c-1.1045695 0-2-.8954305-2-2v-10c0-1.1045695.8954305-2 2-2h12c1.1045695 0 2 .8954305 2 2v5.9996338c-.3077296-.2311447-.6429972-.427609-1-.5835901v-3.4160437h-14v8c0 .5522847.44771525 1 1 1zm-7.1000181-10h14v-1c0-.55228475-.4477153-1-1-1h-12c-.55228475 0-1 .44771525-1 1zm14.445374 7.2617328-4.1836412 4.1836412c.4904095.3492305 1.090352.554626 1.7382672.554626 1.6568542 0 3-1.3431458 3-3 0-.6479152-.2053955-1.2478577-.554626-1.7382672zm-.7071068-.7071068c-.4904095-.3492305-1.090352-.554626-1.7382672-.554626-1.6568542 0-3 1.3431458-3 3 0 .6479152.2053955 1.2478577.554626 1.7382672zm-1.7382672 6.445374c-2.209139 0-4-1.790861-4-4s1.790861-4 4-4 4 1.790861 4 4-1.790861 4-4 4z" fill="#3c3f49"/></svg>