<svg id="Layer_1" style="enable-background:new 0 0 74 74;" version="1.1" viewBox="0 0 74 74" xml:space="preserve" xmlns="http://www.w3.org/2000/svg"><style type="text/css">
	.st0{fill:#2B3033;}
</style><g><path class="st0" d="M69.5,29.7l-7.7-1.5c-0.3-0.9-0.7-1.7-1-2.5l4.4-6.5c1.2-1.7,0.9-4.1-0.5-5.6l-4.2-4.2   c-1.5-1.5-3.8-1.7-5.6-0.5l-6.5,4.4c-0.8-0.4-1.7-0.7-2.5-1l-1.5-7.7C43.9,2.5,42.1,1,40,1H34c-2.1,0-3.9,1.5-4.3,3.5l-1.5,7.7   c-0.9,0.3-1.7,0.7-2.5,1l-6.5-4.4c-1.7-1.2-4.1-0.9-5.5,0.5l-4.2,4.2c-1.5,1.5-1.7,3.8-0.5,5.6l4.4,6.5c-0.4,0.8-0.7,1.7-1,2.5   l-7.7,1.5C2.5,30.1,1,31.9,1,34V40c0,2.1,1.5,3.9,3.5,4.3l7.7,1.5c0.3,0.9,0.7,1.7,1,2.5l-4.4,6.5c-1.2,1.7-0.9,4.1,0.5,5.6   l4.2,4.2c1.5,1.5,3.8,1.7,5.6,0.5l6.5-4.4c0.8,0.4,1.7,0.7,2.5,1l1.5,7.7c0.4,2.1,2.2,3.5,4.3,3.5H40c2.1,0,3.9-1.5,4.3-3.5   l1.5-7.7c0.9-0.3,1.7-0.6,2.5-1l6.5,4.4c1.7,1.2,4.1,0.9,5.6-0.5l4.2-4.2c1.5-1.5,1.7-3.8,0.5-5.5l-4.4-6.5c0.4-0.8,0.7-1.7,1-2.5   l7.7-1.5c2.1-0.4,3.5-2.2,3.5-4.3V34C73,31.9,71.5,30.1,69.5,29.7z M69,40c0,0.2-0.1,0.3-0.3,0.4l-8.8,1.7   c-0.7,0.1-1.3,0.7-1.5,1.4c-0.4,1.4-1,2.8-1.7,4c-0.4,0.7-0.3,1.5,0.1,2.1l5,7.5c0.1,0.2,0.1,0.4,0,0.5l-4.2,4.2   c-0.1,0.1-0.3,0.2-0.5,0l-7.5-5c-0.6-0.4-1.4-0.5-2.1-0.1c-1.3,0.7-2.6,1.2-4,1.7c-0.7,0.2-1.2,0.8-1.4,1.5l-1.7,8.8   c0,0.2-0.2,0.3-0.4,0.3H34c-0.2,0-0.3-0.1-0.4-0.3l-1.7-8.8c-0.1-0.7-0.7-1.3-1.4-1.5c-1.4-0.4-2.7-1-4-1.7   c-0.3-0.2-0.6-0.2-0.9-0.2c-0.4,0-0.8,0.1-1.1,0.3l-7.5,5c-0.2,0.1-0.4,0.1-0.5,0l-4.2-4.2c-0.1-0.1-0.2-0.3,0-0.5l5-7.5   c0.4-0.6,0.5-1.4,0.1-2.1c-0.7-1.3-1.3-2.6-1.7-4c-0.2-0.7-0.8-1.2-1.5-1.4l-8.8-1.7C5.1,40.3,5,40.2,5,40V34   c0-0.2,0.1-0.3,0.3-0.4l8.8-1.7c0.7-0.1,1.3-0.7,1.5-1.4c0.4-1.4,1-2.8,1.7-4c0.4-0.7,0.3-1.5-0.1-2.1l-5-7.5   c-0.1-0.2-0.1-0.4,0-0.5l4.2-4.2c0.1-0.1,0.3-0.1,0.5,0l7.5,5c0.6,0.4,1.4,0.5,2.1,0.1c1.3-0.7,2.6-1.3,4-1.7   c0.7-0.2,1.2-0.8,1.4-1.5l1.7-8.8C33.7,5.1,33.8,5,34,5H40c0.2,0,0.4,0.1,0.4,0.3l1.7,8.8c0.1,0.7,0.7,1.3,1.4,1.5   c1.4,0.4,2.7,1,4,1.7c0.7,0.4,1.5,0.3,2.1-0.1l7.5-5c0.2-0.1,0.4-0.1,0.5,0.1l4.2,4.2c0.1,0.1,0.2,0.3,0.1,0.5l-5,7.5   c-0.4,0.6-0.5,1.4-0.1,2.1c0.7,1.3,1.3,2.6,1.7,4c0.2,0.7,0.8,1.2,1.5,1.4l8.8,1.7c0.2,0,0.3,0.2,0.3,0.4V40z"/><path class="st0" d="M37,24.8c-6.7,0-12.2,5.5-12.2,12.2S30.3,49.2,37,49.2S49.2,43.7,49.2,37S43.7,24.8,37,24.8z M37,45.2   c-4.5,0-8.2-3.7-8.2-8.2s3.7-8.2,8.2-8.2s8.2,3.7,8.2,8.2S41.5,45.2,37,45.2z"/></g></svg>