<?xml version="1.0" encoding="UTF-8"?>
<svg width="126px" height="93px" viewBox="0 0 126 93" version="1.1" xmlns="http://www.w3.org/2000/svg" xmlns:xlink="http://www.w3.org/1999/xlink">
    <!-- Generator: Sketch 52.6 (67491) - http://www.bohemiancoding.com/sketch -->
    <title>Logo Copy</title>
    <desc>Created with Sketch.</desc>
    <g id="Chrome-Store" stroke="none" stroke-width="1" fill="none" fill-rule="evenodd">
        <g id="ChromeStore/Small" transform="translate(-157.000000, -97.000000)">
            <g id="Logo-Copy" transform="translate(120.000000, 40.000000)">
                <path d="M56.25,57.4107143 L68.125,57.4107143 C73.0561138,57.4107143 77.0535714,61.4081719 77.0535714,66.3392857 L77.0535714,100.982143 L100.267857,100.982143 L100.267857,113.482143 L73.4821429,113.482143 C68.551029,113.482143 64.5535714,109.484685 64.5535714,104.553571 L64.5535714,69.9107143 L56.25,69.9107143 L56.25,57.4107143 Z M147.053571,66.3392857 L147.053571,75.625 L134.553571,75.625 L134.553571,69.9107143 L124.732143,69.9107143 L124.732143,113.482143 L112.232143,113.482143 L112.232143,69.9107143 L102.410714,69.9107143 L102.410714,75.625 L89.9107143,75.625 L89.9107143,66.3392857 C89.9107143,61.4081719 93.9081719,57.4107143 98.8392857,57.4107143 L138.125,57.4107143 C143.056114,57.4107143 147.053571,61.4081719 147.053571,66.3392857 Z" id="Shape" fill="#FFFFFF" fill-rule="evenodd"></path>
                <path d="M37.5,142.85716 C50,142.857143 50,130.357143 62.5,130.357143 C75,130.357143 75,142.857143 87.5,142.857143 C100,142.857143 100.04706,130.357143 112.5,130.357143 C124.95294,130.357143 125,142.857143 137.5,142.857143 C150,142.857143 150,130.357143 162.5,130.357143" id="Path-2" stroke="#FFFFFF" stroke-width="14.2857143"></path>
            </g>
        </g>
    </g>
</svg>