<?xml version="1.0" encoding="UTF-8"?>
<svg width="20px" height="20px" viewBox="0 0 20 20" version="1.1" xmlns="http://www.w3.org/2000/svg" xmlns:xlink="http://www.w3.org/1999/xlink">
    <g id="Icons" stroke="none" stroke-width="1" fill="none" fill-rule="evenodd">
        <g id="Overview" transform="translate(-240.000000, -360.000000)">
            <g id="Icon/Mute-Copy" transform="translate(220.000000, 340.000000)">
                <rect id="background" x="0" y="0" width="60" height="60"></rect>
                <g transform="translate(20.000000, 20.000000)">
                    <g id="Group-2" transform="translate(3.000000, 2.766039)" fill="#3C3F49">
                        <path d="M5.0165292,10.785199 C5.00557461,10.9333545 5,11.0830066 5,11.2339607 C5,11.4222472 5.00867286,11.6085079 5.02564089,11.7923653 L1.77913695,11.4316426 C0.766271589,11.319102 8.61533067e-14,10.4629736 8.61533067e-14,9.44387516 L8.61533067e-14,5.02404634 C8.61533067e-14,4.0049479 0.766271589,3.14881946 1.77913695,3.03627887 L9,2.23396075 L12.4855042,0.142658202 C12.9590845,-0.141489957 13.5733448,0.0120751067 13.8574929,0.485655373 C13.9507422,0.641070774 14,0.818907182 14,1.00015113 L14,6.03665392 C13.6837782,5.85372951 13.3493123,5.69883636 13,5.57537216 L13,1.00015113 L10,2.80015113 L10,5.31691919 C9.65584819,5.37465692 9.32163077,5.461692 9,5.57537216 L9,3.24011465 L4,3.79567021 L4,10.6722513 L5.0165292,10.785199 L5.0165292,10.785199 Z M3,10.5611402 L3,3.90678132 L1.88956847,4.0301626 C1.38313579,4.0864329 1,4.51449712 1,5.02404634 L1,9.44387516 C1,9.95342438 1.38313579,10.3814886 1.88956847,10.4377589 L3,10.5611402 L3,10.5611402 Z M11,15.2339607 C13.209139,15.2339607 15,13.4430997 15,11.2339607 C15,9.02482175 13.209139,7.23396075 11,7.23396075 C8.790861,7.23396075 7,9.02482175 7,11.2339607 C7,13.4430997 8.790861,15.2339607 11,15.2339607 Z M11,16.2339607 C8.23857625,16.2339607 6,13.9953845 6,11.2339607 C6,8.472537 8.23857625,6.23396075 11,6.23396075 C13.7614237,6.23396075 16,8.472537 16,11.2339607 C16,13.9953845 13.7614237,16.2339607 11,16.2339607 Z M11.7071068,11.2339607 L13.1213203,12.6481743 C13.3165825,12.8434365 13.3165825,13.1600189 13.1213203,13.3552811 C12.9260582,13.5505432 12.6094757,13.5505432 12.4142136,13.3552811 L11,11.9410675 L9.58578644,13.3552811 C9.39052429,13.5505432 9.0739418,13.5505432 8.87867966,13.3552811 C8.68341751,13.1600189 8.68341751,12.8434365 8.87867966,12.6481743 L10.2928932,11.2339607 L8.87867966,9.81974719 C8.68341751,9.62448504 8.68341751,9.30790255 8.87867966,9.11264041 C9.0739418,8.91737826 9.39052429,8.91737826 9.58578644,9.11264041 L11,10.526854 L12.4142136,9.11264041 C12.6094757,8.91737826 12.9260582,8.91737826 13.1213203,9.11264041 C13.3165825,9.30790255 13.3165825,9.62448504 13.1213203,9.81974719 L11.7071068,11.2339607 L11.7071068,11.2339607 Z" id="Shape" fill-rule="nonzero"></path>
                    </g>
                    <g id="Group" transform="translate(14.000000, 14.000000) rotate(-315.000000) translate(-14.000000, -14.000000) translate(10.500000, 11.000000)"></g>
                </g>
            </g>
        </g>
    </g>
</svg>