<svg width="819" height="300" viewBox="0 0 819 300" fill="none" xmlns="http://www.w3.org/2000/svg">
<path d="M282 18.757C244.12 4.01684 106.816 -1.43241 106.586 80.3439C66.5263 105.945 40 147.697 40 192.327C40 246.285 83.8159 290 137.889 290C191.963 290 235.779 246.264 235.779 192.327C235.783 172.523 229.757 153.185 218.498 136.878C207.24 120.571 191.282 108.065 172.74 101.018C165.654 98.2826 150.259 93.4597 137.965 94.4952C120.424 105.628 99.0348 128.514 88.9196 151.309C103.954 133.3 127.456 125.42 148.272 128.798C163.363 131.27 177.083 139.013 186.983 150.646C196.884 162.279 202.321 177.046 202.325 192.31C202.325 227.866 173.33 256.666 137.709 256.666C128.385 256.683 119.169 254.675 110.7 250.781C102.231 246.887 94.7118 241.201 88.6644 234.117C71.3037 213.715 66.8275 191.596 70.4084 169.979C82.7785 94.1904 172.816 51.0766 239.749 34.5159C217.912 46.0575 178.534 64.9983 150.971 85.6679C231.34 116.647 244.35 49.0055 282 18.757Z" fill="#47A141"/>
<path d="M562 52H591.032C603.088 52 612.861 61.7671 612.861 73.8153V158.459H669.617V189H604.13C592.074 189 582.301 179.233 582.301 167.185V82.5414H562V52ZM784 73.8153V96.5032H753.44V82.5414H729.428V189H698.867V82.5414H674.855V96.5032H644.295V73.8153C644.295 61.7671 654.068 52 666.124 52H762.171C774.227 52 784 61.7671 784 73.8153Z" fill="black"/>
<path d="M339 163.871V135.915H382.915V92H411.085V135.915H455V163.871H411.085V208H382.915V163.871H339Z" fill="#2F3237"/>
<path d="M644 228C644 221.373 649.373 216 656 216H807C813.627 216 819 221.373 819 228V288C819 294.627 813.627 300 807 300H656C649.373 300 644 294.627 644 288V228Z" fill="#1976F0"/>
<path d="M668.62 279V239.88H682C684.04 239.88 685.92 240.04 687.64 240.36C689.4 240.64 690.92 241.16 692.2 241.92C693.52 242.68 694.54 243.68 695.26 244.92C696.02 246.16 696.4 247.72 696.4 249.6C696.4 250.48 696.28 251.36 696.04 252.24C695.8 253.12 695.46 253.94 695.02 254.7C694.58 255.46 694.04 256.14 693.4 256.74C692.8 257.34 692.1 257.78 691.3 258.06V258.3C692.3 258.54 693.22 258.92 694.06 259.44C694.9 259.92 695.64 260.54 696.28 261.3C696.92 262.06 697.42 262.96 697.78 264C698.14 265 698.32 266.16 698.32 267.48C698.32 269.48 697.92 271.2 697.12 272.64C696.36 274.08 695.28 275.28 693.88 276.24C692.52 277.16 690.92 277.86 689.08 278.34C687.24 278.78 685.26 279 683.14 279H668.62ZM677.44 255.54H681.58C683.74 255.54 685.3 255.12 686.26 254.28C687.26 253.44 687.76 252.32 687.76 250.92C687.76 249.4 687.26 248.32 686.26 247.68C685.26 247.04 683.72 246.72 681.64 246.72H677.44V255.54ZM677.44 272.16H682.42C687.26 272.16 689.68 270.4 689.68 266.88C689.68 265.16 689.08 263.94 687.88 263.22C686.68 262.46 684.86 262.08 682.42 262.08H677.44V272.16ZM704.948 279V239.88H729.428V247.32H713.768V255.18H727.088V262.56H713.768V271.56H730.028V279H704.948ZM745.439 279V247.32H734.699V239.88H765.059V247.32H754.319V279H745.439ZM777.937 259.2L776.977 262.8H785.317L784.417 259.2C783.857 257.24 783.317 255.16 782.797 252.96C782.277 250.76 781.757 248.64 781.237 246.6H780.997C780.517 248.68 780.017 250.82 779.497 253.02C779.017 255.18 778.497 257.24 777.937 259.2ZM763.777 279L776.017 239.88H786.637L798.877 279H789.517L787.117 269.7H775.177L772.777 279H763.777Z" fill="white"/>
<path fill-rule="evenodd" clip-rule="evenodd" d="M624 237.418C623.072 236.538 622.006 235.496 620.744 234.243C617.623 231.145 616.156 229.733 614.102 227.934C611.124 225.324 608.177 223.12 604.97 221.21C597.02 216.474 588.122 214 577.849 214C566.785 214 556.085 217.718 546.016 224.717C536.957 231.013 528.347 239.99 520 251.592L548.411 271.742V271.741C554.613 263.121 560.55 256.931 566.038 253.117C570.517 250.004 574.365 248.667 577.849 248.667C581.76 248.667 584.454 249.416 587.006 250.936C589.359 252.338 591.325 254.06 596.055 258.757C599.176 261.855 600.643 263.267 602.697 265.066C605.675 267.676 608.621 269.88 611.829 271.79C615.651 274.067 619.692 275.821 624 277.029V237.418Z" fill="#45A1FC"/>
</svg>
