<?xml version="1.0" encoding="UTF-8"?>
<svg width="20px" height="20px" viewBox="0 0 20 20" version="1.1" xmlns="http://www.w3.org/2000/svg" xmlns:xlink="http://www.w3.org/1999/xlink">
    <!-- Generator: Sketch 55.1 (78136) - https://sketchapp.com -->
    <title>Icon/add</title>
    <desc>Created with Sketch.</desc>
    <g id="Icons" stroke="none" stroke-width="1" fill="none" fill-rule="evenodd">
        <g id="Overview" transform="translate(-210.000000, -140.000000)">
            <g id="Icon/add" transform="translate(190.000000, 120.000000)">
                <rect id="background" x="0" y="0" width="60" height="60"></rect>
                <g transform="translate(20.000000, 20.000000)" fill="#3C3F49" fill-rule="nonzero" id="Combined-Shape">
                    <path d="M10,3 C13.8659932,3 17,6.13400675 17,10 C17,13.8659932 13.8659932,17 10,17 C6.13400675,17 3,13.8659932 3,10 C3,6.13400675 6.13400675,3 10,3 Z M10,4 C6.6862915,4 4,6.6862915 4,10 C4,13.3137085 6.6862915,16 10,16 C13.3137085,16 16,13.3137085 16,10 C16,6.6862915 13.3137085,4 10,4 Z M10.5,9.5 L13.4980464,9.5 C13.7745484,9.5 13.9986976,9.72414918 13.9986976,10.0006512 C13.9986976,10.2771532 13.7745484,10.5013024 13.4980464,10.5013024 L10.5,10.5013024 L10.5,13.5001831 C10.5,13.7763255 10.2761424,14.0001831 10,14.0001831 C9.72385763,14.0001831 9.5,13.7763255 9.5,13.5001831 L9.5,10.5013024 L6.4993488,10.5013024 C6.22284678,10.5013024 5.9986976,10.2771532 5.9986976,10.0006512 C5.9986976,9.72414918 6.22284678,9.5 6.4993488,9.5 L9.5,9.5 L9.5,6.49981689 C9.5,6.22367452 9.72385763,5.99981689 10,5.99981689 C10.2761424,5.99981689 10.5,6.22367452 10.5,6.49981689 L10.5,9.5 Z"></path>
                </g>
            </g>
        </g>
    </g>
</svg>