<?xml version="1.0" encoding="UTF-8"?>
<svg width="20px" height="20px" viewBox="0 0 20 20" version="1.1" xmlns="http://www.w3.org/2000/svg" xmlns:xlink="http://www.w3.org/1999/xlink">
    <!-- Generator: Sketch 53.2 (72643) - https://sketchapp.com -->
    <title>Icons/star</title>
    <desc>Created with Sketch.</desc>
    <g id="Logo" stroke="none" stroke-width="1" fill="none" fill-rule="evenodd">
        <g id="Icon/translate-Copy-6" fill="#3C3F49" fill-rule="nonzero">
            <path d="M4.82984259,18.1161112 L10,15.4798066 L15.1701574,18.1161112 L14.2605492,12.3843364 L18.3654904,8.2818874 L12.6331642,7.37576034 L10,2.20400285 L7.36683576,7.37576034 L1.63450959,8.2818874 L5.73945075,12.3843364 L4.82984259,18.1161112 Z M10,16.6023065 L5.28410363,19.0069798 C4.79209047,19.2578613 4.18985541,19.0623854 3.93897397,18.5703722 C3.84294919,18.3820544 3.80907023,18.168151 3.8422018,17.9593768 L4.67188985,12.7312079 L0.927617555,8.98920886 C0.536974698,8.59880317 0.536782436,7.96563822 0.927188126,7.57499536 C1.07661575,7.42547696 1.26958076,7.32715638 1.47837505,7.2941516 L6.70704683,6.4676388 L9.10885566,1.75028292 C9.35943826,1.2581175 9.96155449,1.06227591 10.4537199,1.31285851 C10.642096,1.4087689 10.7952339,1.5619068 10.8911443,1.75028292 L13.2929532,6.4676388 L18.521625,7.2941516 C19.0671364,7.38038233 19.4394569,7.89251052 19.3532262,8.43802194 C19.3202214,8.64681622 19.2219008,8.83978123 19.0723824,8.98920886 L15.3281101,12.7312079 L16.1577982,17.9593768 C16.2443602,18.5048358 15.8723507,19.01719 15.3268918,19.103752 C15.1181176,19.1368835 14.9042142,19.1030046 14.7158964,19.0069798 L10,16.6023065 Z" id="Star"></path>
        </g>
    </g>
</svg>