<svg width="18px" height="18px" viewBox="0 0 18 18" version="1.1" xmlns="http://www.w3.org/2000/svg">
    <g id="Page-1" stroke="none" stroke-width="1" fill="none" fill-rule="evenodd">
        <g id="text_too_long" fill-rule="nonzero">
            <path d="M9,18 C4.029437,18 0,13.9705627 0,9 C0,4.0294373 4.029437,0 9,0 C13.970563,0 18,4.0294373 18,9 C18,13.9705627 13.970563,18 9,18 Z" id="Shape-path" fill="#F5A623"></path>
            <path d="M10,6.4142136 L11.292893,7.7071068 C11.683418,8.0976311 12.316582,8.0976311 12.707107,7.7071068 C13.097631,7.3165825 13.097631,6.6834175 12.707107,6.2928932 L9.848528,3.4343146 C9.379899,2.9656854 8.620101,2.9656854 8.151472,3.4343146 L5.292893,6.2928932 C4.902369,6.6834175 4.902369,7.3165825 5.292893,7.7071068 C5.683418,8.0976311 6.316582,8.0976311 6.707107,7.7071068 L8,6.4142136 L8,14 C8,14.5522847 8.447715,15 9,15 C9.552285,15 10,14.5522847 10,14 L10,6.4142136 Z" id="Shape-path" fill="#FFFFFF"></path>
        </g>
    </g>
</svg>