<?xml version="1.0" encoding="UTF-8"?>
<svg width="20px" height="20px" viewBox="0 0 20 20" version="1.1" xmlns="http://www.w3.org/2000/svg">
    <g id="Icons" stroke="none" stroke-width="1" fill="none" fill-rule="evenodd">
        <g id="Icon/NotSupported" fill="#F91A47">
            <path d="M17.8811633,8.61854135 C17.4388003,6.07725136 15.7972566,3.94769317 13.5608941,2.83422852 C14.2500943,4.21325727 14.7190266,6.00455054 14.9073601,8.00060047 C14.2179096,8.00954285 13.5524978,8.11815944 12.9248749,8.3127001 C12.5966784,4.66746471 11.2492696,2 10,2 C8.67345148,2 7.23624646,5.00768706 7.02618388,9 L11.3924134,9 C10.5469107,9.50946377 9.81787504,10.1925914 9.25468928,11 L7.02618388,11 C7.12898634,12.9537967 7.52569217,14.6717733 8.05949806,15.916807 C8.26761237,17.5077267 9.00993684,18.9306125 10.1005125,19.9995053 C10.0670474,20 10.033543,20 10,20 C4.4771525,20 0,15.5228475 0,10 C0,4.4771525 4.4771525,0 10,0 C15.5228475,0 20,4.4771525 20,10 C20,10.033543 20,10.0670474 19.9995053,10.1005125 C19.3953032,9.48405398 18.6779938,8.97886818 17.8811633,8.61854135 L17.8811633,8.61854135 Z M5.02280699,11 L2.06189375,11 C2.39967631,13.7087998 4.09171878,15.9970287 6.43910594,17.1657715 C5.63668298,15.560194 5.13284437,13.3957709 5.02280699,11 L5.02280699,11 Z M5.02280699,9 C5.13284437,6.60422908 5.63668298,4.439806 6.43910594,2.83422852 C4.09171878,4.0029713 2.39967631,6.2912002 2.06189375,9 L5.02280699,9 Z M16.4142136,15 L17.8284271,16.4142136 C18.2189514,16.8047379 18.2189514,17.4379028 17.8284271,17.8284271 C17.4379028,18.2189514 16.8047379,18.2189514 16.4142136,17.8284271 L15,16.4142136 L13.5857864,17.8284271 C13.1952621,18.2189514 12.5620972,18.2189514 12.1715729,17.8284271 C11.7810486,17.4379028 11.7810486,16.8047379 12.1715729,16.4142136 L13.5857864,15 L12.1715729,13.5857864 C11.7810486,13.1952621 11.7810486,12.5620972 12.1715729,12.1715729 C12.5620972,11.7810486 13.1952621,11.7810486 13.5857864,12.1715729 L15,13.5857864 L16.4142136,12.1715729 C16.8047379,11.7810486 17.4379028,11.7810486 17.8284271,12.1715729 C18.2189514,12.5620972 18.2189514,13.1952621 17.8284271,13.5857864 L16.4142136,15 Z" id="Shape"></path>
        </g>
    </g>
</svg>