<svg width="240px" height="98px" viewBox="0 0 240 98" version="1.1" xmlns="http://www.w3.org/2000/svg">
    <g id="Symbols" stroke="none" stroke-width="1" fill="none" fill-rule="evenodd">
        <g id="Rectangle">
            <path d="M175.414065,86 C175.231759,86.6445647 175.106736,87.3131805 175.044843,88 L1,88 C0.44771525,88 6.76353751e-17,87.5522847 0,87 C-6.76353751e-17,86.4477153 0.44771525,86 1,86 L48,86 L48,8 C48,3.581722 51.581722,8.11624501e-16 56,0 L160,0 C164.418278,-8.11624501e-16 168,3.581722 168,8 L168,86 L175.414065,86 Z M196.585935,86 L239,86 C239.552285,86 240,86.4477153 240,87 C240,87.5522847 239.552285,88 239,88 L196.955157,88 C196.893264,87.3131805 196.768241,86.6445647 196.585935,86 Z M50,84 L166,84 L166,8 C166,4.6862915 163.313708,2 160,2 L56,2 C52.6862915,2 50,4.6862915 50,8 L50,84 Z M59,11 L59,71 L157,71 L157,11 L59,11 Z M57,9 L159,9 L159,73 L57,73 L57,9 Z" id="Shape" fill="#DBDDE5"></path>
            <path d="M116,78 L179,78 C179,83.5228475 174.522847,88 169,88 L47,88 C41.4771525,88 37,83.5228475 37,78 L100,78 L100,79 C100,80.1045695 100.895431,81 102,81 L114,81 C115.104569,81 116,80.1045695 116,79 L116,78 Z" id="Path" fill="#FFFFFF" fill-rule="nonzero"></path>
            <path d="M116,78 L179,78 C179,83.5228475 174.522847,88 169,88 L47,88 C41.4771525,88 37,83.5228475 37,78 L100,78 L100,79 C100,80.1045695 100.895431,81 102,81 L114,81 C115.104569,81 116,80.1045695 116,79 L116,78 Z M98.1260175,80 L39.252035,80 C40.1401206,83.4504544 43.2723211,86 47,86 L169,86 C172.727679,86 175.859879,83.4504544 176.747965,80 L117.873983,80 C117.42994,81.7252272 115.863839,83 114,83 L102,83 C100.136161,83 98.5700603,81.7252272 98.1260175,80 Z" id="Shape" fill="#DBDDE5" fill-rule="nonzero"></path>
            <rect fill="#FFFFFF" x="134" y="24" width="58" height="72"></rect>
            <path d="M176.19942,94.0000011 C176.565212,94.7155641 177.007068,95.3857849 177.514324,96 L136,96 C134.895431,96 134,95.1045695 134,94 L134,26 C134,24.8954305 134.895431,24 136,24 L176,24 L191.39159,38.9106032 C191.780475,39.2873356 192,39.8056422 192,40.3470837 L192,79.7789307 C191.374494,79.3710918 190.704929,79.025176 190,78.7498806 L190,41 L175,41 L175,26 L136,26 L136,94 L176.199415,94 Z M188.609462,39 L177,27.7533337 L177,39 L188.609462,39 Z" id="Combined-Shape" fill="#45A8FC" fill-rule="nonzero"></path>
            <path d="M144,51 L182,51 C182.552285,51 183,51.4477153 183,52 C183,52.5522847 182.552285,53 182,53 L144,53 C143.447715,53 143,52.5522847 143,52 C143,51.4477153 143.447715,51 144,51 Z M144,57 L182,57 C182.552285,57 183,57.4477153 183,58 C183,58.5522847 182.552285,59 182,59 L144,59 C143.447715,59 143,58.5522847 143,58 C143,57.4477153 143.447715,57 144,57 Z M144,63 L182,63 C182.552285,63 183,63.4477153 183,64 C183,64.5522847 182.552285,65 182,65 L144,65 C143.447715,65 143,64.5522847 143,64 C143,63.4477153 143.447715,63 144,63 Z M144,69 L163,69 C163.552285,69 164,69.4477153 164,70 C164,70.5522847 163.552285,71 163,71 L144,71 C143.447715,71 143,70.5522847 143,70 C143,69.4477153 143.447715,69 144,69 Z" id="Combined-Shape" fill="#45A8FC"></path>
            <path d="M186,98 C181.029437,98 177,93.9705627 177,89 C177,84.0294373 181.029437,80 186,80 C190.970563,80 195,84.0294373 195,89 C195,93.9705627 190.970563,98 186,98 Z M189.207376,85.3902892 L184.841369,91.0660989 L182.640184,89.2317787 C182.215908,88.8782146 181.585343,88.9355387 181.231779,89.3598156 C180.878215,89.7840925 180.935539,90.4146572 181.359816,90.7682213 L185.158631,93.9339011 L190.792624,86.6097108 C191.129358,86.1719566 191.047465,85.54411 190.609711,85.207376 C190.171957,84.8706421 189.54411,84.9525351 189.207376,85.3902892 Z" id="Combined-Shape" fill="#45A8FC" fill-rule="nonzero"></path>
            <path d="M108,53 C114.627417,53 120,47.627417 120,41 C120,34.372583 114.627417,29 108,29 C101.372583,29 96,34.372583 96,41 C96,47.627417 101.372583,53 108,53 Z M108,55 C100.268014,55 94,48.7319865 94,41 C94,33.2680135 100.268014,27 108,27 C115.731986,27 122,33.2680135 122,41 C122,48.7319865 115.731986,55 108,55 Z" id="Oval-2" fill="#1575C6" fill-rule="nonzero"></path>
            <path d="M98,41 C98.8452751,41 99.0843574,41.1793117 99.6679497,42.0547002 C100.584357,43.4293117 101.345275,44 103,44 C104.654725,44 105.415643,43.4293117 106.33205,42.0547002 C106.915643,41.1793117 107.154725,41 108,41 C108.845275,41 109.084357,41.1793117 109.66795,42.0547002 C110.584357,43.4293117 111.345275,44 113,44 C114.654725,44 115.415643,43.4293117 116.33205,42.0547002 C116.915643,41.1793117 117.154725,41 118,41 C118,46.5228475 113.522847,51 108,51 C102.477153,51 98,46.5228475 98,41 Z M98.1994471,39.0029045 C99.1248651,34.4369769 103.161058,31 108,31 C112.838942,31 116.875135,34.4369769 117.800553,39.0029045 C116.282505,39.0482371 115.546717,39.627149 114.66795,40.9452998 C114.084357,41.8206883 113.845275,42 113,42 C112.154725,42 111.915643,41.8206883 111.33205,40.9452998 C110.415643,39.5706883 109.654725,39 108,39 C106.345275,39 105.584357,39.5706883 104.66795,40.9452998 C104.084357,41.8206883 103.845275,42 103,42 C102.154725,42 101.915643,41.8206883 101.33205,40.9452998 C100.453283,39.627149 99.717495,39.0482371 98.1994471,39.0029045 Z" id="Shape" fill="#45A8FC"></path>
        </g>
    </g>
</svg>