<?xml version="1.0" encoding="UTF-8"?>
<svg width="22px" height="20px" viewBox="0 0 22 20" version="1.1" xmlns="http://www.w3.org/2000/svg" xmlns:xlink="http://www.w3.org/1999/xlink">
    <!-- Generator: Sketch 52.6 (67491) - http://www.bohemiancoding.com/sketch -->
    <title>upgrade_check</title>
    <desc>Created with Sketch.</desc>
    <g id="Icons" stroke="none" stroke-width="1" fill="none" fill-rule="evenodd">
        <g id="Icon/add-Copy-2" fill="#20E197">
            <path d="M10,3 C13.8659932,3 17,6.13400675 17,10 C17,13.8659932 13.8659932,17 10,17 C6.13400675,17 3,13.8659932 3,10 C3,6.13400675 6.13400675,3 10,3 Z M12.2525907,7.33563616 L8.89031475,11.1181966 L7.63323779,10.0896791 C7.20579298,9.73995149 6.57577028,9.80295376 6.2260427,10.2303986 C5.87631513,10.6578434 5.9393174,11.2878661 6.36676221,11.6375937 L9.10968525,13.8818034 L13.7474093,8.66436384 C14.1143273,8.25158107 14.0771466,7.6195087 13.6643638,7.25259068 C13.2515811,6.88567266 12.6195087,6.92285339 12.2525907,7.33563616 Z" id="Combined-Shape"></path>
        </g>
    </g>
</svg>