<?xml version="1.0" encoding="UTF-8"?>
<svg width="35px" height="32px" viewBox="0 0 35 32" version="1.1" xmlns="http://www.w3.org/2000/svg" xmlns:xlink="http://www.w3.org/1999/xlink">
    <!-- Generator: Sketch 52.6 (67491) - http://www.bohemiancoding.com/sketch -->
    <title>Group</title>
    <desc>Created with Sketch.</desc>
    <g id="Page-1" stroke="none" stroke-width="1" fill="none" fill-rule="evenodd">
        <g id="Group" fill-rule="nonzero">
            <g id="validator_has_errors" fill="#E8EFF2">
                <path d="M16.692852,12 C15.9770038,12.5953219 15.3260944,13.2660525 14.7523156,14 L1,14 C0.44771525,14 0,13.5522847 0,13 C0,12.4477153 0.44771525,12 1,12 L16.692852,12 Z M12.6269988,18 C12.4183028,18.6460265 12.2587971,19.3141648 12.1528964,20 L1,20 C0.44771525,20 0,19.5522847 0,19 C0,18.4477153 0.44771525,18 1,18 L12.6269988,18 Z M12.1528964,24 C12.2587971,24.6858352 12.4183028,25.3539735 12.6269988,26 L1,26 C0.44771525,26 0,25.5522847 0,25 C0,24.4477153 0.44771525,24 1,24 L12.1528964,24 Z M1,0 L33,0 C33.5522847,0 34,0.44771525 34,1 C34,1.55228475 33.5522847,2 33,2 L1,2 C0.44771525,2 0,1.55228475 0,1 C0,0.44771525 0.44771525,0 1,0 Z M1,6 L33,6 C33.5522847,6 34,6.4477153 34,7 C34,7.5522847 33.5522847,8 33,8 L1,8 C0.44771525,8 0,7.5522847 0,7 C0,6.4477153 0.44771525,6 1,6 Z" id="Shape"></path>
            </g>
            <path d="M25,32 C19.4771522,32 15,27.5228474 15,22 C15,16.4771526 19.4771522,12 25,12 C30.5228478,12 35,16.4771526 35,22 C35,27.5228474 30.5228478,32 25,32 Z M26.625,19.6340732 L28.0795046,21.0444441 C28.5188453,21.470453 29.2311547,21.470453 29.6704954,21.0444441 C30.1098349,20.6184351 30.1098349,19.9277381 29.6704954,19.5017291 L26.454594,16.3834081 C25.9273864,15.8721973 25.0726136,15.8721973 24.545406,16.3834081 L21.3295046,19.5017291 C20.8901651,19.9277381 20.8901651,20.6184351 21.3295046,21.0444441 C21.7688453,21.470453 22.4811547,21.470453 22.9204954,21.0444441 L24.375,19.6340732 L24.375,27.9091358 C24.375,28.5116034 24.8786794,29 25.5,29 C26.1213206,29 26.625,28.5116034 26.625,27.9091358 L26.625,19.6340732 Z" id="Shape" fill="#F5A623"></path>
        </g>
    </g>
</svg>