<svg fill="none" height="20" viewBox="0 0 21 20" width="21" xmlns="http://www.w3.org/2000/svg"><path clip-rule="evenodd" d="m8.91895 5v-1c0-.55228.44771-1 1-1h1.99995c.5523 0 1 .44772 1 1v1h4v1h-11.99995v-1zm1 0h1.99995v-1h-1.99995zm-3 10.3333v-8.3333h-1v8.3333c0 .9205.74619 1.6667 1.66666 1.6667h6.66669c.9205 0 1.6666-.7462 1.6666-1.6667v-8.3333h-1v8.3333c0 .3682-.2984.6667-.6666.6667h-6.66669c-.36819 0-.66666-.2985-.66666-.6667zm2-8.3333h1v8h-1zm3.99995 0h-1v8h1z" fill="#2f3237" fill-rule="evenodd"/></svg>