<svg fill="none" height="20" viewBox="0 0 20 20" width="20" xmlns="http://www.w3.org/2000/svg"><path clip-rule="evenodd" d="m10 20c5.5228 0 10-4.4772 10-10 0-5.52285-4.4772-10-10-10-5.52285 0-10 4.47715-10 10 0 5.5228 4.47715 10 10 10zm-2.82845-6.4645 2.82842-2.8284 2.82843 2.8284c.1953.1953.5118.1953.7071 0 .1953-.1952.1953-.5118 0-.7071l-2.8284-2.8284 2.8284-2.82842c.1953-.19526.1953-.51185 0-.70711s-.5118-.19526-.7071 0l-2.82843 2.82843-2.82842-2.82843c-.19527-.19526-.51185-.19526-.70711 0s-.19526.51185 0 .70711l2.82843 2.82842-2.82843 2.8284c-.19526.1953-.19526.5119 0 .7071.19526.1953.51184.1953.70711 0z" fill="#c2c9d6" fill-rule="evenodd"/></svg>