<svg width="20" height="20" viewBox="0 0 20 20" fill="none" xmlns="http://www.w3.org/2000/svg">
<path d="M7.31235 13.6096L7.17539 13.5H7H4C3.17157 13.5 2.5 12.8284 2.5 12V8C2.5 7.17157 3.17157 6.5 4 6.5H7H7.17539L7.31235 6.39043L10.6877 3.69019C11.015 3.42829 11.5 3.66137 11.5 4.08062V15.9194C11.5 16.3386 11.015 16.5717 10.6877 16.3098L7.31235 13.6096Z" stroke="black"/>
<path d="M15.6842 5.26398C17.0935 6.36189 18 8.07509 18 10C18 11.9249 17.0935 13.6381 15.6842 14.736" stroke="black" stroke-linecap="round"/>
<path d="M13.8584 7.64471C14.5537 8.19413 15 9.04494 15 9.99997C15 10.955 14.5537 11.8058 13.8584 12.3552" stroke="black" stroke-linecap="round"/>
</svg>
