<svg width="20" height="20" viewBox="0 0 20 20" fill="none" xmlns="http://www.w3.org/2000/svg">
<path d="M18 2L18.4885 2.10685C18.5296 1.91871 18.459 1.72366 18.3071 1.60539C18.1551 1.48712 17.9486 1.46666 17.7764 1.55279L18 2ZM14.5 18L14.2226 18.416C14.3601 18.5077 14.534 18.5255 14.6872 18.4636C14.8404 18.4018 14.9531 18.2682 14.9885 18.1068L14.5 18ZM1 10.5L0.776393 10.0528C0.601441 10.1403 0.493563 10.3217 0.500296 10.5172C0.507029 10.7127 0.627136 10.8863 0.807692 10.9615L1 10.5ZM8 16.5L7.51924 16.6374C7.56445 16.7956 7.68461 16.9214 7.84058 16.9739C7.99655 17.0264 8.16835 16.9987 8.3 16.9L8 16.5ZM17.6464 1.64645L6.64645 12.6464L7.35355 13.3536L18.3536 2.35355L17.6464 1.64645ZM6.72265 13.416L14.2226 18.416L14.7774 17.584L7.27735 12.584L6.72265 13.416ZM14.9885 18.1068L18.4885 2.10685L17.5115 1.89315L14.0115 17.8932L14.9885 18.1068ZM17.7764 1.55279L0.776393 10.0528L1.22361 10.9472L18.2236 2.44721L17.7764 1.55279ZM0.807692 10.9615L6.80769 13.4615L7.19231 12.5385L1.19231 10.0385L0.807692 10.9615ZM9.7 14.6L7.7 16.1L8.3 16.9L10.3 15.4L9.7 14.6ZM8.48076 16.3626L7.48076 12.8626L6.51924 13.1374L7.51924 16.6374L8.48076 16.3626Z" fill="#2F3237"/>
</svg>
