<svg width="20" height="20" viewBox="0 0 20 20" fill="none" xmlns="http://www.w3.org/2000/svg">
<path fill-rule="evenodd" clip-rule="evenodd" d="M10 3C6.13401 3 3 6.13401 3 10C3 13.866 6.13401 17 10 17C13.866 17 17 13.866 17 10C17 6.13401 13.866 3 10 3ZM13.6644 7.25259C13.2516 6.88567 12.6195 6.92285 12.2526 7.33564L8.89032 11.1182L7.63324 10.0897C7.20579 9.73995 6.57577 9.80295 6.22604 10.2304C5.87632 10.6578 5.93932 11.2879 6.36676 11.6376L9.10969 13.8818L13.7474 8.66436C14.1143 8.25158 14.0771 7.61951 13.6644 7.25259Z" fill="#45A1FC"/>
</svg>
