<svg fill="none" height="20" viewBox="0 0 20 20" width="20" xmlns="http://www.w3.org/2000/svg"><path clip-rule="evenodd" d="m18 10c0 4.4183-3.5817 8-8 8-4.41828 0-8-3.5817-8-8 0-4.41828 3.58172-8 8-8 4.4183 0 8 3.58172 8 8zm1 0c0 4.9706-4.0294 9-9 9-4.97056 0-9-4.0294-9-9 0-4.97056 4.02944-9 9-9 4.9706 0 9 4.02944 9 9zm-9-5c-.27614 0-.5.22386-.5.5v3c0 .27614.22386.5.5.5.2761 0 .5-.22386.5-.5v-3c0-.27614-.2239-.5-.5-.5zm-2.82843 1.46444c-.19526-.19526-.51184-.19526-.7071 0-1.95263 1.95262-1.95263 5.11846 0 7.07106 1.95262 1.9526 5.11843 1.9526 7.07103 0 1.9527-1.9526 1.9527-5.11844 0-7.07106l-.0692-.05786c-.1949-.13499-.4643-.11571-.6379.05786-.1952.19526-.1952.51184 0 .70711 1.5621 1.56209 1.5621 4.09475 0 5.65685s-4.09473 1.5621-5.65683 0c-1.56209-1.5621-1.56209-4.09476 0-5.65685l.05786-.06925c.13499-.19487.11571-.46429-.05786-.63786z" fill="#2f3237" fill-rule="evenodd"/></svg>