<svg width="20" height="20" viewBox="0 0 20 20" fill="none" xmlns="http://www.w3.org/2000/svg">
<path fill-rule="evenodd" clip-rule="evenodd" d="M5 13C6.65685 13 8 11.6569 8 10C8 8.34315 6.65685 7 5 7C3.34315 7 2 8.34315 2 10C2 11.6569 3.34315 13 5 13ZM0 9H1.12602C1.57006 7.27477 3.13616 6 5 6C6.67081 6 8.10235 7.0244 8.70083 8.47938C9.05032 8.1805 9.50408 8 10 8C10.4959 8 10.9497 8.1805 11.2992 8.47938C11.8976 7.0244 13.3292 6 15 6C16.8638 6 18.4299 7.27477 18.874 9H20V10H19C19 12.2091 17.2091 14 15 14C12.7909 14 11 12.2091 11 10C11 9.44772 10.5523 9 10 9C9.44772 9 9 9.44772 9 10C9 12.2091 7.20914 14 5 14C2.79086 14 1 12.2091 1 10H0V9ZM18 10C18 8.34315 16.6569 7 15 7C13.3431 7 12 8.34315 12 10C12 11.6569 13.3431 13 15 13C16.6569 13 18 11.6569 18 10Z" fill="white"/>
</svg>
