<?xml version="1.0" encoding="UTF-8"?>
<svg width="16px" height="16px" viewBox="0 0 16 16" version="1.1" xmlns="http://www.w3.org/2000/svg" xmlns:xlink="http://www.w3.org/1999/xlink">
    <!-- Generator: Sketch 52.2 (67145) - http://www.bohemiancoding.com/sketch -->
    <title>Slice</title>
    <desc>Created with Sketch.</desc>
    <g id="Page-1" stroke="none" stroke-width="1" fill="none" fill-rule="evenodd">
        <g id="2" transform="translate(4.000000, 3.000000)" fill="#F91A47">
            <path d="M0.822,8.824 C1.39133618,8.2919973 1.91166431,7.7950023 2.383,7.333 C2.85433569,6.8709977 3.26033163,6.437002 3.601,6.031 C3.94166837,5.624998 4.2076657,5.2470018 4.399,4.897 C4.5903343,4.54699825 4.686,4.21333492 4.686,3.896 C4.686,3.45733114 4.5740011,3.12366781 4.35,2.895 C4.1259989,2.66633219 3.81800196,2.552 3.426,2.552 C3.0993317,2.552 2.81000126,2.64299909 2.558,2.825 C2.30599874,3.00700091 2.06800112,3.21933212 1.844,3.462 L0.724,2.356 C1.16266886,1.889331 1.61066438,1.53700119 2.068,1.299 C2.52533562,1.06099881 3.07133016,0.942 3.706,0.942 C4.1446689,0.942 4.5436649,1.00966599 4.903,1.145 C5.2623351,1.28033401 5.5726654,1.47166543 5.834,1.719 C6.0953346,1.96633457 6.2959993,2.26266494 6.436,2.608 C6.5760007,2.95333506 6.646,3.34066452 6.646,3.77 C6.646,4.1433352 6.5666675,4.52366473 6.408,4.911 C6.2493325,5.2983353 6.0370013,5.6856647 5.771,6.073 C5.5049987,6.4603353 5.2016684,6.8476647 4.861,7.235 C4.5203316,7.6223353 4.1680018,8.0026648 3.804,8.376 C4.0280011,8.3479999 4.2776653,8.3223335 4.553,8.299 C4.8283347,8.2756666 5.0733323,8.264 5.288,8.264 L7.08,8.264 L7.08,10 L0.822,10 L0.822,8.824 Z"></path>
        </g>
    </g>
</svg>