<?xml version="1.0" encoding="UTF-8"?>
<svg width="16px" height="16px" viewBox="0 0 16 16" version="1.1" xmlns="http://www.w3.org/2000/svg" xmlns:xlink="http://www.w3.org/1999/xlink">
    <!-- Generator: Sketch 52.2 (67145) - http://www.bohemiancoding.com/sketch -->
    <title>Slice</title>
    <desc>Created with Sketch.</desc>
    <g id="Page-1" stroke="none" stroke-width="1" fill="none" fill-rule="evenodd">
        <g id="3" transform="translate(4.000000, 3.000000)" fill="#F91A47">
            <path d="M1.564,7.606 C1.83466802,7.8673346 2.13099839,8.0819992 2.453,8.25 C2.77500161,8.4180008 3.12733142,8.502 3.51,8.502 C3.94866886,8.502 4.2986654,8.4110009 4.56,8.229 C4.8213346,8.0469991 4.952,7.7880017 4.952,7.452 C4.952,7.255999 4.9170004,7.0786675 4.847,6.92 C4.7769997,6.7613325 4.6533342,6.6283339 4.476,6.521 C4.2986658,6.4136661 4.0560015,6.329667 3.748,6.269 C3.43999846,6.208333 3.04333576,6.178 2.558,6.178 L2.558,4.722 C2.95933534,4.722 3.29299867,4.69400028 3.559,4.638 C3.82500133,4.58199972 4.0396659,4.50033387 4.203,4.393 C4.3663342,4.28566613 4.4829997,4.15966739 4.553,4.015 C4.6230004,3.87033261 4.658,3.70933422 4.658,3.532 C4.658,3.22399846 4.5646676,2.98366753 4.378,2.811 C4.1913324,2.63833247 3.92066844,2.552 3.566,2.552 C3.24866508,2.552 2.96166795,2.6219993 2.705,2.762 C2.44833205,2.9020007 2.1800014,3.09333212 1.9,3.336 L0.864,2.076 C1.27466872,1.72133156 1.70633107,1.44366767 2.159,1.243 C2.61166893,1.04233233 3.11333058,0.942 3.664,0.942 C4.1213356,0.942 4.5389981,0.99566613 4.917,1.103 C5.2950019,1.21033387 5.6169987,1.36899895 5.883,1.579 C6.1490013,1.78900105 6.3566659,2.04333184 6.506,2.342 C6.6553341,2.64066816 6.73,2.98599804 6.73,3.378 C6.73,3.844669 6.601668,4.23899839 6.345,4.561 C6.0883321,4.88300161 5.7220024,5.1466656 5.246,5.352 L5.246,5.408 C5.7593359,5.5573341 6.181665,5.8116649 6.513,6.171 C6.844335,6.5303351 7.01,6.9993304 7.01,7.578 C7.01,7.9886687 6.9213342,8.3549984 6.744,8.677 C6.5666658,8.9990016 6.3286682,9.2696656 6.03,9.489 C5.7313318,9.7083344 5.3813353,9.8763327 4.98,9.993 C4.5786647,10.1096673 4.1540022,10.168 3.706,10.168 C2.97799636,10.168 2.36200252,10.0536678 1.858,9.825 C1.35399748,9.5963322 0.9386683,9.2906686 0.612,8.908 L1.564,7.606 Z"></path>
        </g>
    </g>
</svg>