<?xml version="1.0" encoding="UTF-8"?>
<svg width="16px" height="16px" viewBox="0 0 16 16" version="1.1" xmlns="http://www.w3.org/2000/svg" xmlns:xlink="http://www.w3.org/1999/xlink">
    <!-- Generator: Sketch 52.2 (67145) - http://www.bohemiancoding.com/sketch -->
    <title>Slice</title>
    <desc>Created with Sketch.</desc>
    <g id="Page-1" stroke="none" stroke-width="1" fill="none" fill-rule="evenodd">
        <g id="4" transform="translate(4.000000, 4.000000)" fill="#F91A47" fill-rule="nonzero">
            <path d="M4.42,5.304 L4.42,3.862 C4.42,3.57266522 4.4293332,3.23900189 4.448,2.861 C4.4666668,2.48299811 4.4853332,2.1540014 4.504,1.874 L4.448,1.874 C4.3359994,2.11666788 4.2193339,2.36399874 4.098,2.616 C3.97666606,2.86800126 3.85066732,3.11999874 3.72,3.372 L2.544,5.304 L4.42,5.304 Z M7.36,6.872 L6.338,6.872 L6.338,9 L4.42,9 L4.42,6.872 L0.57,6.872 L0.57,5.458 L3.818,0.11 L6.338,0.11 L6.338,5.304 L7.36,5.304 L7.36,6.872 Z"></path>
        </g>
    </g>
</svg>