<?xml version="1.0" encoding="UTF-8"?>
<svg width="16px" height="16px" viewBox="0 0 16 16" version="1.1" xmlns="http://www.w3.org/2000/svg" xmlns:xlink="http://www.w3.org/1999/xlink">
    <!-- Generator: Sketch 52.2 (67145) - http://www.bohemiancoding.com/sketch -->
    <title>Slice</title>
    <desc>Created with Sketch.</desc>
    <g id="Page-1" stroke="none" stroke-width="1" fill="none" fill-rule="evenodd">
        <g id="6" transform="translate(4.000000, 3.000000)" fill="#F91A47" fill-rule="nonzero">
            <path d="M4.196,8.628 C4.5040015,8.628 4.7676656,8.5136678 4.987,8.285 C5.2063344,8.0563322 5.316,7.6900025 5.316,7.186 C5.316,6.7099976 5.2063344,6.3763343 4.987,6.185 C4.7676656,5.9936657 4.4900017,5.898 4.154,5.898 C3.92999888,5.898 3.7013345,5.9633327 3.468,6.094 C3.2346655,6.2246673 3.01533436,6.4533317 2.81,6.78 C2.8566669,7.1346684 2.9266662,7.4286655 3.02,7.662 C3.1133338,7.8953345 3.22066606,8.0843326 3.342,8.229 C3.46333394,8.3736674 3.59633261,8.476333 3.741,8.537 C3.88566739,8.597667 4.0373325,8.628 4.196,8.628 Z M5.988,3.238 C5.8293325,3.06999916 5.6240013,2.92300063 5.372,2.797 C5.1199987,2.67099937 4.8633346,2.608 4.602,2.608 C4.3593321,2.608 4.1306677,2.6546662 3.916,2.748 C3.70133226,2.8413338 3.51233415,2.99766557 3.349,3.217 C3.18566585,3.43633443 3.05266718,3.72333156 2.95,4.078 C2.84733282,4.43266844 2.78666676,4.8666641 2.768,5.38 C2.88000056,5.2306659 3.01066592,5.0976672 3.16,4.981 C3.30933408,4.86433275 3.46333254,4.76633373 3.622,4.687 C3.78066746,4.60766627 3.93933254,4.54700021 4.098,4.505 C4.2566675,4.46299979 4.4059993,4.442 4.546,4.442 C4.9286686,4.442 5.2809984,4.49799944 5.603,4.61 C5.9250016,4.72200056 6.2049988,4.88999888 6.443,5.114 C6.6810012,5.3380011 6.8653327,5.6226649 6.996,5.968 C7.1266673,6.3133351 7.192,6.719331 7.192,7.186 C7.192,7.652669 7.1126675,8.0679982 6.954,8.432 C6.7953325,8.7960018 6.5830013,9.1086654 6.317,9.37 C6.0509987,9.6313346 5.7383351,9.829666 5.379,9.965 C5.0196649,10.100334 4.6393353,10.168 4.238,10.168 C3.80866452,10.168 3.39100203,10.0840008 2.985,9.916 C2.57899797,9.7479992 2.21966823,9.4866684 1.907,9.132 C1.59433177,8.7773316 1.3446676,8.3223361 1.158,7.767 C0.9713324,7.2116639 0.878,6.5420039 0.878,5.758 C0.878,4.92732918 0.97833233,4.2086697 1.179,3.602 C1.37966767,2.9953303 1.64566501,2.49600196 1.977,2.104 C2.30833499,1.71199804 2.69099783,1.42033429 3.125,1.229 C3.55900217,1.03766571 4.009331,0.942 4.476,0.942 C5.0640029,0.942 5.5726645,1.04699895 6.002,1.257 C6.4313355,1.46700105 6.7859986,1.71666522 7.066,2.006 L5.988,3.238 Z"></path>
        </g>
    </g>
</svg>