<?xml version="1.0" encoding="UTF-8"?>
<svg width="16px" height="16px" viewBox="0 0 16 16" version="1.1" xmlns="http://www.w3.org/2000/svg" xmlns:xlink="http://www.w3.org/1999/xlink">
    <!-- Generator: Sketch 52.2 (67145) - http://www.bohemiancoding.com/sketch -->
    <title>Slice</title>
    <desc>Created with Sketch.</desc>
    <g id="Page-1" stroke="none" stroke-width="1" fill="none" fill-rule="evenodd">
        <g id="7" transform="translate(4.000000, 4.000000)" fill="#fff">
            <path d="M2.53,9 C2.56733352,8.262663 2.63499951,7.5836698 2.733,6.963 C2.83100049,6.3423302 2.97099909,5.7496695 3.153,5.185 C3.33500091,4.6203305 3.56833191,4.067336 3.853,3.526 C4.1376681,2.98466396 4.4899979,2.42466956 4.91,1.846 L0.92,1.846 L0.92,0.11 L7.108,0.11 L7.108,1.37 C6.5946641,1.99533646 6.1816682,2.58099727 5.869,3.127 C5.5563318,3.67300273 5.3136675,4.2376637 5.141,4.821 C4.9683325,5.4043363 4.844667,6.0296633 4.77,6.697 C4.695333,7.3643367 4.6393335,8.1319957 4.602,9 L2.53,9 Z"></path>
        </g>
    </g>
</svg>