<?xml version="1.0" encoding="UTF-8"?>
<svg width="16px" height="16px" viewBox="0 0 16 16" version="1.1" xmlns="http://www.w3.org/2000/svg" xmlns:xlink="http://www.w3.org/1999/xlink">
    <!-- Generator: Sketch 52.2 (67145) - http://www.bohemiancoding.com/sketch -->
    <title>Slice</title>
    <desc>Created with Sketch.</desc>
    <g id="Page-1" stroke="none" stroke-width="1" fill="none" fill-rule="evenodd">
        <g id="8" transform="translate(4.000000, 3.000000)" fill="#F91A47" fill-rule="nonzero">
            <path d="M2.656,7.494 C2.656,7.886002 2.79133198,8.1916656 3.062,8.411 C3.33266802,8.6303344 3.6546648,8.74 4.028,8.74 C4.3733351,8.74 4.6579989,8.6490009 4.882,8.467 C5.1060011,8.2849991 5.218,8.0073352 5.218,7.634 C5.218,7.437999 5.1736671,7.2700007 5.085,7.13 C4.9963329,6.9899993 4.8680008,6.8616672 4.7,6.745 C4.5319992,6.6283328 4.3336678,6.5186672 4.105,6.416 C3.87633219,6.3133328 3.6220014,6.2013339 3.342,6.08 C3.14599902,6.2666676 2.98266732,6.4813321 2.852,6.724 C2.72133268,6.9666679 2.656,7.223332 2.656,7.494 Z M4.546,4.82 C4.9100018,4.3999979 5.092,3.96600224 5.092,3.518 C5.092,3.17266494 4.9963343,2.89500105 4.805,2.685 C4.6136657,2.47499895 4.3500017,2.37 4.014,2.37 C3.74333198,2.37 3.51000098,2.45399916 3.314,2.622 C3.11799902,2.79000084 3.02,3.04666494 3.02,3.392 C3.02,3.75600182 3.1599986,4.04066564 3.44,4.246 C3.7200014,4.45133436 4.0886644,4.64266578 4.546,4.82 Z M0.892,7.732 C0.892,7.190664 1.03899853,6.7473351 1.333,6.402 C1.62700147,6.0566649 1.9839979,5.7720011 2.404,5.548 L2.404,5.492 C2.05866494,5.2306654 1.77400112,4.93433499 1.55,4.603 C1.32599888,4.27166501 1.214,3.86800238 1.214,3.392 C1.214,3.0186648 1.2839993,2.68033485 1.424,2.377 C1.5640007,2.07366515 1.75999874,1.81466774 2.012,1.6 C2.26400126,1.38533226 2.56499825,1.22200056 2.915,1.11 C3.26500175,0.99799944 3.64533128,0.942 4.056,0.942 C4.4573353,0.942 4.8259983,1.00033275 5.162,1.117 C5.4980017,1.23366725 5.7826655,1.39699895 6.016,1.607 C6.2493345,1.81700105 6.4313327,2.07366515 6.562,2.377 C6.6926673,2.68033485 6.758,3.01399818 6.758,3.378 C6.758,3.80733548 6.6413345,4.18766501 6.408,4.519 C6.1746655,4.85033499 5.9040015,5.1186656 5.596,5.324 L5.596,5.38 C6.0253355,5.6133345 6.3893318,5.9119982 6.688,6.276 C6.9866682,6.6400018 7.136,7.1159971 7.136,7.704 C7.136,8.0586684 7.0613341,8.3853318 6.912,8.684 C6.7626659,8.9826682 6.5503347,9.2416656 6.275,9.461 C5.9996653,9.6803344 5.6683353,9.8529994 5.281,9.979 C4.8936647,10.1050006 4.4620024,10.168 3.986,10.168 C3.53799776,10.168 3.12500189,10.1096673 2.747,9.993 C2.36899811,9.8763327 2.04233471,9.7106677 1.767,9.496 C1.49166529,9.2813323 1.27700077,9.0246682 1.123,8.726 C0.96899923,8.4273318 0.892,8.0960018 0.892,7.732 Z"></path>
        </g>
    </g>
</svg>