<?xml version="1.0" encoding="UTF-8"?>
<svg width="16px" height="16px" viewBox="0 0 16 16" version="1.1" xmlns="http://www.w3.org/2000/svg" xmlns:xlink="http://www.w3.org/1999/xlink">
    <!-- Generator: Sketch 52.2 (67145) - http://www.bohemiancoding.com/sketch -->
    <title>Slice</title>
    <desc>Created with Sketch.</desc>
    <g id="Page-1" stroke="none" stroke-width="1" fill="none" fill-rule="evenodd">
        <g id="9" transform="translate(2.000000, 3.000000)" fill="#F91A47" fill-rule="nonzero">
            <path d="M3.136,5.212 C3.36000112,5.212 3.5886655,5.1466673 3.822,5.016 C4.0553345,4.88533268 4.26999902,4.6566683 4.466,4.33 C4.3726662,3.6299965 4.19766795,3.14700133 3.941,2.881 C3.68433205,2.61499867 3.39733492,2.482 3.08,2.482 C2.78133184,2.482 2.52000112,2.59633219 2.296,2.825 C2.07199888,3.05366781 1.96,3.41999748 1.96,3.924 C1.96,4.40000238 2.07199888,4.73366571 2.296,4.925 C2.52000112,5.1163343 2.79999832,5.212 3.136,5.212 Z M1.302,7.872 C1.45133408,8.0400008 1.65199874,8.1869994 1.904,8.313 C2.15600126,8.4390006 2.41266536,8.502 2.674,8.502 C2.92600126,8.502 3.15933226,8.4553338 3.374,8.362 C3.58866774,8.2686662 3.77766585,8.1123344 3.941,7.893 C4.10433415,7.6736656 4.23499951,7.3890018 4.333,7.039 C4.43100049,6.6889982 4.48933324,6.2526693 4.508,5.73 C4.39599944,5.8793341 4.26533408,6.0123328 4.116,6.129 C3.96666592,6.2456673 3.81266746,6.3436663 3.654,6.423 C3.49533254,6.5023337 3.33666746,6.5629998 3.178,6.605 C3.01933254,6.6470002 2.8700007,6.668 2.73,6.668 C2.34733142,6.668 1.99500161,6.6120006 1.673,6.5 C1.35099839,6.3879994 1.0733345,6.2200011 0.84,5.996 C0.6066655,5.7719989 0.42233401,5.4873351 0.287,5.142 C0.15166599,4.79666494 0.084,4.390669 0.084,3.924 C0.084,3.46666438 0.16333254,3.05366851 0.322,2.685 C0.48066746,2.31633149 0.69299867,2.00133464 0.959,1.74 C1.22500133,1.47866536 1.53766487,1.28033401 1.897,1.145 C2.25633513,1.00966599 2.63666466,0.942 3.038,0.942 C3.46733548,0.942 3.88499797,1.02599916 4.291,1.194 C4.69700203,1.36200084 5.05633177,1.62333156 5.369,1.978 C5.68166823,2.33266844 5.93366571,2.78766389 6.125,3.343 C6.31633429,3.89833611 6.412,4.56799608 6.412,5.352 C6.412,6.1826708 6.31166767,6.9013303 6.111,7.508 C5.91033233,8.1146697 5.64433499,8.613998 5.313,9.006 C4.98166501,9.398002 4.59900217,9.6896657 4.165,9.881 C3.73099783,10.0723343 3.280669,10.168 2.814,10.168 C2.22599706,10.168 1.71500217,10.0606677 1.281,9.846 C0.84699783,9.6313323 0.4900014,9.3840014 0.21,9.104 L1.302,7.872 Z M9.29565217,5.66101695 L7,5.66101695 L7,4.33898305 L9.29565217,4.33898305 L9.29565217,2 L10.7043478,2 L10.7043478,4.33898305 L13,4.33898305 L13,5.66101695 L10.7043478,5.66101695 L10.7043478,8 L9.29565217,8 L9.29565217,5.66101695 Z" id="9+"></path>
        </g>
    </g>
</svg>