<svg width="20" height="20" viewBox="0 0 20 20" fill="none" xmlns="http://www.w3.org/2000/svg">
<path fill-rule="evenodd" clip-rule="evenodd" d="M10 14C12.2091 14 14 12.2091 14 10C14 7.79086 12.2091 6 10 6C7.79086 6 6 7.79086 6 10C6 12.2091 7.79086 14 10 14ZM10 13C8.34315 13 7 11.6569 7 10C7 8.34315 8.34315 7 10 7C11.6569 7 13 8.34315 13 10C13 11.6569 11.6569 13 10 13Z" fill="white"/>
<path fill-rule="evenodd" clip-rule="evenodd" d="M11 1C11.5523 1 12 1.44772 12 2L12.001 3.29019C12.4659 3.42863 12.9106 3.61407 13.3295 3.841L14.2426 2.92893C14.6332 2.53841 15.2663 2.53841 15.6569 2.92893L17.0711 4.34315C17.4616 4.73367 17.4616 5.36684 17.0711 5.75736L16.1591 6.67065C16.3862 7.08989 16.5717 7.53493 16.7102 8.00024L18 8C18.5523 8 19 8.44772 19 9V11C19 11.5523 18.5523 12 18 12L16.7099 12.0008C16.5715 12.4656 16.3861 12.9102 16.1592 13.3291L17.0711 14.2426C17.4616 14.6332 17.4616 15.2663 17.0711 15.6569L15.6569 17.0711C15.2663 17.4616 14.6332 17.4616 14.2426 17.0711L13.3293 16.1591C12.9105 16.386 12.4659 16.5714 12.001 16.7098L12 18C12 18.5523 11.5523 19 11 19H9C8.44772 19 8 18.5523 8 18L7.99995 16.7101C7.53497 16.5717 7.09023 16.3863 6.67125 16.1594L5.75736 17.0711C5.36684 17.4616 4.73367 17.4616 4.34315 17.0711L2.92893 15.6569C2.53841 15.2663 2.53841 14.6332 2.92893 14.2426L3.84056 13.3287C3.61366 12.9097 3.42826 12.465 3.28987 12L2 12C1.44772 12 1 11.5523 1 11V9C1 8.44772 1.44772 8 2 8L3.29017 7.99903C3.4286 7.53413 3.61403 7.08949 3.84095 6.6706L2.92893 5.75736C2.53841 5.36684 2.53841 4.73367 2.92893 4.34315L4.34315 2.92893C4.73367 2.53841 5.36684 2.53841 5.75736 2.92893L6.67043 3.84104C7.08965 3.61393 7.53466 3.42837 7.99995 3.28989L8 2C8 1.44772 8.44772 1 9 1H11ZM15.9645 9.00038L15.7517 8.28546C15.6341 7.89004 15.4758 7.50878 15.2798 7.14696L14.9248 6.49152L16.364 5.05025L14.9497 3.63604L13.5087 5.07539L12.8532 4.72027C12.4916 4.52442 12.1107 4.36624 11.7156 4.2486L11.0016 4.03598L11 2H9L8.99993 4.03563L8.28521 4.24834C7.88982 4.36602 7.50857 4.5243 7.14677 4.7203L6.4912 5.07546L5.05025 3.63604L3.63604 5.05025L5.0753 6.49145L4.72022 7.14691C4.52439 7.50843 4.36622 7.88936 4.24858 8.28442L4.03596 8.99846L2 9V11L4.0356 11L4.24833 11.7147C4.36592 12.1099 4.52407 12.4909 4.71989 12.8525L5.07463 13.5075L3.63604 14.9497L5.05025 16.364L6.49241 14.9253L7.14747 15.2801C7.50907 15.4759 7.89007 15.6341 8.28521 15.7517L8.99993 15.9644L9 18H11L11.0016 15.964L11.7156 15.7514C12.1107 15.6338 12.4915 15.4756 12.853 15.2798L13.5084 14.9248L14.9497 16.364L16.364 14.9497L14.925 13.508L15.2799 12.8528C15.4757 12.4913 15.6339 12.1104 15.7515 11.7154L15.9641 11.0012L18 11V9L15.9645 9.00038Z" fill="white"/>
</svg>
