<svg fill="none" height="20" viewBox="0 0 20 20" width="20" xmlns="http://www.w3.org/2000/svg"><path clip-rule="evenodd" d="m3.05001 3.5c.23163-1.14112 1.24051-2 2.44999-2s2.21836.85888 2.44999 2h10.55001c.2761 0 .5.22386.5.5s-.2239.5-.5.5h-10.55001c-.23163 1.14112-1.24051 2-2.44999 2s-2.21836-.85888-2.44999-2h-1.55001c-.27614 0-.5-.22386-.5-.5s.22386-.5.5-.5zm11.44999 4c-1.2095 0-2.2184.85888-2.45 2h-10.55c-.27614 0-.5.22386-.5.5 0 .2761.22386.5.5.5h10.55c.2316 1.1411 1.2405 2 2.45 2s2.2184-.8589 2.45-2h1.55c.2761 0 .5-.2239.5-.5 0-.27614-.2239-.5-.5-.5h-1.55c-.2316-1.14112-1.2405-2-2.45-2zm-4.5 6c-1.20948 0-2.21836.8589-2.44999 2h-6.05001c-.27614 0-.5.2239-.5.5s.22386.5.5.5h6.05001c.23163 1.1411 1.24051 2 2.44999 2 1.2095 0 2.2184-.8589 2.45-2h6.05c.2761 0 .5-.2239.5-.5s-.2239-.5-.5-.5h-6.05c-.2316-1.1411-1.2405-2-2.45-2zm1.5 2.5c0 .8284-.6716 1.5-1.5 1.5-.82843 0-1.5-.6716-1.5-1.5s.67157-1.5 1.5-1.5c.8284 0 1.5.6716 1.5 1.5zm3-4.5c.8284 0 1.5-.6716 1.5-1.5 0-.82843-.6716-1.5-1.5-1.5s-1.5.67157-1.5 1.5c0 .8284.6716 1.5 1.5 1.5zm-7.5-7.5c0 .82843-.67157 1.5-1.5 1.5s-1.5-.67157-1.5-1.5.67157-1.5 1.5-1.5 1.5.67157 1.5 1.5z" fill="#18181a" fill-rule="evenodd"/></svg>