<svg fill="none" height="20" viewBox="0 0 20 20" width="20" xmlns="http://www.w3.org/2000/svg"><path clip-rule="evenodd" d="m17 10c0-3.86599-3.134-7-7-7-3.86599 0-7 3.13401-7 7 0 3.866 3.13401 7 7 7 3.866 0 7-3.134 7-7zm-13 0c0-3.31371 2.68629-6 6-6 3.3137 0 6 2.68629 6 6 0 3.3137-2.6863 6-6 6-3.31371 0-6-2.6863-6-6zm5-.99115c0-.00489.00396-.00885.00885-.00885h1.49115c.2761 0 .5.22386.5.5s-.2239.5-.5.5v3c.2761 0 .5.2239.5.5s-.2239.5-.5.5h-1c-.27614 0-.5-.2239-.5-.5s.22386-.5.5-.5v-3c-.27614 0-.5-.22386-.5-.5zm2-2.00885c0 .55228-.4477 1-1 1-.55228 0-1-.44772-1-1s.44772-1 1-1c.5523 0 1 .44772 1 1z" fill="#45a1fc" fill-rule="evenodd"/></svg>