<svg fill="none" height="20" viewBox="0 0 20 20" width="20" xmlns="http://www.w3.org/2000/svg"><g stroke="#8f96a3"><circle cx="6" cy="13" r="2.5"/><circle cx="14" cy="13" r="2.5"/><path d="m11.5 13v-7c0-.55228.4477-1 1-1h1.6701c.4812 0 .8942.34274.9828.81571l1.3471 7.18429"/><path d="m8.5 13v-7c0-.55228-.44772-1-1-1h-1.67007c-.48122 0-.89419.34274-.98288.81571l-1.34705 7.18429"/><path d="m11.5 12.5c0-.8284-.6716-1.5-1.5-1.5-.82843 0-1.5.6716-1.5 1.5"/><path d="m11.5 7.5c0-.82843-.6716-1.5-1.5-1.5-.82843 0-1.5.67157-1.5 1.5"/></g></svg>