<svg width="20" height="20" viewBox="0 0 20 20" fill="none" xmlns="http://www.w3.org/2000/svg">
<path fill-rule="evenodd" clip-rule="evenodd" d="M10 18C14.4183 18 18 14.4183 18 10C18 5.58172 14.4183 2 10 2C5.58172 2 2 5.58172 2 10C2 14.4183 5.58172 18 10 18ZM10 19C14.9706 19 19 14.9706 19 10C19 5.02944 14.9706 1 10 1C5.02944 1 1 5.02944 1 10C1 14.9706 5.02944 19 10 19ZM8.55834 6.32532C8.18639 6.70362 8 7.15859 8 7.50004C8 7.77618 7.77614 8.00004 7.5 8.00004C7.22386 8.00004 7 7.77618 7 7.50004C7 6.84047 7.33269 6.14555 7.84528 5.62422C8.36638 5.09422 9.11482 4.70027 10 4.70027C11.1629 4.70027 11.9389 5.14571 12.4107 5.75641C12.8643 6.34348 13 7.03454 13 7.50004C13 8.2178 12.8177 8.7552 12.5226 9.18838C12.2455 9.59517 11.8826 9.88578 11.5823 10.1262L11.5626 10.142C11.2413 10.3993 10.9892 10.6054 10.8037 10.8775C10.6301 11.1319 10.5 11.4691 10.5 12C10.5 12.2762 10.2761 12.5 10 12.5C9.72386 12.5 9.5 12.2762 9.5 12C9.5 11.2832 9.68244 10.7465 9.97759 10.3139C10.2542 9.90839 10.6166 9.61833 10.9163 9.37833L10.9374 9.36144C11.2585 9.10433 11.5106 8.89788 11.6961 8.62543C11.8698 8.37041 12 8.03226 12 7.50004C12 7.19737 11.9058 6.73853 11.6194 6.36776C11.3512 6.02062 10.8772 5.70027 10 5.70027C9.42334 5.70027 8.92177 5.95569 8.55834 6.32532ZM10 15C10.4142 15 10.75 14.6642 10.75 14.25C10.75 13.8358 10.4142 13.5 10 13.5C9.58579 13.5 9.25 13.8358 9.25 14.25C9.25 14.6642 9.58579 15 10 15Z" fill="#2F3237"/>
</svg>
