<svg fill="none" height="32" viewBox="0 0 32 32" width="32" xmlns="http://www.w3.org/2000/svg" xmlns:xlink="http://www.w3.org/1999/xlink"><clipPath id="a"><path d="m0 0h32v32h-32z"/></clipPath><g clip-path="url(#a)"><path clip-rule="evenodd" d="m7.25 7.48221h2.375c.9862 0 1.7857.79949 1.7857 1.78572v6.92857h4.6429v2.5h-5.3572c-.98619 0-1.78569-.7995-1.78569-1.7857v-6.92859h-1.66071zm18.1607 1.78568v1.85711h-2.5v-1.14282h-1.9643v8.71432h-2.5v-8.71432h-1.9643v1.14282h-2.5v-1.85711c0-.98622.7995-1.78571 1.7858-1.78571h7.8571c.9862 0 1.7857.79949 1.7857 1.78571z" fill="#000" fill-rule="evenodd"/><path d="m6.09107 25.4017-2.32496-1.6606c.68301-.9563 1.38762-1.6961 2.12896-2.215.82398-.5768 1.69957-.8833 2.60495-.8833.84067 0 1.56888.2039 2.21938.5942.2624.1575.5035.3392.7473.5542.168.1483.2881.2647.5435.52.3871.3871.5479.5291.7404.6446.2089.1253.4294.187.7494.187.3204 0 .5418-.0619.7517-.1876.1935-.1159.3556-.2586.7426-.6449l.0036-.0036c.2541-.2536.3754-.3709.5435-.5189.2434-.2144.4841-.3954.7459-.5524.6492-.3892 1.3753-.5926 2.2127-.5926.8375 0 1.5635.2034 2.2127.5926.2619.157.5025.338.746.5524.168.148.2893.2653.5434.5189l.0036.0036c.387.3863.5492.529.7426.6449.2099.1257.4313.1876.7517.1876.2851 0 .6-.1102.9665-.3667.4491-.3144.935-.8246 1.4425-1.535l2.3249 1.6606c-.683.9562-1.3876 1.6961-2.1289 2.215-.824.5768-1.6996.8833-2.605.8833-.8404 0-1.5686-.2038-2.2197-.5936-.2627-.1574-.5041-.3389-.7482-.5537-.1686-.1484-.2901-.266-.5448-.5202l-.0036-.0036c-.386-.3853-.5477-.5276-.74-.6429-.208-.1247-.4268-.186-.7437-.186-.3168 0-.5356.0613-.7437.186-.1923.1153-.3539.2576-.74.6429l-.0036.0036c-.2546.2542-.3762.3718-.5448.5202-.2441.2148-.4855.3963-.7482.5537-.651.3898-1.3793.5936-2.2197.5936-.8407 0-1.5688-.2039-2.2194-.5942-.2624-.1575-.5035-.3392-.7472-.5542-.1681-.1483-.2882-.2647-.54353-.5201-.38711-.3871-.54796-.529-.74047-.6445-.20884-.1253-.42934-.187-.74938-.187-.2851 0-.59998.1102-.96648.3667-.44914.3144-.93501.8246-1.44247 1.535z" fill="#45a1fc"/></g></svg>