<svg fill="none" height="51" viewBox="0 0 203 51" width="203" xmlns="http://www.w3.org/2000/svg" xmlns:xlink="http://www.w3.org/1999/xlink"><clipPath id="a"><path d="m0 0h202.005v50.0047h-202.005z"/></clipPath><g clip-path="url(#a)"><path d="m0 25.0023c0-13.8084 11.1939-25.0023 25.0023-25.0023 13.8085 0 25.0024 11.1939 25.0024 25.0023 0 13.8085-11.1939 25.0024-25.0024 25.0024-13.8084 0-25.0023-11.1939-25.0023-25.0024z" fill="#fff"/><path clip-rule="evenodd" d="m14.0635 14.354h2.969c1.2329 0 2.2324.9995 2.2324 2.2324v8.6615h5.8041v3.1253h-6.6971c-1.2329 0-2.2323-.9995-2.2323-2.2324v-8.6615h-2.0761zm22.703 2.2324v2.3216h-3.1253v-1.4287h-2.4556v10.8939h-3.1253v-10.8939h-2.4556v1.4287h-3.1253v-2.3216c0-1.2329.9995-2.2324 2.2324-2.2324h9.8223c1.2329 0 2.2324.9995 2.2324 2.2324z" fill="#000" fill-rule="evenodd"/><path d="m12.6154 36.7558-2.90642-2.076c.85382-1.1954 1.73472-2.1203 2.66142-2.769 1.0301-.7211 2.1247-1.1042 3.2565-1.1042 1.051 0 1.9612.2549 2.7745.7429.3281.1968.6295.4239.9342.6928.2101.1853.3602.3308.6794.6501.484.4839.685.6613.9257.8057.2611.1567.5367.2338.9368.2338.4005 0 .6773-.0774.9397-.2346.2419-.1448.4446-.3232.9284-.8061l.0044-.0045c.3177-.3171.4693-.4637.6794-.6487.3043-.268.6052-.4943.9326-.6906.8115-.4865 1.7192-.7408 2.7661-.7408s1.9545.2543 2.7661.7408c.3274.1963.6282.4226.9325.6906.2102.185.3617.3316.6794.6487l.0045.0045c.4838.4829.6865.6613.9283.8061.2625.1572.5393.2346.9398.2346.3564 0 .75-.1377 1.2082-.4585.5615-.393 1.1689-1.0308 1.8033-1.9189l2.9064 2.076c-.8538 1.1954-1.7347 2.1203-2.6614 2.769-1.0301.7211-2.1247 1.1042-3.2565 1.1042-1.0506 0-1.961-.2547-2.7749-.7421-.3284-.1966-.6302-.4236-.9354-.6922-.2107-.1855-.3627-.3324-.681-.6502l-.0045-.0045c-.4826-.4817-.6847-.6596-.9251-.8038-.2601-.1559-.5336-.2325-.9297-.2325s-.6696.0766-.9297.2325c-.2404.1442-.4425.3221-.9251.8038l-.0045.0045c-.3184.3178-.4703.4647-.6811.6502-.3051.2686-.6069.4956-.9353.6922-.8139.4874-1.7243.7421-2.7749.7421-1.0509 0-1.9612-.2549-2.7745-.7428-.3281-.1969-.6295-.424-.9342-.6928-.2101-.1854-.3601-.3309-.6794-.6501-.4839-.4839-.685-.6614-.9257-.8058-.261-.1566-.5367-.2338-.9368-.2338-.3564 0-.75.1378-1.2082.4585-.5615.393-1.1689 1.0308-1.8033 1.9189z" fill="#45a8fc"/><path d="m55.3329 21.0024v-10.464h1.856v8.896h4.352v1.568zm9.7752.192c-.6933 0-1.2533-.208-1.68-.624-.4266-.4266-.64-.9866-.64-1.68 0-.416.0854-.784.256-1.104.1814-.3306.4587-.6133.832-.848.384-.2346.864-.432 1.44-.592.5867-.16 1.2854-.2826 2.096-.368-.0106-.2026-.0426-.3946-.096-.576-.0426-.192-.1226-.3573-.24-.496-.1066-.1493-.2506-.2613-.432-.336-.1813-.0853-.4053-.128-.672-.128-.384 0-.7626.0747-1.136.224-.3626.1494-.72.3307-1.072.544l-.672-1.232c.4374-.2773.928-.5173 1.472-.72.544-.2026 1.1307-.304 1.76-.304.9814 0 1.712.2934 2.192.88.4907.576.736 1.4134.736 2.512v4.656h-1.52l-.128-.864h-.064c-.352.2987-.7306.5494-1.136.752-.3946.2027-.8266.304-1.296.304zm.592-1.44c.32 0 .608-.0746.864-.224.2667-.1493.5494-.3626.848-.64v-1.76c-.5333.064-.9813.1494-1.344.256-.3626.1067-.656.2294-.88.368-.224.128-.384.2774-.48.448-.096.1707-.144.352-.144.544 0 .352.1067.608.32.768.2134.16.4854.24.816.24zm5.754 1.248v-7.856h1.52l.128 1.056h.064c.352-.3413.7307-.6346 1.136-.88.416-.2453.896-.368 1.44-.368.8427 0 1.456.272 1.84.816.384.5334.576 1.3014.576 2.304v4.928h-1.84v-4.688c0-.6506-.096-1.1093-.288-1.376-.192-.2666-.5066-.4-.944-.4-.3413 0-.6453.0854-.912.256-.256.16-.5493.4-.88.72v5.488zm11.6892 3.472c-.4694 0-.9067-.0426-1.312-.128-.3947-.0853-.736-.2133-1.024-.384-.288-.1706-.5174-.384-.688-.64-.16-.256-.24-.5546-.24-.896 0-.3306.096-.64.288-.928.192-.2773.4693-.528.832-.752v-.064c-.2027-.128-.3734-.2986-.512-.512-.128-.2133-.192-.48-.192-.8 0-.3093.0853-.5866.256-.832.1813-.256.384-.464.608-.624v-.064c-.2667-.2026-.5067-.48-.72-.832-.2027-.3626-.304-.7786-.304-1.248 0-.448.0853-.848.256-1.2.1706-.352.3946-.6453.672-.88.288-.2453.6186-.4266.992-.544.3733-.128.768-.192 1.184-.192.2133 0 .416.0214.608.064.2026.032.384.0747.544.128h2.816v1.36h-1.44c.128.1494.2346.3414.32.576.0853.224.128.4747.128.752 0 .4374-.08.8214-.24 1.152-.1494.3307-.3574.608-.624.832-.2667.224-.5814.3947-.944.512-.3627.1174-.752.176-1.168.176-.1707 0-.3467-.016-.528-.048-.1814-.032-.3627-.0853-.544-.16-.1174.1067-.2134.2134-.288.32-.064.1067-.096.2507-.096.432 0 .224.0906.4.272.528.192.128.528.192 1.008.192h1.392c.9493 0 1.664.1547 2.144.464.4906.2987.736.7894.736 1.472 0 .384-.1014.7467-.304 1.088-.192.3414-.4694.6347-.832.88-.3627.2454-.8054.4374-1.328.576-.512.1494-1.088.224-1.728.224zm.096-7.12c.3733 0 .6933-.1333.96-.4.2666-.2773.4-.672.4-1.184 0-.4906-.1334-.8693-.4-1.136-.256-.2773-.576-.416-.96-.416s-.7094.1334-.976.4c-.2667.2667-.4.6507-.4 1.152 0 .512.1333.9067.4 1.184.2666.2667.592.4.976.4zm.192 5.92c.64 0 1.152-.128 1.536-.384.3946-.2453.592-.5386.592-.88 0-.3093-.1227-.5173-.368-.624-.2347-.1066-.576-.16-1.024-.16h-1.072c-.4267 0-.784-.0373-1.072-.112-.4054.3094-.608.656-.608 1.04 0 .352.176.624.528.816.3626.2027.8586.304 1.488.304zm7.6245-2.08c-.8427 0-1.456-.2666-1.84-.8-.384-.544-.576-1.3173-.576-2.32v-4.928h1.84v4.688c0 .6507.096 1.1094.288 1.376.192.2667.5013.4.928.4.3413 0 .64-.0853.896-.256.2666-.1706.5493-.448.848-.832v-5.376h1.84v7.856h-1.504l-.144-1.152h-.048c-.3414.4054-.7147.7307-1.12.976-.3947.2454-.864.368-1.408.368zm8.4586 0c-.6934 0-1.2534-.208-1.68-.624-.4267-.4266-.64-.9866-.64-1.68 0-.416.0853-.784.256-1.104.1813-.3306.4586-.6133.832-.848.384-.2346.864-.432 1.44-.592.5866-.16 1.2856-.2826 2.0956-.368-.01-.2026-.042-.3946-.096-.576-.042-.192-.122-.3573-.24-.496-.106-.1493-.25-.2613-.432-.336-.181-.0853-.405-.128-.672-.128-.3836 0-.7623.0747-1.1356.224-.3627.1494-.72.3307-1.072.544l-.672-1.232c.4373-.2773.928-.5173 1.472-.72.544-.2026 1.1306-.304 1.7596-.304.982 0 1.712.2934 2.192.88.491.576.736 1.4134.736 2.512v4.656h-1.52l-.128-.864h-.064c-.352.2987-.73.5494-1.136.752-.394.2027-.8263.304-1.2956.304zm.5916-1.44c.32 0 .608-.0746.864-.224.267-.1493.55-.3626.848-.64v-1.76c-.533.064-.981.1494-1.344.256-.362.1067-.6556.2294-.8796.368-.224.128-.384.2774-.48.448-.096.1707-.144.352-.144.544 0 .352.1066.608.32.768.2133.16.4853.24.8156.24zm8.49 4.72c-.469 0-.906-.0426-1.312-.128-.394-.0853-.736-.2133-1.024-.384-.288-.1706-.517-.384-.688-.64-.16-.256-.24-.5546-.24-.896 0-.3306.096-.64.288-.928.192-.2773.47-.528.832-.752v-.064c-.202-.128-.373-.2986-.512-.512-.128-.2133-.192-.48-.192-.8 0-.3093.086-.5866.256-.832.182-.256.384-.464.608-.624v-.064c-.266-.2026-.506-.48-.72-.832-.202-.3626-.304-.7786-.304-1.248 0-.448.086-.848.256-1.2.171-.352.395-.6453.672-.88.288-.2453.619-.4266.992-.544.374-.128.768-.192 1.184-.192.214 0 .416.0214.608.064.203.032.384.0747.544.128h2.816v1.36h-1.44c.128.1494.235.3414.32.576.086.224.128.4747.128.752 0 .4374-.08.8214-.24 1.152-.149.3307-.357.608-.624.832-.266.224-.581.3947-.944.512-.362.1174-.752.176-1.168.176-.17 0-.346-.016-.528-.048-.181-.032-.362-.0853-.544-.16-.117.1067-.213.2134-.288.32-.064.1067-.096.2507-.096.432 0 .224.091.4.272.528.192.128.528.192 1.008.192h1.392c.95 0 1.664.1547 2.144.464.491.2987.736.7894.736 1.472 0 .384-.101.7467-.304 1.088-.192.3414-.469.6347-.832.88-.362.2454-.805.4374-1.328.576-.512.1494-1.088.224-1.728.224zm.096-7.12c.374 0 .694-.1333.96-.4.267-.2773.4-.672.4-1.184 0-.4906-.133-.8693-.4-1.136-.256-.2773-.576-.416-.96-.416s-.709.1334-.976.4c-.266.2667-.4.6507-.4 1.152 0 .512.134.9067.4 1.184.267.2667.592.4.976.4zm.192 5.92c.64 0 1.152-.128 1.536-.384.395-.2453.592-.5386.592-.88 0-.3093-.122-.5173-.368-.624-.234-.1066-.576-.16-1.024-.16h-1.072c-.426 0-.784-.0373-1.072-.112-.405.3094-.608.656-.608 1.04 0 .352.176.624.528.816.363.2027.859.304 1.488.304zm8.399-2.08c-.544 0-1.051-.0906-1.52-.272-.469-.192-.88-.464-1.232-.816s-.629-.7786-.832-1.28c-.192-.512-.288-1.0933-.288-1.744 0-.64.101-1.216.304-1.728s.469-.944.8-1.296c.341-.352.731-.624 1.168-.816s.885-.288 1.344-.288c.533 0 1.003.0907 1.408.272.405.1814.741.4374 1.008.768.277.3307.485.7254.624 1.184.139.4587.208.96.208 1.504 0 .1814-.011.352-.032.512-.011.16-.027.288-.048.384h-4.992c.085.704.331 1.248.736 1.632.416.3734.944.56 1.584.56.341 0 .656-.048.944-.144.299-.1066.592-.2506.88-.432l.624 1.152c-.373.2454-.789.448-1.248.608s-.939.24-1.44.24zm-2.096-4.864h3.488c0-.608-.133-1.0826-.4-1.424-.256-.352-.656-.528-1.2-.528-.469 0-.88.1654-1.232.496-.352.3307-.571.816-.656 1.456zm8.941 4.672v-8.448h-2.864v-1.984h8.096v1.984h-2.864v8.448zm8.856.192c-.501 0-.987-.0906-1.456-.272-.469-.192-.885-.464-1.248-.816-.352-.352-.635-.784-.848-1.296-.213-.5226-.32-1.1146-.32-1.776 0-.6613.107-1.248.32-1.76.213-.5226.496-.96.848-1.312.363-.352.779-.6186 1.248-.8.469-.192.955-.288 1.456-.288s.981.096 1.44.288c.469.1814.88.448 1.232.8.363.352.651.7894.864 1.312.213.512.32 1.0987.32 1.76 0 .6614-.107 1.2534-.32 1.776-.213.512-.501.944-.864 1.296-.352.352-.763.624-1.232.816-.459.1814-.939.272-1.44.272zm0-1.904c.48 0 .843-.2026 1.088-.608.245-.4053.368-.9546.368-1.648 0-.6933-.123-1.2426-.368-1.648-.245-.4053-.608-.608-1.088-.608-.491 0-.859.2027-1.104.608-.235.4054-.352.9547-.352 1.648 0 .6934.117 1.2427.352 1.648.245.4054.613.608 1.104.608zm8.875 1.904c-.501 0-.987-.0906-1.456-.272-.469-.192-.885-.464-1.248-.816-.352-.352-.635-.784-.848-1.296-.213-.5226-.32-1.1146-.32-1.776 0-.6613.107-1.248.32-1.76.213-.5226.496-.96.848-1.312.363-.352.779-.6186 1.248-.8.469-.192.955-.288 1.456-.288s.981.096 1.44.288c.469.1814.88.448 1.232.8.363.352.651.7894.864 1.312.213.512.32 1.0987.32 1.76 0 .6614-.107 1.2534-.32 1.776-.213.512-.501.944-.864 1.296-.352.352-.763.624-1.232.816-.459.1814-.939.272-1.44.272zm0-1.904c.48 0 .843-.2026 1.088-.608.245-.4053.368-.9546.368-1.648 0-.6933-.123-1.2426-.368-1.648-.245-.4053-.608-.608-1.088-.608-.491 0-.859.2027-1.104.608-.235.4054-.352.9547-.352 1.648 0 .6934.117 1.2427.352 1.648.245.4054.613.608 1.104.608zm7.627 1.904c-.405 0-.747-.064-1.024-.192s-.501-.304-.672-.528c-.16-.2346-.277-.512-.352-.832-.075-.3306-.112-.6986-.112-1.104v-8.75196h2.352v8.84796c0 .2454.043.416.128.512.096.096.192.144.288.144h.128c.043 0 .096-.0106.16-.032l.288 1.744c-.128.0534-.293.096-.496.128-.192.0427-.421.064-.688.064zm-94.1691 23.088v-11.056h1.088l.112.896h.048c.352-.2986.736-.5546 1.152-.768.4266-.2133.8693-.32 1.328-.32.5013 0 .944.096 1.328.288.384.1814.704.448.96.8.256.3414.448.7574.576 1.248.1386.48.208 1.024.208 1.632 0 .6614-.0907 1.2534-.272 1.776-.1814.512-.4267.9494-.736 1.312-.3094.3627-.6667.64-1.072.832-.4054.1814-.832.272-1.28.272-.3627 0-.7254-.08-1.088-.24-.352-.16-.7094-.3786-1.072-.656l.032 1.36v2.624zm3.216-4.192c.32 0 .6133-.0693.88-.208.2773-.1493.512-.352.704-.608.2026-.2666.3573-.592.464-.976.1173-.384.176-.816.176-1.296 0-.4266-.0374-.816-.112-1.168-.0747-.352-.1974-.6506-.368-.896-.16-.256-.3734-.4533-.64-.592-.256-.1386-.5654-.208-.928-.208-.3307 0-.6667.0907-1.008.272-.3307.1814-.688.4427-1.072.784v4.08c.352.2987.6933.512 1.024.64.3306.1174.624.176.88.176zm5.659.912v-7.776h1.088l.112 1.408h.048c.2666-.4906.5866-.88.96-1.168.384-.288.8-.432 1.248-.432.3093 0 .5866.0534.832.16l-.256 1.152c-.128-.0426-.2454-.0746-.352-.096-.1067-.0213-.24-.032-.4-.032-.3307 0-.6774.1334-1.04.4-.352.2667-.6614.7307-.928 1.392v4.992zm8.4146.192c-.48 0-.9387-.0906-1.376-.272-.4267-.1813-.8053-.4426-1.136-.784-.3307-.352-.5973-.7786-.8-1.28-.192-.512-.288-1.088-.288-1.728 0-.6506.096-1.2266.288-1.728.2027-.512.4693-.944.8-1.296s.7093-.6186 1.136-.8c.4373-.1813.896-.272 1.376-.272s.9333.0907 1.36.272c.4373.1814.8213.448 1.152.8s.592.784.784 1.296c.2027.5014.304 1.0774.304 1.728 0 .64-.1013 1.216-.304 1.728-.192.5014-.4533.928-.784 1.28-.3307.3414-.7147.6027-1.152.784-.4267.1814-.88.272-1.36.272zm0-1.088c.3307 0 .6347-.0693.912-.208.2773-.1493.512-.352.704-.608.2027-.2666.3573-.5813.464-.944.1067-.3626.16-.768.16-1.216s-.0533-.8533-.16-1.216c-.1067-.3733-.2613-.6933-.464-.96-.192-.2666-.4267-.4693-.704-.608-.2773-.1493-.5813-.224-.912-.224s-.6347.0747-.912.224c-.2773.1387-.5173.3414-.72.608-.192.2667-.3413.5867-.448.96-.1067.3627-.16.768-.16 1.216s.0533.8534.16 1.216c.1067.3627.256.6774.448.944.2027.256.4427.4587.72.608.2773.1387.5813.208.912.208zm8.6719 1.088c-.48 0-.9387-.0906-1.376-.272-.4267-.1813-.8054-.4426-1.136-.784-.3307-.352-.5974-.7786-.8-1.28-.192-.512-.288-1.088-.288-1.728 0-.6506.096-1.2266.288-1.728.2026-.512.4693-.944.8-1.296.3306-.352.7093-.6186 1.136-.8.4373-.1813.896-.272 1.376-.272s.9333.0907 1.36.272c.4373.1814.8213.448 1.152.8.3306.352.592.784.784 1.296.2026.5014.304 1.0774.304 1.728 0 .64-.1014 1.216-.304 1.728-.192.5014-.4534.928-.784 1.28-.3307.3414-.7147.6027-1.152.784-.4267.1814-.88.272-1.36.272zm0-1.088c.3306 0 .6346-.0693.912-.208.2773-.1493.512-.352.704-.608.2026-.2666.3573-.5813.464-.944.1066-.3626.16-.768.16-1.216s-.0534-.8533-.16-1.216c-.1067-.3733-.2614-.6933-.464-.96-.192-.2666-.4267-.4693-.704-.608-.2774-.1493-.5814-.224-.912-.224-.3307 0-.6347.0747-.912.224-.2774.1387-.5174.3414-.72.608-.192.2667-.3414.5867-.448.96-.1067.3627-.16.768-.16 1.216s.0533.8534.16 1.216c.1066.3627.256.6774.448.944.2026.256.4426.4587.72.608.2773.1387.5813.208.912.208zm5.8719.896v-6.704h-1.056v-.992l1.056-.08v-1.232c0-.8.1813-1.4293.544-1.888.3733-.4586.9493-.688 1.728-.688.2453 0 .4746.0267.688.08.224.0427.4266.1014.608.176l-.288 1.008c-.288-.128-.5814-.192-.88-.192-.7254 0-1.088.5014-1.088 1.504v1.232h1.648v1.072h-1.648v6.704zm4.4478 0v-7.776h1.088l.112 1.408h.048c.2667-.4906.5867-.88.96-1.168.384-.288.8-.432 1.248-.432.3094 0 .5867.0534.832.16l-.256 1.152c-.128-.0426-.2453-.0746-.352-.096-.1066-.0213-.24-.032-.4-.032-.3306 0-.6773.1334-1.04.4-.352.2667-.6613.7307-.928 1.392v4.992zm8.5429.192c-.5229 0-1.0136-.0906-1.4722-.272-.448-.192-.8427-.4586-1.184-.8-.3307-.352-.592-.7786-.784-1.28-.192-.5013-.288-1.072-.288-1.712s.096-1.2106.288-1.712c.2026-.512.464-.944.784-1.296.3306-.352.704-.6186 1.12-.8.416-.192.848-.288 1.296-.288.4902 0 .9282.0854 1.3122.256.394.1707.72.416.976.736.266.32.469.704.608 1.152.138.448.208.9494.208 1.504 0 .1387-.006.2774-.016.416 0 .128-.011.24-.032.336h-5.2482c.0533.832.3093 1.4934.768 1.984.4693.48 1.0773.72 1.8242.72.373 0 .714-.0533 1.024-.16.32-.1173.624-.2666.912-.448l.464.864c-.342.2134-.72.4-1.136.56s-.891.24-1.424.24zm-2.4482-4.704h4.1602c0-.7893-.171-1.3866-.512-1.792-.331-.416-.8-.624-1.4082-.624-.2774 0-.544.0534-.8.16-.2454.1067-.4694.2667-.672.48-.2027.2027-.3734.4534-.512.752-.128.2987-.2134.64-.256 1.024zm8.8072 4.704c-.651 0-1.195-.192-1.632-.576-.427-.384-.64-.928-.64-1.632 0-.8533.378-1.504 1.136-1.952.757-.4586 1.968-.7786 3.632-.96 0-.2453-.027-.4853-.08-.72-.043-.2346-.123-.4426-.24-.624-.118-.1813-.283-.3253-.496-.432-.203-.1173-.464-.176-.784-.176-.448 0-.87.0854-1.264.256-.395.1707-.747.3627-1.056.576l-.512-.912c.362-.2346.805-.4586 1.328-.672.522-.224 1.098-.336 1.728-.336.949 0 1.637.2934 2.064.88.426.576.64 1.3494.64 2.32v4.768h-1.088l-.112-.928h-.048c-.374.3094-.774.576-1.2.8-.427.2134-.886.32-1.376.32zm.384-1.056c.373 0 .725-.0853 1.056-.256.33-.1813.682-.4426 1.056-.784v-2.16c-.651.0854-1.2.1867-1.648.304-.438.1174-.795.256-1.072.416-.267.16-.464.3467-.592.56-.118.2027-.176.4267-.176.672 0 .448.133.768.4.96.266.192.592.288.976.288zm8.542 1.056c-.981 0-1.765-.352-2.352-1.056-.576-.704-.864-1.7066-.864-3.008 0-.6293.091-1.1946.272-1.696.192-.512.443-.944.752-1.296s.667-.624 1.072-.816.832-.288 1.28-.288.837.08 1.168.24.667.3787 1.008.656l-.064-1.328v-2.992h1.328v11.392h-1.088l-.112-.912h-.048c-.309.2987-.667.56-1.072.784-.395.2134-.821.32-1.28.32zm.288-1.104c.363 0 .704-.0853 1.024-.256.32-.1813.64-.4533.96-.816v-4.064c-.331-.2986-.651-.5066-.96-.624-.299-.128-.608-.192-.928-.192-.309 0-.603.0747-.88.224-.267.1387-.501.3414-.704.608-.203.256-.363.5654-.48.928-.117.3627-.176.768-.176 1.216 0 .9387.187 1.6694.56 2.192.373.5227.901.784 1.584.784zm5.931.912v-7.776h1.312v7.776zm.672-9.376c-.256 0-.475-.08-.656-.24-.171-.16-.256-.3626-.256-.608 0-.256.085-.4586.256-.608.181-.16.4-.24.656-.24s.469.08.64.24c.181.1494.272.352.272.608 0 .2454-.091.448-.272.608-.171.16-.384.24-.64.24zm3.266 9.376v-7.776h1.088l.112 1.12h.048c.373-.3733.762-.6826 1.168-.928.416-.256.896-.384 1.44-.384.821 0 1.418.256 1.792.768.384.512.576 1.2694.576 2.272v4.928h-1.312v-4.752c0-.736-.118-1.264-.352-1.584-.235-.3306-.608-.496-1.12-.496-.406 0-.763.1014-1.072.304-.31.2027-.662.5014-1.056.896v5.632zm11.374 3.584c-.48 0-.918-.048-1.312-.144-.395-.0853-.736-.2186-1.024-.4-.278-.1813-.496-.4-.656-.656-.15-.256-.224-.5546-.224-.896 0-.3306.101-.6453.304-.944.202-.2986.48-.5706.832-.816v-.064c-.192-.1173-.358-.2773-.496-.48-.128-.2133-.192-.4746-.192-.784 0-.3306.09-.6186.272-.864.181-.2453.373-.4373.576-.576v-.064c-.256-.2133-.491-.496-.704-.848-.203-.3626-.304-.7786-.304-1.248 0-.4266.074-.8106.224-1.152.16-.3413.373-.6293.64-.864.266-.2453.576-.432.928-.56.362-.128.741-.192 1.136-.192.213 0 .41.0214.592.064.192.032.362.0747.512.128h2.704v1.008h-1.6c.181.1814.33.4107.448.688.128.2774.192.5814.192.912 0 .416-.075.7947-.224 1.136-.15.3307-.352.6134-.608.848-.256.224-.56.4-.912.528-.342.128-.71.192-1.104.192-.192 0-.39-.0213-.592-.064-.203-.0533-.395-.1226-.576-.208-.139.1174-.256.2507-.352.4-.096.1387-.144.3147-.144.528 0 .2454.096.448.288.608s.554.24 1.088.24h1.504c.906 0 1.584.1494 2.032.448.458.288.688.7574.688 1.408 0 .3627-.091.704-.272 1.024-.182.3307-.443.6187-.784.864-.342.2454-.758.4374-1.248.576-.48.1494-1.024.224-1.632.224zm0-6.928c.224 0 .432-.0426.624-.128.202-.0853.378-.208.528-.368.16-.16.282-.352.368-.576.085-.2346.128-.496.128-.784 0-.576-.16-1.0186-.48-1.328-.32-.32-.71-.48-1.168-.48-.459 0-.848.16-1.168.48-.32.3094-.48.752-.48 1.328 0 .288.042.5494.128.784.085.224.202.416.352.576.16.16.336.2827.528.368.202.0854.416.128.64.128zm.192 6.016c.373 0 .709-.048 1.008-.144.309-.0853.57-.2026.784-.352.213-.1386.378-.304.496-.496.117-.192.176-.3893.176-.592 0-.3626-.134-.6133-.4-.752-.267-.1386-.656-.208-1.168-.208h-1.344c-.15 0-.315-.0106-.496-.032-.171-.0106-.342-.0426-.512-.096-.278.2027-.48.416-.608.64s-.192.448-.192.672c0 .416.197.7467.592.992.405.2454.96.368 1.664.368zm10.481-2.48c-.555 0-1.083-.1013-1.584-.304-.501-.2026-.939-.4586-1.312-.768l.656-.88c.341.2774.688.5014 1.04.672.363.1707.779.256 1.248.256.512 0 .896-.1173 1.152-.352.256-.2346.384-.5226.384-.864 0-.2026-.053-.3786-.16-.528-.107-.1493-.245-.2773-.416-.384-.16-.1173-.347-.2186-.56-.304-.213-.0853-.427-.1706-.64-.256-.277-.096-.555-.2026-.832-.32-.277-.128-.528-.2773-.752-.448-.213-.1813-.389-.3893-.528-.624-.139-.2346-.208-.5173-.208-.848 0-.3093.059-.5973.176-.864.128-.2773.304-.512.528-.704.235-.2026.517-.3573.848-.464.331-.1173.704-.176 1.12-.176.491 0 .939.0854 1.344.256.416.1707.773.3787 1.072.624l-.624.832c-.267-.2026-.544-.368-.832-.496s-.603-.192-.944-.192c-.491 0-.853.112-1.088.336-.224.224-.336.4854-.336.784 0 .1814.048.3414.144.48.096.128.224.2454.384.352.16.096.341.1867.544.272.213.0747.432.1547.656.24.277.1067.555.2187.832.336.288.1174.544.2667.768.448.224.1707.405.384.544.64.149.256.224.5654.224.928 0 .32-.064.6187-.192.896-.117.2774-.299.5227-.544.736-.235.2134-.533.3787-.896.496-.352.128-.757.192-1.216.192zm7.695 0c-.48 0-.938-.0906-1.376-.272-.426-.1813-.805-.4426-1.136-.784-.33-.352-.597-.7786-.8-1.28-.192-.512-.288-1.088-.288-1.728 0-.6506.096-1.2266.288-1.728.203-.512.47-.944.8-1.296.331-.352.71-.6186 1.136-.8.438-.1813.896-.272 1.376-.272s.934.0907 1.36.272c.438.1814.822.448 1.152.8.331.352.592.784.784 1.296.203.5014.304 1.0774.304 1.728 0 .64-.101 1.216-.304 1.728-.192.5014-.453.928-.784 1.28-.33.3414-.714.6027-1.152.784-.426.1814-.88.272-1.36.272zm0-1.088c.331 0 .635-.0693.912-.208.278-.1493.512-.352.704-.608.203-.2666.358-.5813.464-.944.107-.3626.16-.768.16-1.216s-.053-.8533-.16-1.216c-.106-.3733-.261-.6933-.464-.96-.192-.2666-.426-.4693-.704-.608-.277-.1493-.581-.224-.912-.224-.33 0-.634.0747-.912.224-.277.1387-.517.3414-.72.608-.192.2667-.341.5867-.448.96-.106.3627-.16.768-.16 1.216s.054.8534.16 1.216c.107.3627.256.6774.448.944.203.256.443.4587.72.608.278.1387.582.208.912.208zm5.872.896v-6.704h-1.056v-.992l1.056-.08v-1.232c0-.8.181-1.4293.544-1.888.373-.4586.949-.688 1.728-.688.245 0 .475.0267.688.08.224.0427.427.1014.608.176l-.288 1.008c-.288-.128-.581-.192-.88-.192-.725 0-1.088.5014-1.088 1.504v1.232h2.848l.16-2.176h1.088v2.176h2.112v1.072h-2.112v4.32c0 .48.091.8534.272 1.12.181.256.496.384.944.384.139 0 .288-.0213.448-.064.16-.0426.304-.0906.432-.144l.256.992c-.213.0747-.448.1387-.704.192-.245.064-.491.096-.736.096-.416 0-.768-.064-1.056-.192-.277-.128-.507-.304-.688-.528-.171-.224-.293-.496-.368-.816s-.112-.672-.112-1.056v-4.304h-2.784v6.704zm10.508 0-2.16-7.776h1.344l1.152 4.496c.085.3734.165.736.24 1.088s.149.7094.224 1.072h.064c.085-.3626.171-.72.256-1.072.085-.3626.176-.7253.272-1.088l1.2-4.496h1.28l1.216 4.496c.096.3734.187.736.272 1.088.096.352.187.7094.272 1.072h.064c.085-.3626.165-.72.24-1.072s.155-.7146.24-1.088l1.136-4.496h1.248l-2.08 7.776h-1.6l-1.12-4.176c-.096-.3733-.187-.7413-.272-1.104-.075-.3626-.16-.7413-.256-1.136h-.064c-.085.3947-.171.7787-.256 1.152-.085.3627-.181.7307-.288 1.104l-1.088 4.16zm11.888.192c-.65 0-1.194-.192-1.632-.576-.426-.384-.64-.928-.64-1.632 0-.8533.379-1.504 1.136-1.952.758-.4586 1.968-.7786 3.632-.96 0-.2453-.026-.4853-.08-.72-.042-.2346-.122-.4426-.24-.624-.117-.1813-.282-.3253-.496-.432-.202-.1173-.464-.176-.784-.176-.448 0-.869.0854-1.264.256-.394.1707-.746.3627-1.056.576l-.512-.912c.363-.2346.806-.4586 1.328-.672.523-.224 1.099-.336 1.728-.336.95 0 1.638.2934 2.064.88.427.576.64 1.3494.64 2.32v4.768h-1.088l-.112-.928h-.048c-.373.3094-.773.576-1.2.8-.426.2134-.885.32-1.376.32zm.384-1.056c.374 0 .726-.0853 1.056-.256.331-.1813.683-.4426 1.056-.784v-2.16c-.65.0854-1.2.1867-1.648.304-.437.1174-.794.256-1.072.416-.266.16-.464.3467-.592.56-.117.2027-.176.4267-.176.672 0 .448.134.768.4.96.267.192.592.288.976.288zm5.887.864v-7.776h1.088l.112 1.408h.048c.266-.4906.586-.88.96-1.168.384-.288.8-.432 1.248-.432.309 0 .586.0534.832.16l-.256 1.152c-.128-.0426-.246-.0746-.352-.096-.107-.0213-.24-.032-.4-.032-.331 0-.678.1334-1.04.4-.352.2667-.662.7307-.928 1.392v4.992zm8.542.192c-.522 0-1.013-.0906-1.472-.272-.448-.192-.842-.4586-1.184-.8-.33-.352-.592-.7786-.784-1.28-.192-.5013-.288-1.072-.288-1.712s.096-1.2106.288-1.712c.203-.512.464-.944.784-1.296.331-.352.704-.6186 1.12-.8.416-.192.848-.288 1.296-.288.491 0 .928.0854 1.312.256.395.1707.72.416.976.736.267.32.47.704.608 1.152.139.448.208.9494.208 1.504 0 .1387-.005.2774-.016.416 0 .128-.01.24-.032.336h-5.248c.054.832.31 1.4934.768 1.984.47.48 1.078.72 1.824.72.374 0 .715-.0533 1.024-.16.32-.1173.624-.2666.912-.448l.464.864c-.341.2134-.72.4-1.136.56s-.89.24-1.424.24zm-2.448-4.704h4.16c0-.7893-.17-1.3866-.512-1.792-.33-.416-.8-.624-1.408-.624-.277 0-.544.0534-.8.16-.245.1067-.469.2667-.672.48-.202.2027-.373.4534-.512.752-.128.2987-.213.64-.256 1.024z" fill="#18181a"/></g></svg>