<svg width="500" height="400" viewBox="0 0 500 400" fill="none" xmlns="http://www.w3.org/2000/svg">
<g clip-path="url(#clip0)">
<rect width="500" height="400" rx="12" fill="#F8F9FA"/>
<rect width="500" height="400" rx="12" fill="white"/>
<g filter="url(#filter0_dd)">
<rect y="80" width="120" height="320" fill="#485263"/>
</g>
<g filter="url(#filter1_dd)">
<rect width="500" height="50" fill="#1F252F"/>
</g>
<rect x="470" y="20" width="10" height="10" rx="5" fill="white"/>
<rect x="448" y="20" width="10" height="10" rx="5" fill="white"/>
<rect x="426" y="20" width="10" height="10" rx="5" fill="white"/>
<g filter="url(#filter2_dd)">
<rect y="50" width="500" height="30" fill="#2E3644"/>
</g>
<rect y="104" width="120" height="24" fill="#408727"/>
<rect y="376" width="120" height="24" fill="#2E3644"/>
<g clip-path="url(#clip1)">
<path d="M460 370C460 364.477 464.477 360 470 360C475.523 360 480 364.477 480 370C480 375.523 475.523 380 470 380C464.477 380 460 375.523 460 370Z" fill="#45A1FC"/>
<path fill-rule="evenodd" clip-rule="evenodd" d="M470 380C475.523 380 480 375.523 480 370C480 364.477 475.523 360 470 360C464.477 360 460 364.477 460 370C460 375.523 464.477 380 470 380Z" fill="#45A1FC"/>
<mask id="mask0" mask-type="alpha" maskUnits="userSpaceOnUse" x="460" y="360" width="20" height="20">
<path fill-rule="evenodd" clip-rule="evenodd" d="M470 380C475.523 380 480 375.523 480 370C480 364.477 475.523 360 470 360C464.477 360 460 364.477 460 370C460 375.523 464.477 380 470 380Z" fill="white"/>
</mask>
<g mask="url(#mask0)">
</g>
<path d="M495 371V373C493.345 373 492.584 372.429 491.668 371.055C491.084 370.179 490.845 370 490 370C489.155 370 488.916 370.179 488.332 371.055C487.416 372.429 486.655 373 485 373C483.345 373 482.584 372.429 481.668 371.055C481.084 370.179 480.845 370 480 370C479.155 370 478.916 370.179 478.332 371.055C477.416 372.429 476.655 373 475 373C473.345 373 472.584 372.429 471.668 371.055C471.084 370.179 470.845 370 470 370C469.155 370 468.916 370.179 468.332 371.055C467.416 372.429 466.655 373 465 373C463.345 373 462.584 372.429 461.668 371.055C461.084 370.179 460.845 370 460 370C459.155 370 458.916 370.179 458.332 371.055C457.416 372.429 456.655 373 455 373V371C455.845 371 456.084 370.821 456.668 369.945C457.584 368.571 458.345 368 460 368C461.655 368 462.416 368.571 463.332 369.945C463.916 370.821 464.155 371 465 371C465.845 371 466.084 370.821 466.668 369.945C467.584 368.571 468.345 368 470 368C471.655 368 472.416 368.571 473.332 369.945C473.916 370.821 474.155 371 475 371C475.845 371 476.084 370.821 476.668 369.945C477.584 368.571 478.345 368 480 368C481.655 368 482.416 368.571 483.332 369.945C483.916 370.821 484.155 371 485 371C485.845 371 486.084 370.821 486.668 369.945C487.584 368.571 488.345 368 490 368C491.655 368 492.416 368.571 493.332 369.945C493.916 370.821 494.155 371 495 371Z" fill="white"/>
</g>
<path d="M34.9717 14.8181C31.9789 13.6514 21.1306 13.2201 21.1124 19.693C17.9474 21.7194 15.8516 25.0242 15.8516 28.5568C15.8516 32.8277 19.3134 36.2879 23.5857 36.2879C27.858 36.2879 31.3198 32.8261 31.3198 28.5568C31.3201 26.9892 30.844 25.4586 29.9545 24.1678C29.065 22.877 27.8042 21.8871 26.3392 21.3293C25.7793 21.1129 24.563 20.7311 23.5916 20.8131C22.2058 21.6942 20.5158 23.5058 19.7166 25.3101C20.9045 23.8846 22.7614 23.2609 24.406 23.5283C25.5983 23.7239 26.6823 24.3368 27.4645 25.2576C28.2468 26.1784 28.6764 27.3472 28.6767 28.5555C28.6767 31.3698 26.3858 33.6494 23.5715 33.6494C22.8348 33.6508 22.1066 33.4918 21.4375 33.1836C20.7684 32.8754 20.1743 32.4253 19.6965 31.8646C18.3248 30.2497 17.9712 28.4989 18.2541 26.7879C19.2314 20.7889 26.3452 17.3764 31.6335 16.0655C29.9082 16.9791 26.797 18.4783 24.6192 20.1144C30.9691 22.5665 31.997 17.2124 34.9717 14.8181Z" fill="white"/>
<rect x="10" y="90" width="60" height="4" rx="2" fill="white"/>
<rect x="10" y="138" width="60" height="4" rx="2" fill="white"/>
<rect x="10" y="114" width="60" height="4" rx="2" fill="white"/>
<path fill-rule="evenodd" clip-rule="evenodd" d="M209 151C209 149.343 210.343 148 212 148H406C407.657 148 409 149.343 409 151C409 152.657 407.657 154 406 154H212C210.343 154 209 152.657 209 151ZM209 177C209 175.343 210.343 174 212 174H406C407.657 174 409 175.343 409 177C409 178.657 407.657 180 406 180H212C210.343 180 209 178.657 209 177ZM212 200C210.343 200 209 201.343 209 203C209 204.657 210.343 206 212 206H406C407.657 206 409 204.657 409 203C409 201.343 407.657 200 406 200H212ZM209 229C209 227.343 210.343 226 212 226H406C407.657 226 409 227.343 409 229C409 230.657 407.657 232 406 232H212C210.343 232 209 230.657 209 229ZM212 252C210.343 252 209 253.343 209 255C209 256.657 210.343 258 212 258H406C407.657 258 409 256.657 409 255C409 253.343 407.657 252 406 252H212ZM209 281C209 279.343 210.343 278 212 278H406C407.657 278 409 279.343 409 281C409 282.657 407.657 284 406 284H212C210.343 284 209 282.657 209 281ZM212 304C210.343 304 209 305.343 209 307C209 308.657 210.343 310 212 310H346C347.657 310 349 308.657 349 307C349 305.343 347.657 304 346 304H212Z" fill="#D0D2D8"/>
<rect x="120" y="57" width="182" height="16" rx="8" fill="white"/>
<path d="M211 59H294C297.314 59 300 61.6863 300 65V65C300 68.3137 297.314 71 294 71H211V59Z" fill="#408727"/>
<path d="M62.5527 26.0098C62.5527 26.8457 62.4121 27.5762 62.1309 28.2012C61.8496 28.8223 61.4512 29.2969 60.9355 29.625C60.4199 29.9531 59.8184 30.1172 59.1309 30.1172C58.459 30.1172 57.8633 29.9531 57.3438 29.625C56.8242 29.293 56.4199 28.8223 56.1309 28.2129C55.8457 27.5996 55.6992 26.8906 55.6914 26.0859V25.4707C55.6914 24.6504 55.834 23.9258 56.1191 23.2969C56.4043 22.668 56.8066 22.1875 57.3262 21.8555C57.8496 21.5195 58.4473 21.3516 59.1191 21.3516C59.8027 21.3516 60.4043 21.5176 60.9238 21.8496C61.4473 22.1777 61.8496 22.6562 62.1309 23.2852C62.4121 23.9102 62.5527 24.6387 62.5527 25.4707V26.0098ZM61.4336 25.459C61.4336 24.4473 61.2305 23.6719 60.8242 23.1328C60.418 22.5898 59.8496 22.3184 59.1191 22.3184C58.4082 22.3184 57.8477 22.5898 57.4375 23.1328C57.0312 23.6719 56.8223 24.4219 56.8105 25.3828V26.0098C56.8105 26.9902 57.0156 27.7617 57.4258 28.3242C57.8398 28.8828 58.4082 29.1621 59.1309 29.1621C59.8574 29.1621 60.4199 28.8984 60.8184 28.3711C61.2168 27.8398 61.4219 27.0801 61.4336 26.0918V25.459ZM66.1621 28.5293L67.7324 23.6602H68.8398L66.5664 30H65.7402L63.4434 23.6602H64.5508L66.1621 28.5293ZM72.4316 30.1172C71.5723 30.1172 70.873 29.8359 70.334 29.2734C69.7949 28.707 69.5254 27.9512 69.5254 27.0059V26.8066C69.5254 26.1777 69.6445 25.6172 69.8828 25.125C70.125 24.6289 70.4609 24.2422 70.8906 23.9648C71.3242 23.6836 71.793 23.543 72.2969 23.543C73.1211 23.543 73.7617 23.8145 74.2188 24.3574C74.6758 24.9004 74.9043 25.6777 74.9043 26.6895V27.1406H70.6094C70.625 27.7656 70.8066 28.2715 71.1543 28.6582C71.5059 29.041 71.9512 29.2324 72.4902 29.2324C72.873 29.2324 73.1973 29.1543 73.4629 28.998C73.7285 28.8418 73.9609 28.6348 74.1602 28.377L74.8223 28.8926C74.291 29.709 73.4941 30.1172 72.4316 30.1172ZM72.2969 24.4336C71.8594 24.4336 71.4922 24.5938 71.1953 24.9141C70.8984 25.2305 70.7148 25.6758 70.6445 26.25H73.8203V26.168C73.7891 25.6172 73.6406 25.1914 73.375 24.8906C73.1094 24.5859 72.75 24.4336 72.2969 24.4336ZM79.2285 24.6328C79.0645 24.6055 78.8867 24.5918 78.6953 24.5918C77.9844 24.5918 77.502 24.8945 77.248 25.5V30H76.1641V23.6602H77.2188L77.2363 24.3926C77.5918 23.8262 78.0957 23.543 78.748 23.543C78.959 23.543 79.1191 23.5703 79.2285 23.625V24.6328ZM81.4082 30H80.3242V21H81.4082V30ZM85.7793 30.1172C84.9199 30.1172 84.2207 29.8359 83.6816 29.2734C83.1426 28.707 82.873 27.9512 82.873 27.0059V26.8066C82.873 26.1777 82.9922 25.6172 83.2305 25.125C83.4727 24.6289 83.8086 24.2422 84.2383 23.9648C84.6719 23.6836 85.1406 23.543 85.6445 23.543C86.4688 23.543 87.1094 23.8145 87.5664 24.3574C88.0234 24.9004 88.252 25.6777 88.252 26.6895V27.1406H83.957C83.9727 27.7656 84.1543 28.2715 84.502 28.6582C84.8535 29.041 85.2988 29.2324 85.8379 29.2324C86.2207 29.2324 86.5449 29.1543 86.8105 28.998C87.0762 28.8418 87.3086 28.6348 87.5078 28.377L88.1699 28.8926C87.6387 29.709 86.8418 30.1172 85.7793 30.1172ZM85.6445 24.4336C85.207 24.4336 84.8398 24.5938 84.543 24.9141C84.2461 25.2305 84.0625 25.6758 83.9922 26.25H87.168V26.168C87.1367 25.6172 86.9883 25.1914 86.7227 24.8906C86.457 24.5859 86.0977 24.4336 85.6445 24.4336ZM93.4258 30C93.3633 29.875 93.3125 29.6523 93.2734 29.332C92.7695 29.8555 92.168 30.1172 91.4688 30.1172C90.8438 30.1172 90.3301 29.9414 89.9277 29.5898C89.5293 29.2344 89.3301 28.7852 89.3301 28.2422C89.3301 27.582 89.5801 27.0703 90.0801 26.707C90.584 26.3398 91.291 26.1562 92.2012 26.1562H93.2559V25.6582C93.2559 25.2793 93.1426 24.9785 92.916 24.7559C92.6895 24.5293 92.3555 24.416 91.9141 24.416C91.5273 24.416 91.2031 24.5137 90.9414 24.709C90.6797 24.9043 90.5488 25.1406 90.5488 25.418H89.459C89.459 25.1016 89.5703 24.7969 89.793 24.5039C90.0195 24.207 90.3242 23.9727 90.707 23.8008C91.0938 23.6289 91.5176 23.543 91.9785 23.543C92.709 23.543 93.2812 23.7266 93.6953 24.0938C94.1094 24.457 94.3242 24.959 94.3398 25.5996V28.5176C94.3398 29.0996 94.4141 29.5625 94.5625 29.9062V30H93.4258ZM91.627 29.1738C91.9668 29.1738 92.2891 29.0859 92.5938 28.9102C92.8984 28.7344 93.1191 28.5059 93.2559 28.2246V26.9238H92.4062C91.0781 26.9238 90.4141 27.3125 90.4141 28.0898C90.4141 28.4297 90.5273 28.6953 90.7539 28.8867C90.9805 29.0781 91.2715 29.1738 91.627 29.1738ZM96.5723 30V24.498H95.5703V23.6602H96.5723V23.0098C96.5723 22.3301 96.7539 21.8047 97.1172 21.4336C97.4805 21.0625 97.9941 20.877 98.6582 20.877C98.9082 20.877 99.1562 20.9102 99.4023 20.9766L99.3438 21.8555C99.1602 21.8203 98.9648 21.8027 98.7578 21.8027C98.4062 21.8027 98.1348 21.9062 97.9434 22.1133C97.752 22.3164 97.6562 22.6094 97.6562 22.9922V23.6602H99.0098V24.498H97.6562V30H96.5723Z" fill="white"/>
</g>
<defs>
<filter id="filter0_dd" x="-5" y="77" width="130" height="330" filterUnits="userSpaceOnUse" color-interpolation-filters="sRGB">
<feFlood flood-opacity="0" result="BackgroundImageFix"/>
<feColorMatrix in="SourceAlpha" type="matrix" values="0 0 0 0 0 0 0 0 0 0 0 0 0 0 0 0 0 0 127 0"/>
<feMorphology radius="1" operator="erode" in="SourceAlpha" result="effect1_dropShadow"/>
<feOffset dy="1"/>
<feGaussianBlur stdDeviation="2"/>
<feColorMatrix type="matrix" values="0 0 0 0 0 0 0 0 0 0 0 0 0 0 0 0 0 0 0.04 0"/>
<feBlend mode="normal" in2="BackgroundImageFix" result="effect1_dropShadow"/>
<feColorMatrix in="SourceAlpha" type="matrix" values="0 0 0 0 0 0 0 0 0 0 0 0 0 0 0 0 0 0 127 0"/>
<feMorphology radius="1" operator="erode" in="SourceAlpha" result="effect2_dropShadow"/>
<feOffset dy="2"/>
<feGaussianBlur stdDeviation="3"/>
<feColorMatrix type="matrix" values="0 0 0 0 0 0 0 0 0 0 0 0 0 0 0 0 0 0 0.16 0"/>
<feBlend mode="normal" in2="effect1_dropShadow" result="effect2_dropShadow"/>
<feBlend mode="normal" in="SourceGraphic" in2="effect2_dropShadow" result="shape"/>
</filter>
<filter id="filter1_dd" x="-5" y="-3" width="510" height="60" filterUnits="userSpaceOnUse" color-interpolation-filters="sRGB">
<feFlood flood-opacity="0" result="BackgroundImageFix"/>
<feColorMatrix in="SourceAlpha" type="matrix" values="0 0 0 0 0 0 0 0 0 0 0 0 0 0 0 0 0 0 127 0"/>
<feMorphology radius="1" operator="erode" in="SourceAlpha" result="effect1_dropShadow"/>
<feOffset dy="1"/>
<feGaussianBlur stdDeviation="2"/>
<feColorMatrix type="matrix" values="0 0 0 0 0 0 0 0 0 0 0 0 0 0 0 0 0 0 0.04 0"/>
<feBlend mode="normal" in2="BackgroundImageFix" result="effect1_dropShadow"/>
<feColorMatrix in="SourceAlpha" type="matrix" values="0 0 0 0 0 0 0 0 0 0 0 0 0 0 0 0 0 0 127 0"/>
<feMorphology radius="1" operator="erode" in="SourceAlpha" result="effect2_dropShadow"/>
<feOffset dy="2"/>
<feGaussianBlur stdDeviation="3"/>
<feColorMatrix type="matrix" values="0 0 0 0 0 0 0 0 0 0 0 0 0 0 0 0 0 0 0.16 0"/>
<feBlend mode="normal" in2="effect1_dropShadow" result="effect2_dropShadow"/>
<feBlend mode="normal" in="SourceGraphic" in2="effect2_dropShadow" result="shape"/>
</filter>
<filter id="filter2_dd" x="-5" y="47" width="510" height="40" filterUnits="userSpaceOnUse" color-interpolation-filters="sRGB">
<feFlood flood-opacity="0" result="BackgroundImageFix"/>
<feColorMatrix in="SourceAlpha" type="matrix" values="0 0 0 0 0 0 0 0 0 0 0 0 0 0 0 0 0 0 127 0"/>
<feMorphology radius="1" operator="erode" in="SourceAlpha" result="effect1_dropShadow"/>
<feOffset dy="1"/>
<feGaussianBlur stdDeviation="2"/>
<feColorMatrix type="matrix" values="0 0 0 0 0 0 0 0 0 0 0 0 0 0 0 0 0 0 0.04 0"/>
<feBlend mode="normal" in2="BackgroundImageFix" result="effect1_dropShadow"/>
<feColorMatrix in="SourceAlpha" type="matrix" values="0 0 0 0 0 0 0 0 0 0 0 0 0 0 0 0 0 0 127 0"/>
<feMorphology radius="1" operator="erode" in="SourceAlpha" result="effect2_dropShadow"/>
<feOffset dy="2"/>
<feGaussianBlur stdDeviation="3"/>
<feColorMatrix type="matrix" values="0 0 0 0 0 0 0 0 0 0 0 0 0 0 0 0 0 0 0.16 0"/>
<feBlend mode="normal" in2="effect1_dropShadow" result="effect2_dropShadow"/>
<feBlend mode="normal" in="SourceGraphic" in2="effect2_dropShadow" result="shape"/>
</filter>
<clipPath id="clip0">
<rect width="500" height="400" rx="12" fill="white"/>
</clipPath>
<clipPath id="clip1">
<path d="M460 370C460 364.477 464.477 360 470 360C475.523 360 480 364.477 480 370C480 375.523 475.523 380 470 380C464.477 380 460 375.523 460 370Z" fill="white"/>
</clipPath>
</defs>
</svg>
