<svg fill="none" height="51" viewBox="0 0 51 51" width="51" xmlns="http://www.w3.org/2000/svg"><path clip-rule="evenodd" d="m14.0635 14.354h2.969c1.2329 0 2.2324.9995 2.2324 2.2324v8.6615h5.8041v3.1253h-6.6971c-1.2329 0-2.2323-.9995-2.2323-2.2324v-8.6615h-2.0761zm22.703 2.2324v2.3216h-3.1253v-1.4287h-2.4556v10.8939h-3.1253v-10.8939h-2.4556v1.4287h-3.1253v-2.3216c0-1.2329.9995-2.2324 2.2324-2.2324h9.8223c1.2329 0 2.2324.9995 2.2324 2.2324z" fill="#000" fill-rule="evenodd"/><path d="m12.6154 36.7558-2.90642-2.076c.85382-1.1954 1.73472-2.1203 2.66142-2.769 1.0301-.7211 2.1247-1.1042 3.2565-1.1042 1.051 0 1.9612.2549 2.7745.7429.3281.1968.6295.4239.9342.6928.2101.1853.3602.3308.6794.6501.484.4839.685.6613.9257.8057.2611.1567.5367.2338.9368.2338.4005 0 .6773-.0774.9397-.2346.2419-.1448.4446-.3232.9284-.8061l.0044-.0045c.3177-.3171.4693-.4637.6794-.6487.3043-.268.6052-.4943.9326-.6906.8115-.4865 1.7192-.7408 2.7661-.7408s1.9545.2543 2.7661.7408c.3274.1963.6282.4226.9325.6906.2102.185.3617.3316.6794.6487l.0045.0045c.4838.4829.6865.6613.9283.8061.2625.1572.5393.2346.9398.2346.3564 0 .75-.1377 1.2082-.4585.5615-.393 1.1689-1.0308 1.8033-1.9189l2.9064 2.076c-.8538 1.1954-1.7347 2.1203-2.6614 2.769-1.0301.7211-2.1247 1.1042-3.2565 1.1042-1.0506 0-1.961-.2547-2.7749-.7421-.3284-.1966-.6302-.4236-.9354-.6922-.2107-.1855-.3627-.3324-.681-.6502l-.0045-.0045c-.4826-.4817-.6847-.6596-.9251-.8038-.2601-.1559-.5336-.2325-.9297-.2325s-.6696.0766-.9297.2325c-.2404.1442-.4425.3221-.9251.8038l-.0045.0045c-.3184.3178-.4703.4647-.6811.6502-.3051.2686-.6069.4956-.9353.6922-.8139.4874-1.7243.7421-2.7749.7421-1.0509 0-1.9612-.2549-2.7745-.7428-.3281-.1969-.6295-.424-.9342-.6928-.2101-.1854-.3601-.3309-.6794-.6501-.4839-.4839-.685-.6614-.9257-.8058-.261-.1566-.5367-.2338-.9368-.2338-.3564 0-.75.1378-1.2082.4585-.5615.393-1.1689 1.0308-1.8033 1.9189z" fill="#45a8fc"/></svg>