<svg fill="none" height="24" viewBox="0 0 24 24" width="24" xmlns="http://www.w3.org/2000/svg" xmlns:xlink="http://www.w3.org/1999/xlink"><mask height="24" maskUnits="userSpaceOnUse" width="24" x="0" y="0"><path clip-rule="evenodd" d="m12 24c6.6274 0 12-5.3726 12-12 0-6.62742-5.3726-12-12-12-6.62742 0-12 5.37258-12 12 0 6.6274 5.37258 12 12 12z" fill="#fff" fill-rule="evenodd"/></mask><mask height="24" maskUnits="userSpaceOnUse" width="24" x="0" y="0"><path clip-rule="evenodd" d="m12 24c6.6274 0 12-5.3726 12-12 0-6.62742-5.3726-12-12-12-6.62742 0-12 5.37258-12 12 0 6.6274 5.37258 12 12 12z" fill="#fff" fill-rule="evenodd"/></mask><mask id="a" height="24" maskUnits="userSpaceOnUse" width="24" x="0" y="0"><path clip-rule="evenodd" d="m12 24c6.6274 0 12-5.3726 12-12 0-6.62742-5.3726-12-12-12-6.62742 0-12 5.37258-12 12 0 6.6274 5.37258 12 12 12z" fill="#fff" fill-rule="evenodd"/></mask><path clip-rule="evenodd" d="m12 24c6.6274 0 12-5.3726 12-12 0-6.62742-5.3726-12-12-12-6.62742 0-12 5.37258-12 12 0 6.6274 5.37258 12 12 12z" fill="#45a8fc" fill-rule="evenodd"/><g mask="url(#a)"><path d="m42 13.2001v2.4c-1.9857 0-2.8988-.6848-3.9985-2.3344-.7003-1.0504-.9872-1.2656-2.0015-1.2656s-1.3012.2152-2.0015 1.2656c-1.0997 1.6496-2.0128 2.3344-3.9985 2.3344s-2.8988-.6848-3.9985-2.3344c-.7003-1.0504-.9872-1.2656-2.0015-1.2656s-1.3012.2152-2.0015 1.2656c-1.0997 1.6496-2.0128 2.3344-3.9985 2.3344s-2.8988-.6848-3.9985-2.3344c-.7003-1.0504-.9872-1.2656-2.0015-1.2656s-1.3012.2152-2.00154 1.2656c-1.09969 1.6496-2.01279 2.3344-3.99846 2.3344s-2.89877-.6848-3.99846-2.3344c-.70031-1.0504-.98721-1.2656-2.00154-1.2656s-1.30123.2152-2.00154 1.2656c-1.09969 1.6496-2.01279 2.3344-3.99846 2.3344v-2.4c1.01433 0 1.30123-.2152 2.00154-1.2656 1.09969-1.6496 2.01279-2.3344 3.99846-2.3344s2.89877.6848 3.99846 2.3344c.70031 1.0504.98721 1.2656 2.00154 1.2656s1.30123-.2152 2.00154-1.2656c1.09969-1.6496 2.01276-2.3344 3.99846-2.3344s2.8988.6848 3.9985 2.3344c.7003 1.0504.9872 1.2656 2.0015 1.2656s1.3012-.2152 2.0015-1.2656c1.0997-1.6496 2.0128-2.3344 3.9985-2.3344s2.8988.6848 3.9985 2.3344c.7003 1.0504.9872 1.2656 2.0015 1.2656s1.3012-.2152 2.0015-1.2656c1.0997-1.6496 2.0128-2.3344 3.9985-2.3344s2.8988.6848 3.9985 2.3344c.7003 1.0504.9872 1.2656 2.0015 1.2656z" fill="#fff"/></g></svg>