<svg width="500" height="400" viewBox="0 0 500 400" fill="none" xmlns="http://www.w3.org/2000/svg">
<g clip-path="url(#clip0)">
<path d="M0 12C0 5.37257 5.37258 0 12 0H488C494.627 0 500 5.37258 500 12V388C500 394.627 494.627 400 488 400H12C5.37258 400 0 394.627 0 388V12Z" fill="#F8F9FA"/>
<rect width="500" height="400" rx="12" fill="#F8F9FA"/>
<g filter="url(#filter0_dd)">
<rect y="60" width="120" height="340" fill="white"/>
</g>
<g filter="url(#filter1_dd)">
<rect x="160" y="115" width="300" height="230" fill="white"/>
</g>
<g filter="url(#filter2_dd)">
<rect x="10" y="72" width="100" height="72" fill="#45A1FC"/>
</g>
<g filter="url(#filter3_dd)">
<rect x="10" y="156" width="100" height="72" fill="#45A1FC"/>
</g>
<g filter="url(#filter4_dd)">
<rect x="10" y="240" width="100" height="72" fill="#45A1FC"/>
</g>
<path fill-rule="evenodd" clip-rule="evenodd" d="M37 182C35.3431 182 34 183.343 34 185C34 186.657 35.3431 188 37 188H83C84.6569 188 86 186.657 86 185C86 183.343 84.6569 182 83 182H37ZM46 196C44.3431 196 43 197.343 43 199C43 200.657 44.3431 202 46 202H73.9592C75.616 202 76.9592 200.657 76.9592 199C76.9592 197.343 75.616 196 73.9592 196H46Z" fill="white"/>
<path fill-rule="evenodd" clip-rule="evenodd" d="M37 266C35.3431 266 34 267.343 34 269C34 270.657 35.3431 272 37 272H83C84.6569 272 86 270.657 86 269C86 267.343 84.6569 266 83 266H37ZM46 280C44.3431 280 43 281.343 43 283C43 284.657 44.3431 286 46 286H73.9592C75.616 286 76.9592 284.657 76.9592 283C76.9592 281.343 75.616 280 73.9592 280H46Z" fill="white"/>
<g filter="url(#filter5_dd)">
<rect width="500" height="60" fill="white"/>
</g>
<rect width="44" height="44" transform="translate(8 8)" fill="white"/>
<path fill-rule="evenodd" clip-rule="evenodd" d="M20.0984 13.5H33.2984L42.0984 22.3V44.3C42.0984 45.515 41.1135 46.5 39.8984 46.5H20.0984C18.8834 46.5 17.8984 45.515 17.8984 44.3V15.7C17.8984 14.485 18.8834 13.5 20.0984 13.5Z" fill="#F5BA16"/>
<mask id="mask0" mask-type="alpha" maskUnits="userSpaceOnUse" x="17" y="13" width="26" height="34">
<path fill-rule="evenodd" clip-rule="evenodd" d="M20.0984 13.5H33.2984L42.0984 22.3V44.3C42.0984 45.515 41.1135 46.5 39.8984 46.5H20.0984C18.8834 46.5 17.8984 45.515 17.8984 44.3V15.7C17.8984 14.485 18.8834 13.5 20.0984 13.5Z" fill="white"/>
</mask>
<g mask="url(#mask0)">
<path fill-rule="evenodd" clip-rule="evenodd" d="M33.3008 13.5L42.1008 22.3V31.65L33.8508 21.53L33.3008 13.5Z" fill="url(#paint0_linear)"/>
<g filter="url(#filter6_d)">
<path fill-rule="evenodd" clip-rule="evenodd" d="M33.3008 13.5L42.1008 22.3H35.5008C34.2858 22.3 33.3008 21.315 33.3008 20.1V13.5Z" fill="#FADC86"/>
</g>
<path fill-rule="evenodd" clip-rule="evenodd" d="M25.0492 28.6801C24.4417 28.6801 23.9492 29.1725 23.9492 29.7801V39.6801C23.9492 40.2876 24.4417 40.7801 25.0492 40.7801H34.9492C35.5567 40.7801 36.0492 40.2876 36.0492 39.6801V29.7801C36.0492 29.1725 35.5567 28.6801 34.9492 28.6801H25.0492ZM34.51 32.09H25.49V37.37H34.51V32.09Z" fill="white"/>
</g>
<rect x="387" y="16" width="93" height="28" fill="#F5BA16"/>
<rect x="278.5" y="16.5" width="92" height="27" stroke="#DADCE0"/>
<path d="M67.2891 35.8809C67 36.2949 66.5957 36.6055 66.0762 36.8125C65.5605 37.0156 64.959 37.1172 64.2715 37.1172C63.5762 37.1172 62.959 36.9551 62.4199 36.6309C61.8809 36.3027 61.4629 35.8379 61.166 35.2363C60.873 34.6348 60.7227 33.9375 60.7148 33.1445V32.4004C60.7148 31.1152 61.0137 30.1191 61.6113 29.4121C62.2129 28.7051 63.0566 28.3516 64.1426 28.3516C65.0332 28.3516 65.75 28.5801 66.293 29.0371C66.8359 29.4902 67.168 30.1348 67.2891 30.9707H66.1641C65.9531 29.8418 65.2812 29.2773 64.1484 29.2773C63.3945 29.2773 62.8223 29.543 62.4316 30.0742C62.0449 30.6016 61.8496 31.3672 61.8457 32.3711V33.0684C61.8457 34.0254 62.0645 34.7871 62.502 35.3535C62.9395 35.916 63.5312 36.1973 64.2773 36.1973C64.6992 36.1973 65.0684 36.1504 65.3848 36.0566C65.7012 35.9629 65.9629 35.8047 66.1699 35.582V33.666H64.1953V32.752H67.2891V35.8809ZM68.7129 33.7715C68.7129 33.1504 68.834 32.5918 69.0762 32.0957C69.3223 31.5996 69.6621 31.2168 70.0957 30.9473C70.5332 30.6777 71.0312 30.543 71.5898 30.543C72.4531 30.543 73.1504 30.8418 73.6816 31.4395C74.2168 32.0371 74.4844 32.832 74.4844 33.8242V33.9004C74.4844 34.5176 74.3652 35.0723 74.127 35.5645C73.8926 36.0527 73.5547 36.4336 73.1133 36.707C72.6758 36.9805 72.1719 37.1172 71.6016 37.1172C70.7422 37.1172 70.0449 36.8184 69.5098 36.2207C68.9785 35.623 68.7129 34.832 68.7129 33.8477V33.7715ZM69.8027 33.9004C69.8027 34.6035 69.9648 35.168 70.2891 35.5938C70.6172 36.0195 71.0547 36.2324 71.6016 36.2324C72.1523 36.2324 72.5898 36.0176 72.9141 35.5879C73.2383 35.1543 73.4004 34.5488 73.4004 33.7715C73.4004 33.0762 73.2344 32.5137 72.9023 32.084C72.5742 31.6504 72.1367 31.4336 71.5898 31.4336C71.0547 31.4336 70.623 31.6465 70.2949 32.0723C69.9668 32.498 69.8027 33.1074 69.8027 33.9004ZM75.5566 33.7715C75.5566 33.1504 75.6777 32.5918 75.9199 32.0957C76.166 31.5996 76.5059 31.2168 76.9395 30.9473C77.377 30.6777 77.875 30.543 78.4336 30.543C79.2969 30.543 79.9941 30.8418 80.5254 31.4395C81.0605 32.0371 81.3281 32.832 81.3281 33.8242V33.9004C81.3281 34.5176 81.209 35.0723 80.9707 35.5645C80.7363 36.0527 80.3984 36.4336 79.957 36.707C79.5195 36.9805 79.0156 37.1172 78.4453 37.1172C77.5859 37.1172 76.8887 36.8184 76.3535 36.2207C75.8223 35.623 75.5566 34.832 75.5566 33.8477V33.7715ZM76.6465 33.9004C76.6465 34.6035 76.8086 35.168 77.1328 35.5938C77.4609 36.0195 77.8984 36.2324 78.4453 36.2324C78.9961 36.2324 79.4336 36.0176 79.7578 35.5879C80.082 35.1543 80.2441 34.5488 80.2441 33.7715C80.2441 33.0762 80.0781 32.5137 79.7461 32.084C79.418 31.6504 78.9805 31.4336 78.4336 31.4336C77.8984 31.4336 77.4668 31.6465 77.1387 32.0723C76.8105 32.498 76.6465 33.1074 76.6465 33.9004ZM82.4297 33.7773C82.4297 32.7891 82.6582 32.0039 83.1152 31.4219C83.5723 30.8359 84.1777 30.543 84.9316 30.543C85.7051 30.543 86.3086 30.8164 86.7422 31.3633L86.7949 30.6602H87.7852V36.8477C87.7852 37.668 87.541 38.3145 87.0527 38.7871C86.5684 39.2598 85.916 39.4961 85.0957 39.4961C84.6387 39.4961 84.1914 39.3984 83.7539 39.2031C83.3164 39.0078 82.9824 38.7402 82.752 38.4004L83.3145 37.75C83.7793 38.3242 84.3477 38.6113 85.0195 38.6113C85.5469 38.6113 85.957 38.4629 86.25 38.166C86.5469 37.8691 86.6953 37.4512 86.6953 36.9121V36.3672C86.2617 36.8672 85.6699 37.1172 84.9199 37.1172C84.1777 37.1172 83.5762 36.8184 83.1152 36.2207C82.6582 35.623 82.4297 34.8086 82.4297 33.7773ZM83.5195 33.9004C83.5195 34.6152 83.666 35.1777 83.959 35.5879C84.252 35.9941 84.6621 36.1973 85.1895 36.1973C85.873 36.1973 86.375 35.8867 86.6953 35.2656V32.3711C86.3633 31.7656 85.8652 31.4629 85.2012 31.4629C84.6738 31.4629 84.2617 31.668 83.9648 32.0781C83.668 32.4883 83.5195 33.0957 83.5195 33.9004ZM90.6035 37H89.5195V28H90.6035V37ZM94.9746 37.1172C94.1152 37.1172 93.416 36.8359 92.877 36.2734C92.3379 35.707 92.0684 34.9512 92.0684 34.0059V33.8066C92.0684 33.1777 92.1875 32.6172 92.4258 32.125C92.668 31.6289 93.0039 31.2422 93.4336 30.9648C93.8672 30.6836 94.3359 30.543 94.8398 30.543C95.6641 30.543 96.3047 30.8145 96.7617 31.3574C97.2188 31.9004 97.4473 32.6777 97.4473 33.6895V34.1406H93.1523C93.168 34.7656 93.3496 35.2715 93.6973 35.6582C94.0488 36.041 94.4941 36.2324 95.0332 36.2324C95.416 36.2324 95.7402 36.1543 96.0059 35.998C96.2715 35.8418 96.5039 35.6348 96.7031 35.377L97.3652 35.8926C96.834 36.709 96.0371 37.1172 94.9746 37.1172ZM94.8398 31.4336C94.4023 31.4336 94.0352 31.5938 93.7383 31.9141C93.4414 32.2305 93.2578 32.6758 93.1875 33.25H96.3633V33.168C96.332 32.6172 96.1836 32.1914 95.918 31.8906C95.6523 31.5859 95.293 31.4336 94.8398 31.4336ZM104.367 33.1973C103.402 32.9199 102.699 32.5801 102.258 32.1777C101.82 31.7715 101.602 31.2715 101.602 30.6777C101.602 30.0059 101.869 29.4512 102.404 29.0137C102.943 28.5723 103.643 28.3516 104.502 28.3516C105.088 28.3516 105.609 28.4648 106.066 28.6914C106.527 28.918 106.883 29.2305 107.133 29.6289C107.387 30.0273 107.514 30.4629 107.514 30.9355H106.383C106.383 30.4199 106.219 30.0156 105.891 29.7227C105.562 29.4258 105.1 29.2773 104.502 29.2773C103.947 29.2773 103.514 29.4004 103.201 29.6465C102.893 29.8887 102.738 30.2266 102.738 30.6602C102.738 31.0078 102.885 31.3027 103.178 31.5449C103.475 31.7832 103.977 32.002 104.684 32.2012C105.395 32.4004 105.949 32.6211 106.348 32.8633C106.75 33.1016 107.047 33.3809 107.238 33.7012C107.434 34.0215 107.531 34.3984 107.531 34.832C107.531 35.5234 107.262 36.0781 106.723 36.4961C106.184 36.9102 105.463 37.1172 104.561 37.1172C103.975 37.1172 103.428 37.0059 102.92 36.7832C102.412 36.5566 102.02 36.248 101.742 35.8574C101.469 35.4668 101.332 35.0234 101.332 34.5273H102.463C102.463 35.043 102.652 35.4512 103.031 35.752C103.414 36.0488 103.924 36.1973 104.561 36.1973C105.154 36.1973 105.609 36.0762 105.926 35.834C106.242 35.5918 106.4 35.2617 106.4 34.8438C106.4 34.4258 106.254 34.1035 105.961 33.877C105.668 33.6465 105.137 33.4199 104.367 33.1973ZM109.986 37H108.902V28H109.986V37ZM112.904 37H111.82V30.6602H112.904V37ZM111.732 28.9785C111.732 28.8027 111.785 28.6543 111.891 28.5332C112 28.4121 112.16 28.3516 112.371 28.3516C112.582 28.3516 112.742 28.4121 112.852 28.5332C112.961 28.6543 113.016 28.8027 113.016 28.9785C113.016 29.1543 112.961 29.3008 112.852 29.418C112.742 29.5352 112.582 29.5938 112.371 29.5938C112.16 29.5938 112 29.5352 111.891 29.418C111.785 29.3008 111.732 29.1543 111.732 28.9785ZM114.381 33.7773C114.381 32.8047 114.611 32.0234 115.072 31.4336C115.533 30.8398 116.137 30.543 116.883 30.543C117.625 30.543 118.213 30.7969 118.646 31.3047V28H119.73V37H118.734L118.682 36.3203C118.248 36.8516 117.645 37.1172 116.871 37.1172C116.137 37.1172 115.537 36.8164 115.072 36.2148C114.611 35.6133 114.381 34.8281 114.381 33.8594V33.7773ZM115.465 33.9004C115.465 34.6191 115.613 35.1816 115.91 35.5879C116.207 35.9941 116.617 36.1973 117.141 36.1973C117.828 36.1973 118.33 35.8887 118.646 35.2715V32.3594C118.322 31.7617 117.824 31.4629 117.152 31.4629C116.621 31.4629 116.207 31.668 115.91 32.0781C115.613 32.4883 115.465 33.0957 115.465 33.9004ZM124.049 37.1172C123.189 37.1172 122.49 36.8359 121.951 36.2734C121.412 35.707 121.143 34.9512 121.143 34.0059V33.8066C121.143 33.1777 121.262 32.6172 121.5 32.125C121.742 31.6289 122.078 31.2422 122.508 30.9648C122.941 30.6836 123.41 30.543 123.914 30.543C124.738 30.543 125.379 30.8145 125.836 31.3574C126.293 31.9004 126.521 32.6777 126.521 33.6895V34.1406H122.227C122.242 34.7656 122.424 35.2715 122.771 35.6582C123.123 36.041 123.568 36.2324 124.107 36.2324C124.49 36.2324 124.814 36.1543 125.08 35.998C125.346 35.8418 125.578 35.6348 125.777 35.377L126.439 35.8926C125.908 36.709 125.111 37.1172 124.049 37.1172ZM123.914 31.4336C123.477 31.4336 123.109 31.5938 122.812 31.9141C122.516 32.2305 122.332 32.6758 122.262 33.25H125.438V33.168C125.406 32.6172 125.258 32.1914 124.992 31.8906C124.727 31.5859 124.367 31.4336 123.914 31.4336ZM131.473 35.3184C131.473 35.0254 131.361 34.7988 131.139 34.6387C130.92 34.4746 130.535 34.334 129.984 34.2168C129.438 34.0996 129.002 33.959 128.678 33.7949C128.357 33.6309 128.119 33.4355 127.963 33.209C127.811 32.9824 127.734 32.7129 127.734 32.4004C127.734 31.8809 127.953 31.4414 128.391 31.082C128.832 30.7227 129.395 30.543 130.078 30.543C130.797 30.543 131.379 30.7285 131.824 31.0996C132.273 31.4707 132.498 31.9453 132.498 32.5234H131.408C131.408 32.2266 131.281 31.9707 131.027 31.7559C130.777 31.541 130.461 31.4336 130.078 31.4336C129.684 31.4336 129.375 31.5195 129.152 31.6914C128.93 31.8633 128.818 32.0879 128.818 32.3652C128.818 32.627 128.922 32.8242 129.129 32.957C129.336 33.0898 129.709 33.2168 130.248 33.3379C130.791 33.459 131.23 33.6035 131.566 33.7715C131.902 33.9395 132.15 34.1426 132.311 34.3809C132.475 34.6152 132.557 34.9023 132.557 35.2422C132.557 35.8086 132.33 36.2637 131.877 36.6074C131.424 36.9473 130.836 37.1172 130.113 37.1172C129.605 37.1172 129.156 37.0273 128.766 36.8477C128.375 36.668 128.068 36.418 127.846 36.0977C127.627 35.7734 127.518 35.4238 127.518 35.0488H128.602C128.621 35.4121 128.766 35.7012 129.035 35.916C129.309 36.127 129.668 36.2324 130.113 36.2324C130.523 36.2324 130.852 36.1504 131.098 35.9863C131.348 35.8184 131.473 35.5957 131.473 35.3184Z" fill="black"/>
<rect x="398" y="28" width="72" height="4" rx="2" fill="white"/>
<rect x="289" y="28" width="72" height="4" rx="2" fill="#F1F1F3"/>
<path fill-rule="evenodd" clip-rule="evenodd" d="M212 164C210.343 164 209 165.343 209 167C209 168.657 210.343 170 212 170H406C407.657 170 409 168.657 409 167C409 165.343 407.657 164 406 164H212ZM212 190C210.343 190 209 191.343 209 193C209 194.657 210.343 196 212 196H406C407.657 196 409 194.657 409 193C409 191.343 407.657 190 406 190H212ZM209 219C209 217.343 210.343 216 212 216H406C407.657 216 409 217.343 409 219C409 220.657 407.657 222 406 222H212C210.343 222 209 220.657 209 219ZM212 242C210.343 242 209 243.343 209 245C209 246.657 210.343 248 212 248H406C407.657 248 409 246.657 409 245C409 243.343 407.657 242 406 242H212ZM209 271C209 269.343 210.343 268 212 268H406C407.657 268 409 269.343 409 271C409 272.657 407.657 274 406 274H212C210.343 274 209 272.657 209 271ZM212 294C210.343 294 209 295.343 209 297C209 298.657 210.343 300 212 300H346C347.657 300 349 298.657 349 297C349 295.343 347.657 294 346 294H212Z" fill="#D0D2D8"/>
<g filter="url(#filter7_dd)">
<rect x="142" y="135" width="36" height="36" rx="8" fill="white"/>
<g clip-path="url(#clip1)">
<path d="M150 153C150 147.477 154.477 143 160 143V143C165.523 143 170 147.477 170 153V153C170 158.523 165.523 163 160 163V163C154.477 163 150 158.523 150 153V153Z" fill="#45A1FC"/>
<path fill-rule="evenodd" clip-rule="evenodd" d="M160 163C165.523 163 170 158.523 170 153C170 147.477 165.523 143 160 143C154.477 143 150 147.477 150 153C150 158.523 154.477 163 160 163Z" fill="#45A1FC"/>
<mask id="mask1" mask-type="alpha" maskUnits="userSpaceOnUse" x="150" y="143" width="20" height="20">
<path fill-rule="evenodd" clip-rule="evenodd" d="M160 163C165.523 163 170 158.523 170 153C170 147.477 165.523 143 160 143C154.477 143 150 147.477 150 153C150 158.523 154.477 163 160 163Z" fill="white"/>
</mask>
<g mask="url(#mask1)">
</g>
<path d="M185 154V156C183.345 156 182.584 155.429 181.668 154.055C181.084 153.179 180.845 153 180 153C179.155 153 178.916 153.179 178.332 154.055C177.416 155.429 176.655 156 175 156C173.345 156 172.584 155.429 171.668 154.055C171.084 153.179 170.845 153 170 153C169.155 153 168.916 153.179 168.332 154.055C167.416 155.429 166.655 156 165 156C163.345 156 162.584 155.429 161.668 154.055C161.084 153.179 160.845 153 160 153C159.155 153 158.916 153.179 158.332 154.055C157.416 155.429 156.655 156 155 156C153.345 156 152.584 155.429 151.668 154.055C151.084 153.179 150.845 153 150 153C149.155 153 148.916 153.179 148.332 154.055C147.416 155.429 146.655 156 145 156V154C145.845 154 146.084 153.821 146.668 152.945C147.584 151.571 148.345 151 150 151C151.655 151 152.416 151.571 153.332 152.945C153.916 153.821 154.155 154 155 154C155.845 154 156.084 153.821 156.668 152.945C157.584 151.571 158.345 151 160 151C161.655 151 162.416 151.571 163.332 152.945C163.916 153.821 164.155 154 165 154C165.845 154 166.084 153.821 166.668 152.945C167.584 151.571 168.345 151 170 151C171.655 151 172.416 151.571 173.332 152.945C173.916 153.821 174.155 154 175 154C175.845 154 176.084 153.821 176.668 152.945C177.584 151.571 178.345 151 180 151C181.655 151 182.416 151.571 183.332 152.945C183.916 153.821 184.155 154 185 154V154Z" fill="white"/>
</g>
</g>
<path fill-rule="evenodd" clip-rule="evenodd" d="M37 98C35.3431 98 34 99.3431 34 101C34 102.657 35.3431 104 37 104H83C84.6569 104 86 102.657 86 101C86 99.3431 84.6569 98 83 98H37ZM46 112C44.3431 112 43 113.343 43 115C43 116.657 44.3431 118 46 118H73.9592C75.616 118 76.9592 116.657 76.9592 115C76.9592 113.343 75.616 112 73.9592 112H46Z" fill="white"/>
</g>
<defs>
<filter id="filter0_dd" x="-5" y="57" width="130" height="350" filterUnits="userSpaceOnUse" color-interpolation-filters="sRGB">
<feFlood flood-opacity="0" result="BackgroundImageFix"/>
<feColorMatrix in="SourceAlpha" type="matrix" values="0 0 0 0 0 0 0 0 0 0 0 0 0 0 0 0 0 0 127 0"/>
<feMorphology radius="1" operator="erode" in="SourceAlpha" result="effect1_dropShadow"/>
<feOffset dy="1"/>
<feGaussianBlur stdDeviation="2"/>
<feColorMatrix type="matrix" values="0 0 0 0 0 0 0 0 0 0 0 0 0 0 0 0 0 0 0.04 0"/>
<feBlend mode="normal" in2="BackgroundImageFix" result="effect1_dropShadow"/>
<feColorMatrix in="SourceAlpha" type="matrix" values="0 0 0 0 0 0 0 0 0 0 0 0 0 0 0 0 0 0 127 0"/>
<feMorphology radius="1" operator="erode" in="SourceAlpha" result="effect2_dropShadow"/>
<feOffset dy="2"/>
<feGaussianBlur stdDeviation="3"/>
<feColorMatrix type="matrix" values="0 0 0 0 0 0 0 0 0 0 0 0 0 0 0 0 0 0 0.16 0"/>
<feBlend mode="normal" in2="effect1_dropShadow" result="effect2_dropShadow"/>
<feBlend mode="normal" in="SourceGraphic" in2="effect2_dropShadow" result="shape"/>
</filter>
<filter id="filter1_dd" x="155" y="112" width="310" height="240" filterUnits="userSpaceOnUse" color-interpolation-filters="sRGB">
<feFlood flood-opacity="0" result="BackgroundImageFix"/>
<feColorMatrix in="SourceAlpha" type="matrix" values="0 0 0 0 0 0 0 0 0 0 0 0 0 0 0 0 0 0 127 0"/>
<feMorphology radius="1" operator="erode" in="SourceAlpha" result="effect1_dropShadow"/>
<feOffset dy="1"/>
<feGaussianBlur stdDeviation="2"/>
<feColorMatrix type="matrix" values="0 0 0 0 0 0 0 0 0 0 0 0 0 0 0 0 0 0 0.04 0"/>
<feBlend mode="normal" in2="BackgroundImageFix" result="effect1_dropShadow"/>
<feColorMatrix in="SourceAlpha" type="matrix" values="0 0 0 0 0 0 0 0 0 0 0 0 0 0 0 0 0 0 127 0"/>
<feMorphology radius="1" operator="erode" in="SourceAlpha" result="effect2_dropShadow"/>
<feOffset dy="2"/>
<feGaussianBlur stdDeviation="3"/>
<feColorMatrix type="matrix" values="0 0 0 0 0 0 0 0 0 0 0 0 0 0 0 0 0 0 0.16 0"/>
<feBlend mode="normal" in2="effect1_dropShadow" result="effect2_dropShadow"/>
<feBlend mode="normal" in="SourceGraphic" in2="effect2_dropShadow" result="shape"/>
</filter>
<filter id="filter2_dd" x="5" y="69" width="110" height="82" filterUnits="userSpaceOnUse" color-interpolation-filters="sRGB">
<feFlood flood-opacity="0" result="BackgroundImageFix"/>
<feColorMatrix in="SourceAlpha" type="matrix" values="0 0 0 0 0 0 0 0 0 0 0 0 0 0 0 0 0 0 127 0"/>
<feMorphology radius="1" operator="erode" in="SourceAlpha" result="effect1_dropShadow"/>
<feOffset dy="1"/>
<feGaussianBlur stdDeviation="2"/>
<feColorMatrix type="matrix" values="0 0 0 0 0 0 0 0 0 0 0 0 0 0 0 0 0 0 0.04 0"/>
<feBlend mode="normal" in2="BackgroundImageFix" result="effect1_dropShadow"/>
<feColorMatrix in="SourceAlpha" type="matrix" values="0 0 0 0 0 0 0 0 0 0 0 0 0 0 0 0 0 0 127 0"/>
<feMorphology radius="1" operator="erode" in="SourceAlpha" result="effect2_dropShadow"/>
<feOffset dy="2"/>
<feGaussianBlur stdDeviation="3"/>
<feColorMatrix type="matrix" values="0 0 0 0 0 0 0 0 0 0 0 0 0 0 0 0 0 0 0.16 0"/>
<feBlend mode="normal" in2="effect1_dropShadow" result="effect2_dropShadow"/>
<feBlend mode="normal" in="SourceGraphic" in2="effect2_dropShadow" result="shape"/>
</filter>
<filter id="filter3_dd" x="5" y="153" width="110" height="82" filterUnits="userSpaceOnUse" color-interpolation-filters="sRGB">
<feFlood flood-opacity="0" result="BackgroundImageFix"/>
<feColorMatrix in="SourceAlpha" type="matrix" values="0 0 0 0 0 0 0 0 0 0 0 0 0 0 0 0 0 0 127 0"/>
<feMorphology radius="1" operator="erode" in="SourceAlpha" result="effect1_dropShadow"/>
<feOffset dy="1"/>
<feGaussianBlur stdDeviation="2"/>
<feColorMatrix type="matrix" values="0 0 0 0 0 0 0 0 0 0 0 0 0 0 0 0 0 0 0.04 0"/>
<feBlend mode="normal" in2="BackgroundImageFix" result="effect1_dropShadow"/>
<feColorMatrix in="SourceAlpha" type="matrix" values="0 0 0 0 0 0 0 0 0 0 0 0 0 0 0 0 0 0 127 0"/>
<feMorphology radius="1" operator="erode" in="SourceAlpha" result="effect2_dropShadow"/>
<feOffset dy="2"/>
<feGaussianBlur stdDeviation="3"/>
<feColorMatrix type="matrix" values="0 0 0 0 0 0 0 0 0 0 0 0 0 0 0 0 0 0 0.16 0"/>
<feBlend mode="normal" in2="effect1_dropShadow" result="effect2_dropShadow"/>
<feBlend mode="normal" in="SourceGraphic" in2="effect2_dropShadow" result="shape"/>
</filter>
<filter id="filter4_dd" x="5" y="237" width="110" height="82" filterUnits="userSpaceOnUse" color-interpolation-filters="sRGB">
<feFlood flood-opacity="0" result="BackgroundImageFix"/>
<feColorMatrix in="SourceAlpha" type="matrix" values="0 0 0 0 0 0 0 0 0 0 0 0 0 0 0 0 0 0 127 0"/>
<feMorphology radius="1" operator="erode" in="SourceAlpha" result="effect1_dropShadow"/>
<feOffset dy="1"/>
<feGaussianBlur stdDeviation="2"/>
<feColorMatrix type="matrix" values="0 0 0 0 0 0 0 0 0 0 0 0 0 0 0 0 0 0 0.04 0"/>
<feBlend mode="normal" in2="BackgroundImageFix" result="effect1_dropShadow"/>
<feColorMatrix in="SourceAlpha" type="matrix" values="0 0 0 0 0 0 0 0 0 0 0 0 0 0 0 0 0 0 127 0"/>
<feMorphology radius="1" operator="erode" in="SourceAlpha" result="effect2_dropShadow"/>
<feOffset dy="2"/>
<feGaussianBlur stdDeviation="3"/>
<feColorMatrix type="matrix" values="0 0 0 0 0 0 0 0 0 0 0 0 0 0 0 0 0 0 0.16 0"/>
<feBlend mode="normal" in2="effect1_dropShadow" result="effect2_dropShadow"/>
<feBlend mode="normal" in="SourceGraphic" in2="effect2_dropShadow" result="shape"/>
</filter>
<filter id="filter5_dd" x="-5" y="-3" width="510" height="70" filterUnits="userSpaceOnUse" color-interpolation-filters="sRGB">
<feFlood flood-opacity="0" result="BackgroundImageFix"/>
<feColorMatrix in="SourceAlpha" type="matrix" values="0 0 0 0 0 0 0 0 0 0 0 0 0 0 0 0 0 0 127 0"/>
<feMorphology radius="1" operator="erode" in="SourceAlpha" result="effect1_dropShadow"/>
<feOffset dy="1"/>
<feGaussianBlur stdDeviation="2"/>
<feColorMatrix type="matrix" values="0 0 0 0 0 0 0 0 0 0 0 0 0 0 0 0 0 0 0.04 0"/>
<feBlend mode="normal" in2="BackgroundImageFix" result="effect1_dropShadow"/>
<feColorMatrix in="SourceAlpha" type="matrix" values="0 0 0 0 0 0 0 0 0 0 0 0 0 0 0 0 0 0 127 0"/>
<feMorphology radius="1" operator="erode" in="SourceAlpha" result="effect2_dropShadow"/>
<feOffset dy="2"/>
<feGaussianBlur stdDeviation="3"/>
<feColorMatrix type="matrix" values="0 0 0 0 0 0 0 0 0 0 0 0 0 0 0 0 0 0 0.16 0"/>
<feBlend mode="normal" in2="effect1_dropShadow" result="effect2_dropShadow"/>
<feBlend mode="normal" in="SourceGraphic" in2="effect2_dropShadow" result="shape"/>
</filter>
<filter id="filter6_d" x="32.7508" y="12.95" width="9.9" height="9.9" filterUnits="userSpaceOnUse" color-interpolation-filters="sRGB">
<feFlood flood-opacity="0" result="BackgroundImageFix"/>
<feColorMatrix in="SourceAlpha" type="matrix" values="0 0 0 0 0 0 0 0 0 0 0 0 0 0 0 0 0 0 127 0"/>
<feOffset/>
<feGaussianBlur stdDeviation="0.275"/>
<feColorMatrix type="matrix" values="0 0 0 0 0 0 0 0 0 0 0 0 0 0 0 0 0 0 0.144503 0"/>
<feBlend mode="normal" in2="BackgroundImageFix" result="effect1_dropShadow"/>
<feBlend mode="normal" in="SourceGraphic" in2="effect1_dropShadow" result="shape"/>
</filter>
<filter id="filter7_dd" x="137" y="132" width="46" height="46" filterUnits="userSpaceOnUse" color-interpolation-filters="sRGB">
<feFlood flood-opacity="0" result="BackgroundImageFix"/>
<feColorMatrix in="SourceAlpha" type="matrix" values="0 0 0 0 0 0 0 0 0 0 0 0 0 0 0 0 0 0 127 0"/>
<feMorphology radius="1" operator="erode" in="SourceAlpha" result="effect1_dropShadow"/>
<feOffset dy="1"/>
<feGaussianBlur stdDeviation="2"/>
<feColorMatrix type="matrix" values="0 0 0 0 0 0 0 0 0 0 0 0 0 0 0 0 0 0 0.04 0"/>
<feBlend mode="normal" in2="BackgroundImageFix" result="effect1_dropShadow"/>
<feColorMatrix in="SourceAlpha" type="matrix" values="0 0 0 0 0 0 0 0 0 0 0 0 0 0 0 0 0 0 127 0"/>
<feMorphology radius="1" operator="erode" in="SourceAlpha" result="effect2_dropShadow"/>
<feOffset dy="2"/>
<feGaussianBlur stdDeviation="3"/>
<feColorMatrix type="matrix" values="0 0 0 0 0 0 0 0 0 0 0 0 0 0 0 0 0 0 0.16 0"/>
<feBlend mode="normal" in2="effect1_dropShadow" result="effect2_dropShadow"/>
<feBlend mode="normal" in="SourceGraphic" in2="effect2_dropShadow" result="shape"/>
</filter>
<linearGradient id="paint0_linear" x1="45.067" y1="24.438" x2="35.6922" y2="19.5811" gradientUnits="userSpaceOnUse">
<stop stop-color="#F4B70A"/>
<stop offset="1" stop-color="#EBA216"/>
</linearGradient>
<clipPath id="clip0">
<path d="M0 12C0 5.37257 5.37258 0 12 0H488C494.627 0 500 5.37258 500 12V388C500 394.627 494.627 400 488 400H12C5.37258 400 0 394.627 0 388V12Z" fill="white"/>
</clipPath>
<clipPath id="clip1">
<path d="M150 153C150 147.477 154.477 143 160 143V143C165.523 143 170 147.477 170 153V153C170 158.523 165.523 163 160 163V163C154.477 163 150 158.523 150 153V153Z" fill="white"/>
</clipPath>
</defs>
</svg>
