<svg fill="none" height="100" viewBox="0 0 100 100" width="100" xmlns="http://www.w3.org/2000/svg"><circle cx="50" cy="50" fill="#039" r="50"/><g fill="#fc0"><path d="m50.1009 12.0046-1.6938 5.2132 2.6066.8469z"/><path d="m50.1009 12.0046 1.6939 5.2132-2.6066.8469z"/><path d="m55.3412 15.7917h-5.4815v2.7408z"/><path d="m55.3412 15.7917-4.4347 3.222-1.6109-2.2173z"/><path d="m53.3359 21.9208-1.6938-5.2132-2.6066.8469z"/><path d="m53.3359 21.9208-4.4346-3.222 1.611-2.2173z"/><path d="m44.8809 15.7917h5.4814v2.7408z"/><path d="m44.8809 15.7917 4.4346 3.222 1.6109-2.2174z"/><path d="m46.8861 21.9208 1.6939-5.2132 2.6066.8469z"/><path d="m46.8861 21.9208 4.4346-3.222-1.611-2.2173z"/><path d="m50.1009 77.7821-1.6938 5.2132 2.6066.8469z"/><path d="m50.1009 77.7821 1.6939 5.2132-2.6066.8469z"/><path d="m55.3412 81.5693h-5.4815v2.7407z"/><path d="m55.3412 81.5693-4.4347 3.2219-1.6109-2.2173z"/><path d="m53.3359 87.6983-1.6938-5.2132-2.6066.8469z"/><path d="m53.3359 87.6983-4.4346-3.222 1.611-2.2173z"/><path d="m44.8809 81.5693h5.4814v2.7407z"/><path d="m44.8809 81.5693 4.4346 3.2219 1.6109-2.2173z"/><path d="m46.8861 87.6983 1.6939-5.2132 2.6066.8469z"/><path d="m46.8861 87.6983 4.4346-3.222-1.611-2.2173z"/><path d="m17.2201 44.8933-1.6939 5.2132 2.6066.8469z"/><path d="m17.2201 44.8933 1.6938 5.2132-2.6066.8469z"/><path d="m22.4603 48.6805h-5.4815v2.7407z"/><path d="m22.4603 48.6805-4.4346 3.2219-1.611-2.2173z"/><path d="m20.4551 54.8095-1.6939-5.2132-2.6066.847z"/><path d="m20.4551 54.8095-4.4347-3.2219 1.611-2.2173z"/><path d="m12 48.6805h5.4815v2.7407z"/><path d="m12 48.6805 4.4346 3.2219 1.611-2.2173z"/><path d="m14.0052 54.8095 1.6939-5.2132 2.6066.847z"/><path d="m14.0052 54.8095 4.4347-3.2219-1.611-2.2173z"/><path d="m30.4449 26.3278 4.4346-3.222-1.611-2.2173z"/><path d="m30.4449 26.3278 1.6938-5.2132 2.6066.8469z"/><path d="m28.4765 20.1999 4.4346 3.222 1.6109-2.2173z"/><path d="m28.4765 20.1999h5.4814v2.7408z"/><path d="m33.6786 16.4114-1.6939 5.2132 2.6066.8469z"/><path d="m33.6786 16.4114 1.6939 5.2132-2.6066.8469z"/><path d="m36.8934 26.3278-4.4346-3.222 1.611-2.2173z"/><path d="m36.8934 26.3278-1.6938-5.2132-2.6066.8469z"/><path d="m38.8797 20.1999-4.4346 3.222-1.6109-2.2173z"/><path d="m38.8797 20.1999h-5.4814v2.7408z"/><path d="m24.8442 38.3657-1.6938-5.2132-2.6066.847z"/><path d="m24.8442 38.3657-4.4346-3.2219 1.611-2.2173z"/><path d="m18.4125 38.3657 4.4346-3.2219-1.611-2.2174z"/><path d="m18.4125 38.3657 1.6939-5.2132 2.6066.8469z"/><path d="m16.425 32.2378 4.4346 3.2219 1.611-2.2173z"/><path d="m16.425 32.2378h5.4815v2.7408z"/><path d="m26.8296 32.2378-4.4346 3.2219-1.611-2.2173z"/><path d="m26.8296 32.2378h-5.4815v2.7407z"/><path d="m21.6274 28.4495 1.6939 5.2132-2.6066.8469z"/><path d="m21.6274 28.4495-1.6939 5.2132 2.6066.8469z"/><path d="m26.8535 65.1254h-5.4814v2.7408z"/><path d="m26.8535 65.1254-4.4346 3.222-1.6109-2.2173z"/><path d="m24.845 71.2542-1.6939-5.2133-2.6066.847z"/><path d="m24.845 71.2542-4.4346-3.222 1.6109-2.2173z"/><path d="m18.4133 71.2543 4.4347-3.2219-1.611-2.2173z"/><path d="m18.4133 71.2543 1.6939-5.2132 2.6066.847z"/><path d="m21.6475 61.3383 1.6939 5.2132-2.6066.8469z"/><path d="m21.6475 61.3383-1.6939 5.2132 2.6066.8469z"/><path d="m16.4082 65.1254h5.4815v2.7408z"/><path d="m16.4082 65.1254 4.4346 3.222 1.611-2.2173z"/><path d="m38.8858 77.1633h-5.4815v2.7407z"/><path d="m38.8858 77.1633-4.4346 3.2219-1.611-2.2173z"/><path d="m36.8772 83.292-1.6939-5.2132-2.6066.8469z"/><path d="m36.8772 83.292-4.4346-3.2219 1.611-2.2174z"/><path d="m30.4456 83.2922 4.4346-3.222-1.611-2.2173z"/><path d="m30.4456 83.2922 1.6938-5.2132 2.6066.8469z"/><path d="m33.6796 73.3761 1.6938 5.2132-2.6066.847z"/><path d="m33.6796 73.3761-1.6939 5.2132 2.6066.847z"/><path d="m28.4403 77.1633h5.4815v2.7407z"/><path d="m28.4403 77.1633 4.4346 3.2219 1.611-2.2173z"/><path d="m83.0018 44.8933 1.6939 5.2132-2.6066.847z"/><path d="m83.0018 44.8933-1.6938 5.2132 2.6066.847z"/><path d="m77.7616 48.6805h5.4815v2.7408z"/><path d="m77.7616 48.6805 4.4346 3.2219 1.611-2.2173z"/><path d="m79.7668 54.8096 1.6939-5.2132 2.6066.8469z"/><path d="m79.7668 54.8096 4.4346-3.222-1.6109-2.2173z"/><path d="m88.2219 48.6805h-5.4815v2.7408z"/><path d="m88.2219 48.6805-4.4346 3.2219-1.611-2.2173z"/><path d="m86.2167 54.8096-1.6939-5.2132-2.6066.8469z"/><path d="m86.2167 54.8096-4.4346-3.222 1.611-2.2173z"/><path d="m69.7771 26.3278-4.4346-3.222 1.6109-2.2173z"/><path d="m69.7771 26.3278-1.6939-5.2132-2.6066.8469z"/><path d="m71.7453 20.1999-4.4346 3.222-1.611-2.2173z"/><path d="m71.7453 20.1999h-5.4815v2.7408z"/><path d="m66.5432 16.4114 1.6939 5.2132-2.6066.8469z"/><path d="m66.5432 16.4114-1.6939 5.2132 2.6066.8469z"/><path d="m63.3285 26.3278 4.4346-3.2219-1.611-2.2174z"/><path d="m63.3285 26.3278 1.6938-5.2132 2.6066.8469z"/><path d="m61.3422 20.2 4.4346 3.2219 1.6109-2.2173z"/><path d="m61.3422 20.2h5.4814v2.7407z"/><path d="m75.3778 38.3658 1.6939-5.2132 2.6066.8469z"/><path d="m75.3778 38.3658 4.4346-3.222-1.6109-2.2173z"/><path d="m81.8085 38.3657-4.4346-3.2219 1.6109-2.2173z"/><path d="m81.8085 38.3657-1.6939-5.2132-2.6066.8469z"/><path d="m83.7958 32.2378-4.4346 3.222-1.611-2.2174z"/><path d="m83.7962 32.2382h-5.4814v2.7408z"/><path d="m73.3919 32.2384 4.4346 3.2219 1.611-2.2173z"/><path d="m73.3919 32.2384h5.4815v2.7407z"/><path d="m78.5957 28.4495-1.6938 5.2132 2.6066.8469z"/><path d="m78.5957 28.4495 1.6939 5.2132-2.6066.8469z"/><path d="m73.3685 65.1255h5.4815v2.7407z"/><path d="m73.3685 65.1255 4.4346 3.2219 1.611-2.2173z"/><path d="m75.3771 71.2542 1.6939-5.2132 2.6066.8469z"/><path d="m75.3771 71.2542 4.4346-3.222-1.6109-2.2173z"/><path d="m81.8088 71.2544-4.4347-3.222 1.611-2.2173z"/><path d="m81.8088 71.2544-1.6939-5.2132-2.6066.8469z"/><path d="m78.5747 61.3383-1.6938 5.2132 2.6066.8469z"/><path d="m78.5747 61.3383 1.6939 5.2132-2.6066.8469z"/><path d="m83.814 65.1255h-5.4815v2.7407z"/><path d="m83.814 65.1255-4.4346 3.2219-1.611-2.2173z"/><path d="m61.3363 77.1633h5.4815v2.7408z"/><path d="m61.3363 77.1633 4.4346 3.2219 1.611-2.2173z"/><path d="m63.3449 83.292 1.6939-5.2132 2.6066.847z"/><path d="m63.3449 83.292 4.4346-3.2219-1.611-2.2173z"/><path d="m69.7765 83.2922-4.4346-3.2219 1.611-2.2173z"/><path d="m69.7765 83.2922-1.6938-5.2132-2.6066.8469z"/><path d="m66.5424 73.3761-1.6939 5.2132 2.6066.847z"/><path d="m66.5424 73.3761 1.6938 5.2132-2.6066.847z"/><path d="m71.7816 77.1633h-5.4815v2.7408z"/><path d="m71.7816 77.1633-4.4346 3.222-1.611-2.2173z"/></g></svg>