<?xml version="1.0" encoding="UTF-8"?>
<svg width="529px" height="529px" viewBox="0 0 529 529" version="1.1" xmlns="http://www.w3.org/2000/svg" xmlns:xlink="http://www.w3.org/1999/xlink">
    <!-- Generator: Sketch 50.2 (55047) - http://www.bohemiancoding.com/sketch -->
    <title>Slice</title>
    <desc>Created with Sketch.</desc>
    <defs></defs>
    <g id="Page-1" stroke="none" stroke-width="1" fill="none" fill-rule="evenodd">
        <g id="Flag_of_Asturias" transform="translate(-33.000000, -16.000000)" fill-rule="nonzero">
            <rect id="Rectangle-path" fill="#0066FF" x="0" y="0" width="900" height="600"></rect>
            <g id="Group" transform="translate(142.000000, 99.000000)" fill="#F7D417">
                <path d="M72.56,212.24 L74.6779,217.0026 L59.7639,243.8146 L55.2633,248.9298 L69.9123,248.9298 L67.5295,243.1971 L70.3535,238.0819 L80.5015,247.0777 L90.5615,238.0819 L93.3855,243.1971 L91.0027,248.9298 L105.6517,248.9298 L101.2394,243.8146 L86.2374,217.0026 L88.4436,212.24 L72.5586,212.24 L72.56,212.24 Z M80.5024,220.0011 L86.8562,231.4661 L80.5024,237.1988 L74.0604,231.4661 L80.5024,220.0011 Z" id="Shape"></path>
                <path d="M130.58,198.07 C133.1437,202.7559 136.7558,206.712 141.067,209.573 L139.377,368.363 C137.4289,368.72411 124.438,381.972 123.879,384.188 C123.64588,385.2831 123.47066,386.44 123.47066,387.5351 C123.47066,394.961 129.23926,400.9861 136.40666,400.9861 C140.13486,400.9861 143.74806,399.2822 146.19546,396.3002 C149.45846,399.3432 153.65286,400.9861 157.96446,400.9861 C162.33516,400.9861 166.52956,399.3431 169.73446,396.3002 C172.18186,399.2822 175.79406,400.9861 179.52326,400.9861 C186.68966,400.9861 192.45826,394.9611 192.45826,387.5351 C192.45826,386.44 192.3429,385.2831 192.05101,384.249 C191.72778,382.8801 178.06901,368.644 176.55201,368.363 L174.86201,209.573 C179.23271,206.6519 182.84491,202.6949 185.40801,198.07 L273.85601,197.33908 C274.49747,202.78598 285.49401,217.42508 290.92801,217.42508 C296.69551,217.42508 301.35701,212.49508 301.35701,206.53008 C301.35701,202.99998 299.78421,199.77408 297.04551,197.70498 C294.65601,195.87898 295.87971,191.92198 298.85171,191.92198 C299.90041,191.92198 300.89101,192.47006 301.47331,193.44388 C302.40578,193.68701 303.33851,193.80891 304.27091,193.80891 C308.46531,193.80891 312.19451,191.25281 313.88471,187.29691 C314.5832,185.53181 314.99131,183.64491 314.99131,181.75791 C314.99131,179.87091 314.58319,178.04491 313.88471,176.27991 C312.19481,172.32381 308.46551,169.70681 304.27091,169.70681 C303.33843,169.70681 302.40571,169.88965 301.47331,170.13279 C299.84231,172.87189 295.82191,171.65469 295.82191,168.42889 C295.82191,167.45482 296.28815,166.48099 297.04561,165.87199 C299.78431,163.80309 301.35711,160.51609 301.35711,157.04689 C301.35711,151.02189 296.69541,146.15189 290.92811,146.15189 C285.50191,146.15189 274.49511,160.80689 273.85611,166.23789 L185.41911,165.47605 C182.63301,160.36085 178.60621,156.11635 173.70911,153.20005 L172.88198,43.88005 C177.82688,43.24507 192.05198,31.21005 192.05198,26.04705 C192.05198,20.08205 187.39028,15.15205 181.62198,15.15205 C178.30108,15.15205 175.15518,16.85705 173.23188,19.65605 C171.48378,22.15205 167.69668,20.87405 167.69668,17.77005 C167.69668,16.67405 168.22103,15.63905 169.09558,15.09205 C169.38682,14.11805 169.50283,13.08305 169.50283,12.10915 C169.50283,7.78805 167.05543,3.83215 163.26803,2.12715 C161.57893,1.33615 159.77193,0.97115 157.96573,0.97115 C156.15973,0.97115 154.35363,1.33618 152.72153,2.12715 C148.87623,3.83215 146.42883,7.78825 146.42883,12.10915 C146.42883,13.14415 146.54637,14.11815 146.83717,15.09205 C147.71175,15.63902 148.29397,16.67405 148.29397,17.77005 C148.29397,19.53505 146.89507,20.99505 145.20617,20.99505 C144.21558,20.99505 143.34097,20.50908 142.75877,19.65605 C140.77757,16.85705 137.63167,15.15205 134.30967,15.15205 C128.54107,15.15205 123.88067,20.08205 123.88067,26.04705 C123.88067,31.71015 137.90967,43.29605 143.10867,43.88005 L142.23518,153.19005 C137.39928,156.11115 133.37888,160.31105 130.58218,165.42305 L42.07518,166.21514 C41.47186,161.08904 29.90518,146.12914 25.00318,146.12914 C19.23458,146.12914 14.57418,150.99924 14.57418,157.02414 C14.57418,160.49314 16.20518,163.78014 18.88568,165.84924 C19.64314,166.45827 20.10938,167.43234 20.10938,168.40614 C20.10938,170.17124 18.76858,171.63214 17.07948,171.63214 C16.02988,171.63214 15.04028,171.08405 14.51498,170.11024 C13.58342,169.8671 12.59278,169.68426 11.66028,169.68426 C7.52378,169.68426 3.73668,172.30126 2.10458,176.25736 C1.34713,177.96126 0.99798,179.84846 0.99798,181.73536 C0.99798,183.68346 1.34718,185.50926 2.10458,187.27436 C3.73658,191.23046 7.52378,193.78636 11.66028,193.78636 C12.59284,193.78636 13.58348,193.66446 14.51498,193.36038 C16.14698,190.68238 20.10938,191.89938 20.10938,195.06428 C20.10938,196.09928 19.6431,197.07338 18.88568,197.68238 C16.20518,199.69038 14.57418,202.97738 14.57418,206.50748 C14.57418,212.47248 19.23508,217.40248 25.00318,217.40248 C29.88298,217.40248 41.47518,202.41548 42.07518,197.31648 L130.58218,198.0474 L130.58214,198.04742 L130.58,198.07 Z" id="Shape"></path>
                <polygon id="Shape" points="77.63 197.66 83.3363 197.7253 83.3363 212.2003 77.63 212.2003 77.63 212.2003"></polygon>
                <path d="M229.16,214.88 C230.7331,216.0981 231.7236,217.923 231.8986,219.993 C232.01397,220.784 232.07274,221.575 232.07274,222.427 C232.07274,226.2621 231.14026,230.0349 229.39214,233.383 C226.71164,238.678 219.42814,238.313 217.21514,232.83491 C216.28267,230.46191 215.81624,227.90501 215.87434,225.34891 C216.10746,219.74901 219.19634,214.63691 224.03214,212.20191 L210.98014,212.20191 C211.67949,212.87189 212.02884,213.72381 212.02884,214.69791 C212.02884,215.00199 212.02884,215.30586 211.91348,215.61103 C210.86388,219.50593 210.33958,223.58393 210.33958,227.66203 C210.33958,229.67003 210.45712,231.61813 210.7477,233.62613 C211.56329,240.32223 217.0985,245.37313 223.6247,245.37313 C228.7529,245.37313 233.4135,242.20803 235.4527,237.33903 C237.5499,242.26903 242.2118,245.37313 247.3387,245.37313 C253.8647,245.37313 259.3997,240.32213 260.2167,233.56613 C260.44873,231.55703 260.62395,229.60913 260.62395,227.66213 C260.62395,223.58413 260.04169,219.56713 258.99295,215.61113 C258.70172,214.39303 259.05175,213.05423 259.92456,212.20203 L246.91756,212.20203 C251.75346,214.69803 254.84116,219.74903 255.01646,225.34903 L255.01646,225.95806 C255.01646,228.27016 254.60812,230.64396 253.73466,232.83506 C251.52036,238.31306 244.23686,238.67816 241.55666,233.4441 C239.40136,229.3051 238.52676,224.619 238.99326,219.9321 C239.22638,217.923 240.21696,216.0981 241.78986,214.88 L229.14586,214.88 L229.14586,214.88002 L229.16,214.88 Z" id="Shape"></path>
                <polygon id="Shape" points="232.61 197.72 238.3816 197.6547 238.3816 214.8717 232.61 214.8717 232.61 214.8717"></polygon>
            </g>
        </g>
    </g>
</svg>